M48
;Layer_Color=9474304
;FILE_FORMAT=2:5
INCH,LZ
;TYPE=PLATED
T1F00S00C0.01575
T2F00S00C0.02756
T3F00S00C0.02800
T4F00S00C0.03543
T5F00S00C0.03937
T6F00S00C0.04336
T7F00S00C0.06614
;TYPE=NON_PLATED
T8F00S00C0.04331
T9F00S00C0.06299
T10F00S00C0.11811
%
T01
X0033303Y0049606
X0064961Y0028346
X007559Y0032717
X0082382Y0033004
X0092126Y0030795
X0125591Y0037471
X0114961Y0051575
X0133071Y0055512
X0163394Y0043307
X0173228Y0033945
X0180709Y0018941
X0059449Y0009188
X0202Y0019532
X0210583Y0030008
X0223661Y0037882
X0228552Y0062017
X0214567Y0060102
X0208378
X0201969Y0060236
X0192904Y0109851
X0226378Y0165055
X0163985Y0110061
X0155512Y0098032
X0173228Y0079921
X0183071Y0086614
X0164567Y0062017
X0120079Y0070079
X009842Y0066732
X0081161Y0079035
X0086614Y009252
X0062598Y0085433
X0047894Y0120472
X0057087Y0143839
X0054012Y0151575
X0028724Y0144106
X0019425
X0003937Y0064961
X0019425Y0268425
X0028724
X0052284Y0271981
X0130209Y0308268
X0146457Y0308268
X0152362
X016063
X0166535Y0318015
X0170453Y0322067
X0177165Y0320866
X0173333Y0347638
X0166378Y0351
X0166342Y0359449
X0173522Y0364605
X0118595Y0368583
X0115525Y0343144
X0112205Y0337795
X0116177Y03223
X0139779Y0318015
X0091587Y0347638
Y0353792
X02225Y0249232
X0227165Y0242933
X0158661Y03815
X0096378Y0384433
X0077165Y0384539
X0049213Y0403543
X001378Y039931
X0008661Y0405094
T02
X016874Y0401575
X0187953
T03
X0019291Y0017563
X0074803Y0005118
X0103937Y0030795
X0125591Y0011425
X0209291Y0073852
X0205658Y0102756
X0219291
X0233645
X0071155Y0114911
X0053351Y013698
X001063Y0143846
X0006299Y0276772
X0121088Y033475
X0181745Y0314961
X0231496Y0276772
X0191339Y0373414
X0149638Y0385929
X0022109Y0386785
T04
X0069685Y0289764
Y0299764
X0086378Y029989
X0096378
X0106378
X0116378
X0126378
X0136378
X0146378
X0156378
X0166378
X0176378
X0088189Y0416142
X0078189
X0062205
X0052205
T05
X0119095Y0393898
X0136811
Y0419488
X0119095
T06
X02215Y0301
X02315
Y0311
X02215
Y0321
X02315
Y0331
X02215
Y0341
X02315
Y0351
X02215
Y0361
X02315
Y0371
X02215
Y0381
X02315
Y0391
X02215
T07
X0116142Y0018744
X0134646
X015315
T08
X0024075Y0255138
X02225Y0256713
T09
X02225Y0158287
X0024075Y0159862
T10
X001Y005
X02375
Y04175
X001
M30
