G04*
G04 #@! TF.GenerationSoftware,Altium Limited,Altium Designer,20.0.11 (256)*
G04*
G04 Layer_Color=32768*
%FSLAX25Y25*%
%MOIN*%
G70*
G01*
G75*
%ADD20C,0.00100*%
%ADD22C,0.00300*%
%ADD158C,0.00197*%
D20*
X8861Y137174D02*
X37601D01*
X8861Y120245D02*
Y137174D01*
Y120245D02*
X37601D01*
X37601Y137174D02*
X37601Y120245D01*
X32483Y133434D02*
X37601D01*
X32483Y123985D02*
Y133434D01*
Y123985D02*
X37601D01*
X8861Y133434D02*
X13979D01*
Y123985D02*
Y133434D01*
X8861Y123985D02*
X13979D01*
X24609Y407713D02*
Y422813D01*
X36809Y407713D02*
Y422813D01*
X19609Y421313D02*
X24609D01*
X36809D02*
X41809D01*
X23609Y421813D02*
X24609Y421313D01*
X23609Y420813D02*
X24609Y421313D01*
X23609Y420813D02*
Y421813D01*
X36809Y421313D02*
X37809Y421813D01*
X36809Y421313D02*
X37809Y420813D01*
Y421813D01*
X20809Y407713D02*
Y430313D01*
X40609Y407713D02*
Y430313D01*
X20809Y428813D02*
X40609D01*
X20809D02*
X21809Y429313D01*
X20809Y428813D02*
X21809Y428313D01*
Y429313D01*
X39609D02*
X40609Y428813D01*
X39609Y428313D02*
X40609Y428813D01*
X39609Y428313D02*
Y429313D01*
X30709Y413813D02*
X48309D01*
X30709Y401613D02*
X48309D01*
X46809Y413813D02*
Y418813D01*
Y396613D02*
Y401613D01*
X46309Y414813D02*
X46809Y413813D01*
X47309Y414813D01*
X46309D02*
X47309D01*
X46309Y400613D02*
X46809Y401613D01*
X47309Y400613D01*
X46309D02*
X47309D01*
X10609Y411551D02*
X22109D01*
X10609Y408992D02*
X22109D01*
X12109Y411551D02*
Y416551D01*
Y403992D02*
Y408992D01*
X11609Y412551D02*
X12109Y411551D01*
X12609Y412551D01*
X11609D02*
X12609D01*
X11609Y407992D02*
X12109Y408992D01*
X12609Y407992D01*
X11609D02*
X12609D01*
X20809Y392613D02*
Y407713D01*
X23409Y392613D02*
Y407713D01*
X15809Y394113D02*
X20809D01*
X23409D02*
X28409D01*
X19809Y394613D02*
X20809Y394113D01*
X19809Y393613D02*
X20809Y394113D01*
X19809Y393613D02*
Y394613D01*
X23409Y394113D02*
X24409Y394613D01*
X23409Y394113D02*
X24409Y393613D01*
Y394613D01*
X21334Y425395D02*
X21750Y425812D01*
X22583D01*
X23000Y425395D01*
Y423729D01*
X22583Y423313D01*
X21750D01*
X21334Y423729D01*
Y425395D01*
X23833Y423313D02*
Y423729D01*
X24249D01*
Y423313D01*
X23833D01*
X25916D02*
X26749D01*
X26332D01*
Y425812D01*
X25916Y425395D01*
X29664Y423313D02*
X27998D01*
X29664Y424979D01*
Y425395D01*
X29248Y425812D01*
X28415D01*
X27998Y425395D01*
X32164Y423313D02*
X30497D01*
X32164Y424979D01*
Y425395D01*
X31747Y425812D01*
X30914D01*
X30497Y425395D01*
X32997Y423313D02*
X33830D01*
X33413D01*
Y424979D01*
X32997D01*
X35079Y423313D02*
Y424979D01*
X36329D01*
X36745Y424562D01*
Y423313D01*
X37578D02*
X39244Y424979D01*
X40078Y425395D02*
X40494Y425812D01*
X41327D01*
X41744Y425395D01*
Y424979D01*
X41327Y424562D01*
X40911D01*
X41327D01*
X41744Y424146D01*
Y423729D01*
X41327Y423313D01*
X40494D01*
X40078Y423729D01*
X42577Y423313D02*
Y423729D01*
X42993D01*
Y423313D01*
X42577D01*
X44659Y425395D02*
X45076Y425812D01*
X45909D01*
X46326Y425395D01*
Y423729D01*
X45909Y423313D01*
X45076D01*
X44659Y423729D01*
Y425395D01*
X47159Y423729D02*
X47575Y423313D01*
X48408D01*
X48825Y423729D01*
Y425395D01*
X48408Y425812D01*
X47575D01*
X47159Y425395D01*
Y424979D01*
X47575Y424562D01*
X48825D01*
X49658Y423729D02*
X50074Y423313D01*
X50907D01*
X51324Y423729D01*
Y425395D01*
X50907Y425812D01*
X50074D01*
X49658Y425395D01*
Y424979D01*
X50074Y424562D01*
X51324D01*
X52157Y423313D02*
Y424979D01*
X52574D01*
X52990Y424562D01*
Y423313D01*
Y424562D01*
X53407Y424979D01*
X53823Y424562D01*
Y423313D01*
X54656D02*
Y424979D01*
X55073D01*
X55489Y424562D01*
Y423313D01*
Y424562D01*
X55906Y424979D01*
X56322Y424562D01*
Y423313D01*
X21334Y432895D02*
X21750Y433312D01*
X22583D01*
X23000Y432895D01*
Y431229D01*
X22583Y430813D01*
X21750D01*
X21334Y431229D01*
Y432895D01*
X23833Y430813D02*
Y431229D01*
X24249D01*
Y430813D01*
X23833D01*
X25916D02*
X26749D01*
X26332D01*
Y433312D01*
X25916Y432895D01*
X27998Y431229D02*
X28415Y430813D01*
X29248D01*
X29664Y431229D01*
Y432895D01*
X29248Y433312D01*
X28415D01*
X27998Y432895D01*
Y432479D01*
X28415Y432062D01*
X29664D01*
X30497Y432895D02*
X30914Y433312D01*
X31747D01*
X32164Y432895D01*
Y432479D01*
X31747Y432062D01*
X32164Y431646D01*
Y431229D01*
X31747Y430813D01*
X30914D01*
X30497Y431229D01*
Y431646D01*
X30914Y432062D01*
X30497Y432479D01*
Y432895D01*
X30914Y432062D02*
X31747D01*
X32997Y430813D02*
X33830D01*
X33413D01*
Y432479D01*
X32997D01*
X35079Y430813D02*
Y432479D01*
X36329D01*
X36745Y432062D01*
Y430813D01*
X37578D02*
X39244Y432479D01*
X41744Y433312D02*
X40078D01*
Y432062D01*
X40911Y432479D01*
X41327D01*
X41744Y432062D01*
Y431229D01*
X41327Y430813D01*
X40494D01*
X40078Y431229D01*
X42577Y430813D02*
Y431229D01*
X42993D01*
Y430813D01*
X42577D01*
X44659Y432895D02*
X45076Y433312D01*
X45909D01*
X46326Y432895D01*
Y431229D01*
X45909Y430813D01*
X45076D01*
X44659Y431229D01*
Y432895D01*
X48825Y430813D02*
X47159D01*
X48825Y432479D01*
Y432895D01*
X48408Y433312D01*
X47575D01*
X47159Y432895D01*
X49658Y431229D02*
X50074Y430813D01*
X50907D01*
X51324Y431229D01*
Y432895D01*
X50907Y433312D01*
X50074D01*
X49658Y432895D01*
Y432479D01*
X50074Y432062D01*
X51324D01*
X52157Y430813D02*
Y432479D01*
X52574D01*
X52990Y432062D01*
Y430813D01*
Y432062D01*
X53407Y432479D01*
X53823Y432062D01*
Y430813D01*
X54656D02*
Y432479D01*
X55073D01*
X55489Y432062D01*
Y430813D01*
Y432062D01*
X55906Y432479D01*
X56322Y432062D01*
Y430813D01*
X48809Y408545D02*
X49225Y408962D01*
X50058D01*
X50475Y408545D01*
Y406879D01*
X50058Y406463D01*
X49225D01*
X48809Y406879D01*
Y408545D01*
X51308Y406463D02*
Y406879D01*
X51724D01*
Y406463D01*
X51308D01*
X53391D02*
X54224D01*
X53807D01*
Y408962D01*
X53391Y408545D01*
X57139Y406463D02*
X55473D01*
X57139Y408129D01*
Y408545D01*
X56723Y408962D01*
X55890D01*
X55473Y408545D01*
X59639Y406463D02*
X57972D01*
X59639Y408129D01*
Y408545D01*
X59222Y408962D01*
X58389D01*
X57972Y408545D01*
X60472Y406463D02*
X61305D01*
X60888D01*
Y408129D01*
X60472D01*
X62554Y406463D02*
Y408129D01*
X63804D01*
X64220Y407712D01*
Y406463D01*
X65053D02*
X66720Y408129D01*
X67553Y408545D02*
X67969Y408962D01*
X68802D01*
X69219Y408545D01*
Y408129D01*
X68802Y407712D01*
X68386D01*
X68802D01*
X69219Y407296D01*
Y406879D01*
X68802Y406463D01*
X67969D01*
X67553Y406879D01*
X70052Y406463D02*
Y406879D01*
X70468D01*
Y406463D01*
X70052D01*
X72134Y408545D02*
X72551Y408962D01*
X73384D01*
X73801Y408545D01*
Y406879D01*
X73384Y406463D01*
X72551D01*
X72134Y406879D01*
Y408545D01*
X74634Y406879D02*
X75050Y406463D01*
X75883D01*
X76300Y406879D01*
Y408545D01*
X75883Y408962D01*
X75050D01*
X74634Y408545D01*
Y408129D01*
X75050Y407712D01*
X76300D01*
X77133Y406879D02*
X77549Y406463D01*
X78382D01*
X78799Y406879D01*
Y408545D01*
X78382Y408962D01*
X77549D01*
X77133Y408545D01*
Y408129D01*
X77549Y407712D01*
X78799D01*
X79632Y406463D02*
Y408129D01*
X80049D01*
X80465Y407712D01*
Y406463D01*
Y407712D01*
X80882Y408129D01*
X81298Y407712D01*
Y406463D01*
X82131D02*
Y408129D01*
X82548D01*
X82964Y407712D01*
Y406463D01*
Y407712D01*
X83381Y408129D01*
X83797Y407712D01*
Y406463D01*
X-7391Y411104D02*
X-6975Y411521D01*
X-6142D01*
X-5725Y411104D01*
Y409438D01*
X-6142Y409022D01*
X-6975D01*
X-7391Y409438D01*
Y411104D01*
X-4892Y409022D02*
Y409438D01*
X-4476D01*
Y409022D01*
X-4892D01*
X-2809Y411104D02*
X-2393Y411521D01*
X-1560D01*
X-1143Y411104D01*
Y409438D01*
X-1560Y409022D01*
X-2393D01*
X-2809Y409438D01*
Y411104D01*
X1356Y409022D02*
X-310D01*
X1356Y410688D01*
Y411104D01*
X939Y411521D01*
X106D01*
X-310Y411104D01*
X3855Y411521D02*
X3022Y411104D01*
X2189Y410271D01*
Y409438D01*
X2605Y409022D01*
X3438D01*
X3855Y409438D01*
Y409855D01*
X3438Y410271D01*
X2189D01*
X4688Y409022D02*
X5521D01*
X5105D01*
Y410688D01*
X4688D01*
X6771Y409022D02*
Y410688D01*
X8020D01*
X8437Y410271D01*
Y409022D01*
X9270D02*
X10936Y410688D01*
X11769Y411104D02*
X12186Y411521D01*
X13019D01*
X13435Y411104D01*
Y409438D01*
X13019Y409022D01*
X12186D01*
X11769Y409438D01*
Y411104D01*
X14268Y409022D02*
Y409438D01*
X14685D01*
Y409022D01*
X14268D01*
X18017Y411521D02*
X17184Y411104D01*
X16351Y410271D01*
Y409438D01*
X16768Y409022D01*
X17601D01*
X18017Y409438D01*
Y409855D01*
X17601Y410271D01*
X16351D01*
X20516Y411521D02*
X18850D01*
Y410271D01*
X19683Y410688D01*
X20100D01*
X20516Y410271D01*
Y409438D01*
X20100Y409022D01*
X19267D01*
X18850Y409438D01*
X21349Y409022D02*
Y410688D01*
X21766D01*
X22182Y410271D01*
Y409022D01*
Y410271D01*
X22599Y410688D01*
X23016Y410271D01*
Y409022D01*
X23848D02*
Y410688D01*
X24265D01*
X24682Y410271D01*
Y409022D01*
Y410271D01*
X25098Y410688D01*
X25515Y410271D01*
Y409022D01*
X13359Y391695D02*
X13775Y392112D01*
X14608D01*
X15025Y391695D01*
Y390029D01*
X14608Y389613D01*
X13775D01*
X13359Y390029D01*
Y391695D01*
X15858Y389613D02*
Y390029D01*
X16274D01*
Y389613D01*
X15858D01*
X17941Y391695D02*
X18357Y392112D01*
X19190D01*
X19607Y391695D01*
Y390029D01*
X19190Y389613D01*
X18357D01*
X17941Y390029D01*
Y391695D01*
X22106Y389613D02*
X20440D01*
X22106Y391279D01*
Y391695D01*
X21689Y392112D01*
X20856D01*
X20440Y391695D01*
X24605Y392112D02*
X23772Y391695D01*
X22939Y390862D01*
Y390029D01*
X23355Y389613D01*
X24189D01*
X24605Y390029D01*
Y390446D01*
X24189Y390862D01*
X22939D01*
X25438Y389613D02*
X26271D01*
X25855D01*
Y391279D01*
X25438D01*
X27521Y389613D02*
Y391279D01*
X28770D01*
X29187Y390862D01*
Y389613D01*
X30020D02*
X31686Y391279D01*
X32519Y391695D02*
X32936Y392112D01*
X33769D01*
X34185Y391695D01*
Y390029D01*
X33769Y389613D01*
X32936D01*
X32519Y390029D01*
Y391695D01*
X35018Y389613D02*
Y390029D01*
X35435D01*
Y389613D01*
X35018D01*
X38767Y392112D02*
X37934Y391695D01*
X37101Y390862D01*
Y390029D01*
X37517Y389613D01*
X38351D01*
X38767Y390029D01*
Y390446D01*
X38351Y390862D01*
X37101D01*
X41266Y392112D02*
X40433Y391695D01*
X39600Y390862D01*
Y390029D01*
X40017Y389613D01*
X40850D01*
X41266Y390029D01*
Y390446D01*
X40850Y390862D01*
X39600D01*
X42099Y389613D02*
Y391279D01*
X42516D01*
X42932Y390862D01*
Y389613D01*
Y390862D01*
X43349Y391279D01*
X43766Y390862D01*
Y389613D01*
X44598D02*
Y391279D01*
X45015D01*
X45432Y390862D01*
Y389613D01*
Y390862D01*
X45848Y391279D01*
X46265Y390862D01*
Y389613D01*
D22*
X-4291Y386611D02*
Y381613D01*
X-1792D01*
X-959Y382446D01*
Y385778D01*
X-1792Y386611D01*
X-4291D01*
X3206Y381613D02*
X1540D01*
X707Y382446D01*
Y384112D01*
X1540Y384945D01*
X3206D01*
X4039Y384112D01*
Y383279D01*
X707D01*
X6538Y381613D02*
Y385778D01*
Y384112D01*
X5705D01*
X7372D01*
X6538D01*
Y385778D01*
X7372Y386611D01*
X10704Y384945D02*
X12370D01*
X13203Y384112D01*
Y381613D01*
X10704D01*
X9871Y382446D01*
X10704Y383279D01*
X13203D01*
X14869Y384945D02*
Y382446D01*
X15702Y381613D01*
X18201D01*
Y384945D01*
X19868Y381613D02*
X21534D01*
X20701D01*
Y386611D01*
X19868D01*
X24866Y385778D02*
Y384945D01*
X24033D01*
X25699D01*
X24866D01*
Y382446D01*
X25699Y381613D01*
X33196D02*
Y386611D01*
X35696D01*
X36529Y385778D01*
Y384112D01*
X35696Y383279D01*
X33196D01*
X39028Y384945D02*
X40694D01*
X41527Y384112D01*
Y381613D01*
X39028D01*
X38195Y382446D01*
X39028Y383279D01*
X41527D01*
X46525Y386611D02*
Y381613D01*
X44026D01*
X43193Y382446D01*
Y384112D01*
X44026Y384945D01*
X46525D01*
X48192Y381613D02*
X50691D01*
X51524Y382446D01*
X50691Y383279D01*
X49025D01*
X48192Y384112D01*
X49025Y384945D01*
X51524D01*
X54023Y385778D02*
Y384945D01*
X53190D01*
X54856D01*
X54023D01*
Y382446D01*
X54856Y381613D01*
X57355Y384945D02*
Y382446D01*
X58188Y381613D01*
X60688D01*
Y380780D01*
X59855Y379946D01*
X59022D01*
X60688Y381613D02*
Y384945D01*
X62354Y381613D02*
X64020D01*
X63187D01*
Y386611D01*
X62354D01*
X69018Y381613D02*
X67352D01*
X66519Y382446D01*
Y384112D01*
X67352Y384945D01*
X69018D01*
X69851Y384112D01*
Y383279D01*
X66519D01*
X71517Y384945D02*
X72351D01*
Y384112D01*
X71517D01*
Y384945D01*
Y382446D02*
X72351D01*
Y381613D01*
X71517D01*
Y382446D01*
X80681Y381613D02*
Y386611D01*
X83180D01*
X84013Y385778D01*
Y384112D01*
X83180Y383279D01*
X80681D01*
X82347D02*
X84013Y381613D01*
X85680Y386611D02*
X89012Y381613D01*
Y386611D02*
X85680Y381613D01*
X94010Y386611D02*
X90678D01*
Y384112D01*
X92344Y384945D01*
X93177D01*
X94010Y384112D01*
Y382446D01*
X93177Y381613D01*
X91511D01*
X90678Y382446D01*
X98176Y381613D02*
Y386611D01*
X95676Y384112D01*
X99009D01*
X100675Y386611D02*
Y385778D01*
X102341Y384112D01*
X104007Y385778D01*
Y386611D01*
X102341Y384112D02*
Y381613D01*
X105673D02*
X107339D01*
X106506D01*
Y386611D01*
X105673Y385778D01*
X113171Y386611D02*
X111504Y385778D01*
X109838Y384112D01*
Y382446D01*
X110671Y381613D01*
X112338D01*
X113171Y382446D01*
Y383279D01*
X112338Y384112D01*
X109838D01*
X114837Y386611D02*
Y381613D01*
X117336D01*
X118169Y382446D01*
Y385778D01*
X117336Y386611D01*
X114837D01*
X119835Y385778D02*
X120668Y386611D01*
X122334D01*
X123167Y385778D01*
Y382446D01*
X122334Y381613D01*
X120668D01*
X119835Y382446D01*
Y385778D01*
X124834Y386611D02*
X128166D01*
X126500D01*
Y381613D01*
X-4291Y375613D02*
Y380611D01*
X-1792D01*
X-959Y379778D01*
Y378112D01*
X-1792Y377279D01*
X-4291D01*
X707Y375613D02*
X2373D01*
X1540D01*
Y378945D01*
X707D01*
X4872Y375613D02*
Y378945D01*
X7372D01*
X8205Y378112D01*
Y375613D01*
X17368Y380611D02*
X15702D01*
X14869Y379778D01*
Y376446D01*
X15702Y375613D01*
X17368D01*
X18201Y376446D01*
Y379778D01*
X17368Y380611D01*
X19868Y375613D02*
Y378945D01*
X22367D01*
X23200Y378112D01*
Y375613D01*
X27365D02*
X25699D01*
X24866Y376446D01*
Y378112D01*
X25699Y378945D01*
X27365D01*
X28198Y378112D01*
Y377279D01*
X24866D01*
X34863Y375613D02*
Y380611D01*
X37362D01*
X38195Y379778D01*
Y378112D01*
X37362Y377279D01*
X34863D01*
X40694Y378945D02*
X42360D01*
X43193Y378112D01*
Y375613D01*
X40694D01*
X39861Y376446D01*
X40694Y377279D01*
X43193D01*
X48192Y380611D02*
Y375613D01*
X45693D01*
X44859Y376446D01*
Y378112D01*
X45693Y378945D01*
X48192D01*
X49858Y375613D02*
X52357D01*
X53190Y376446D01*
X52357Y377279D01*
X50691D01*
X49858Y378112D01*
X50691Y378945D01*
X53190D01*
X55689Y379778D02*
Y378945D01*
X54856D01*
X56522D01*
X55689D01*
Y376446D01*
X56522Y375613D01*
X59022Y378945D02*
Y376446D01*
X59855Y375613D01*
X62354D01*
Y374780D01*
X61521Y373946D01*
X60688D01*
X62354Y375613D02*
Y378945D01*
X64020Y375613D02*
X65686D01*
X64853D01*
Y380611D01*
X64020D01*
X70684Y375613D02*
X69018D01*
X68185Y376446D01*
Y378112D01*
X69018Y378945D01*
X70684D01*
X71517Y378112D01*
Y377279D01*
X68185D01*
X73184Y378945D02*
X74017D01*
Y378112D01*
X73184D01*
Y378945D01*
Y376446D02*
X74017D01*
Y375613D01*
X73184D01*
Y376446D01*
X82347Y375613D02*
Y380611D01*
X84847D01*
X85680Y379778D01*
Y378112D01*
X84847Y377279D01*
X82347D01*
X84013D02*
X85680Y375613D01*
X87346Y380611D02*
X90678Y375613D01*
Y380611D02*
X87346Y375613D01*
X95676Y380611D02*
X92344D01*
Y378112D01*
X94010Y378945D01*
X94843D01*
X95676Y378112D01*
Y376446D01*
X94843Y375613D01*
X93177D01*
X92344Y376446D01*
X99842Y375613D02*
Y380611D01*
X97342Y378112D01*
X100675D01*
X102341Y380611D02*
Y379778D01*
X104007Y378112D01*
X105673Y379778D01*
Y380611D01*
X104007Y378112D02*
Y375613D01*
X107339D02*
X109005D01*
X108172D01*
Y380611D01*
X107339Y379778D01*
X114837Y380611D02*
X113171Y379778D01*
X111504Y378112D01*
Y376446D01*
X112338Y375613D01*
X114004D01*
X114837Y376446D01*
Y377279D01*
X114004Y378112D01*
X111504D01*
X116503Y380611D02*
Y375613D01*
X119002D01*
X119835Y376446D01*
Y379778D01*
X119002Y380611D01*
X116503D01*
X121501Y379778D02*
X122334Y380611D01*
X124000D01*
X124834Y379778D01*
Y376446D01*
X124000Y375613D01*
X122334D01*
X121501Y376446D01*
Y379778D01*
X126500Y380611D02*
X129832D01*
X128166D01*
Y375613D01*
X-3041Y357613D02*
Y360945D01*
X-1375Y362611D01*
X291Y360945D01*
Y357613D01*
Y360112D01*
X-3041D01*
X1957Y357613D02*
X3623D01*
X2790D01*
Y362611D01*
X1957D01*
X6955Y361778D02*
Y360945D01*
X6122D01*
X7789D01*
X6955D01*
Y358446D01*
X7789Y357613D01*
X15286D02*
X16952D01*
X16119D01*
Y362611D01*
X15286Y361778D01*
X24450Y357613D02*
Y362611D01*
X26949D01*
X27782Y361778D01*
Y360112D01*
X26949Y359279D01*
X24450D01*
X30281Y360945D02*
X31947D01*
X32780Y360112D01*
Y357613D01*
X30281D01*
X29448Y358446D01*
X30281Y359279D01*
X32780D01*
X37779Y362611D02*
Y357613D01*
X35280D01*
X34446Y358446D01*
Y360112D01*
X35280Y360945D01*
X37779D01*
X39445Y357613D02*
X41944D01*
X42777Y358446D01*
X41944Y359279D01*
X40278D01*
X39445Y360112D01*
X40278Y360945D01*
X42777D01*
X45276Y361778D02*
Y360945D01*
X44443D01*
X46109D01*
X45276D01*
Y358446D01*
X46109Y357613D01*
X48609Y360945D02*
Y358446D01*
X49442Y357613D01*
X51941D01*
Y356780D01*
X51108Y355946D01*
X50275D01*
X51941Y357613D02*
Y360945D01*
X53607Y357613D02*
X55273D01*
X54440D01*
Y362611D01*
X53607D01*
X60272Y357613D02*
X58605D01*
X57772Y358446D01*
Y360112D01*
X58605Y360945D01*
X60272D01*
X61105Y360112D01*
Y359279D01*
X57772D01*
X62771Y360945D02*
X63604D01*
Y360112D01*
X62771D01*
Y360945D01*
Y358446D02*
X63604D01*
Y357613D01*
X62771D01*
Y358446D01*
X74434Y362611D02*
X72767D01*
X71934Y361778D01*
Y358446D01*
X72767Y357613D01*
X74434D01*
X75267Y358446D01*
Y361778D01*
X74434Y362611D01*
X76933D02*
X80265Y357613D01*
Y362611D02*
X76933Y357613D01*
X85263Y362611D02*
X83597Y361778D01*
X81931Y360112D01*
Y358446D01*
X82764Y357613D01*
X84430D01*
X85263Y358446D01*
Y359279D01*
X84430Y360112D01*
X81931D01*
X86930Y361778D02*
X87763Y362611D01*
X89429D01*
X90262Y361778D01*
Y358446D01*
X89429Y357613D01*
X87763D01*
X86930Y358446D01*
Y361778D01*
X91928Y362611D02*
Y361778D01*
X93594Y360112D01*
X95260Y361778D01*
Y362611D01*
X93594Y360112D02*
Y357613D01*
X96926Y358446D02*
X97759Y357613D01*
X99426D01*
X100259Y358446D01*
Y361778D01*
X99426Y362611D01*
X97759D01*
X96926Y361778D01*
Y360945D01*
X97759Y360112D01*
X100259D01*
X101925Y361778D02*
X102758Y362611D01*
X104424D01*
X105257Y361778D01*
Y358446D01*
X104424Y357613D01*
X102758D01*
X101925Y358446D01*
Y361778D01*
X106923Y362611D02*
Y357613D01*
X109422D01*
X110255Y358446D01*
Y361778D01*
X109422Y362611D01*
X106923D01*
X111921Y361778D02*
X112754Y362611D01*
X114421D01*
X115254Y361778D01*
Y360945D01*
X114421Y360112D01*
X113588D01*
X114421D01*
X115254Y359279D01*
Y358446D01*
X114421Y357613D01*
X112754D01*
X111921Y358446D01*
X116920Y361778D02*
X117753Y362611D01*
X119419D01*
X120252Y361778D01*
Y358446D01*
X119419Y357613D01*
X117753D01*
X116920Y358446D01*
Y361778D01*
X121918Y357613D02*
Y362611D01*
X124417D01*
X125250Y361778D01*
Y360112D01*
X124417Y359279D01*
X121918D01*
X-3041Y351613D02*
Y354945D01*
X-1375Y356611D01*
X291Y354945D01*
Y351613D01*
Y354112D01*
X-3041D01*
X1957Y351613D02*
X3623D01*
X2790D01*
Y356611D01*
X1957D01*
X6955Y355778D02*
Y354945D01*
X6122D01*
X7789D01*
X6955D01*
Y352446D01*
X7789Y351613D01*
X18618D02*
X15286D01*
X18618Y354945D01*
Y355778D01*
X17785Y356611D01*
X16119D01*
X15286Y355778D01*
X25283Y351613D02*
Y356611D01*
X27782D01*
X28615Y355778D01*
Y354112D01*
X27782Y353279D01*
X25283D01*
X31114Y354945D02*
X32780D01*
X33613Y354112D01*
Y351613D01*
X31114D01*
X30281Y352446D01*
X31114Y353279D01*
X33613D01*
X38612Y356611D02*
Y351613D01*
X36113D01*
X35280Y352446D01*
Y354112D01*
X36113Y354945D01*
X38612D01*
X40278Y351613D02*
X42777D01*
X43610Y352446D01*
X42777Y353279D01*
X41111D01*
X40278Y354112D01*
X41111Y354945D01*
X43610D01*
X46109Y355778D02*
Y354945D01*
X45276D01*
X46942D01*
X46109D01*
Y352446D01*
X46942Y351613D01*
X49442Y354945D02*
Y352446D01*
X50275Y351613D01*
X52774D01*
Y350780D01*
X51941Y349946D01*
X51108D01*
X52774Y351613D02*
Y354945D01*
X54440Y351613D02*
X56106D01*
X55273D01*
Y356611D01*
X54440D01*
X61105Y351613D02*
X59438D01*
X58605Y352446D01*
Y354112D01*
X59438Y354945D01*
X61105D01*
X61938Y354112D01*
Y353279D01*
X58605D01*
X63604Y354945D02*
X64437D01*
Y354112D01*
X63604D01*
Y354945D01*
Y352446D02*
X64437D01*
Y351613D01*
X63604D01*
Y352446D01*
X75267Y356611D02*
X73601D01*
X72767Y355778D01*
Y352446D01*
X73601Y351613D01*
X75267D01*
X76100Y352446D01*
Y355778D01*
X75267Y356611D01*
X77766D02*
X81098Y351613D01*
Y356611D02*
X77766Y351613D01*
X82764Y352446D02*
X83597Y351613D01*
X85263D01*
X86097Y352446D01*
Y355778D01*
X85263Y356611D01*
X83597D01*
X82764Y355778D01*
Y354945D01*
X83597Y354112D01*
X86097D01*
X87763Y355778D02*
X88596Y356611D01*
X90262D01*
X91095Y355778D01*
Y352446D01*
X90262Y351613D01*
X88596D01*
X87763Y352446D01*
Y355778D01*
X92761Y356611D02*
Y355778D01*
X94427Y354112D01*
X96093Y355778D01*
Y356611D01*
X94427Y354112D02*
Y351613D01*
X101092Y356611D02*
X99426Y355778D01*
X97759Y354112D01*
Y352446D01*
X98592Y351613D01*
X100259D01*
X101092Y352446D01*
Y353279D01*
X100259Y354112D01*
X97759D01*
X102758Y355778D02*
X103591Y356611D01*
X105257D01*
X106090Y355778D01*
Y352446D01*
X105257Y351613D01*
X103591D01*
X102758Y352446D01*
Y355778D01*
X107756Y356611D02*
Y351613D01*
X110255D01*
X111088Y352446D01*
Y355778D01*
X110255Y356611D01*
X107756D01*
X112754Y355778D02*
X113587Y356611D01*
X115254D01*
X116087Y355778D01*
Y354945D01*
X115254Y354112D01*
X114421D01*
X115254D01*
X116087Y353279D01*
Y352446D01*
X115254Y351613D01*
X113587D01*
X112754Y352446D01*
X117753Y355778D02*
X118586Y356611D01*
X120252D01*
X121085Y355778D01*
Y352446D01*
X120252Y351613D01*
X118586D01*
X117753Y352446D01*
Y355778D01*
X122751Y351613D02*
Y356611D01*
X125250D01*
X126084Y355778D01*
Y354112D01*
X125250Y353279D01*
X122751D01*
D158*
X35729Y121359D02*
X36122Y120965D01*
X36910D01*
X37303Y121359D01*
Y122933D01*
X36910Y123327D01*
X36122D01*
X35729Y122933D01*
X34942Y123327D02*
X34155D01*
X34548D01*
Y120965D01*
X34942Y121359D01*
X31400Y120965D02*
X32974D01*
Y122146D01*
X32187Y121753D01*
X31793D01*
X31400Y122146D01*
Y122933D01*
X31793Y123327D01*
X32580D01*
X32974Y122933D01*
X35729Y136713D02*
X37303D01*
X35729Y135138D01*
Y134745D01*
X36122Y134351D01*
X36910D01*
X37303Y134745D01*
X33367Y136713D02*
X34942D01*
X33367Y135138D01*
Y134745D01*
X33761Y134351D01*
X34548D01*
X34942Y134745D01*
X32580D02*
X32187Y134351D01*
X31400D01*
X31006Y134745D01*
Y136319D01*
X31400Y136713D01*
X32187D01*
X32580Y136319D01*
Y134745D01*
X30219Y135138D02*
Y136319D01*
X29825Y136713D01*
X28644D01*
Y135138D01*
X26283Y134351D02*
X27857D01*
Y135532D01*
X27070D01*
X27857D01*
Y136713D01*
M02*
