G04*
G04 #@! TF.GenerationSoftware,Altium Limited,Altium Designer,20.0.11 (256)*
G04*
G04 Layer_Color=8388736*
%FSLAX25Y25*%
%MOIN*%
G70*
G01*
G75*
%ADD74R,0.05400X0.01600*%
%ADD79R,0.10446X0.08477*%
%ADD80R,0.04540X0.01981*%
%ADD81R,0.13398X0.09855*%
%ADD82R,0.08674X0.03162*%
%ADD83R,0.04000X0.04000*%
%ADD84R,0.02572X0.02572*%
%ADD85R,0.14580X0.08674*%
%ADD86R,0.06706X0.06902*%
%ADD87R,0.05524X0.06312*%
%ADD88R,0.04343X0.04737*%
%ADD89R,0.03398X0.03241*%
%ADD90R,0.02572X0.02572*%
%ADD91R,0.11824X0.11824*%
%ADD92R,0.01981X0.03950*%
%ADD93R,0.03950X0.01981*%
%ADD94R,0.02926X0.03084*%
%ADD95R,0.02965X0.02965*%
%ADD96R,0.03241X0.03398*%
%ADD97R,0.03359X0.02965*%
%ADD98R,0.02965X0.02965*%
%ADD99R,0.02769X0.03280*%
%ADD100R,0.02769X0.02414*%
%ADD101R,0.10446X0.08280*%
%ADD102R,0.03084X0.02926*%
%ADD103R,0.03359X0.03359*%
%ADD104R,0.03359X0.03359*%
%ADD105R,0.42139X0.29147*%
%ADD106R,0.04934X0.12020*%
%ADD107R,0.05918X0.06509*%
%ADD108R,0.05524X0.01981*%
%ADD109R,0.01981X0.05524*%
%ADD110R,0.04000X0.07100*%
%ADD111R,0.07100X0.04000*%
%ADD112R,0.05721X0.09461*%
%ADD113R,0.07690X0.07493*%
%ADD114R,0.06804X0.03359*%
%ADD115R,0.11036X0.10249*%
%ADD116R,0.06509X0.05328*%
%ADD117R,0.04000X0.04000*%
%ADD118R,0.14580X0.04737*%
%ADD119R,0.14186X0.06706*%
%ADD120R,0.05918X0.03556*%
%ADD121R,0.06115X0.02375*%
%ADD122R,0.08674X0.09068*%
%ADD123R,0.08280X0.07099*%
%ADD124R,0.08280X0.05524*%
%ADD125R,0.07178X0.03084*%
%ADD126O,0.10642X0.03556*%
%ADD127R,0.09894X0.10485*%
G04:AMPARAMS|DCode=128|XSize=25.72mil|YSize=70.99mil|CornerRadius=5.95mil|HoleSize=0mil|Usage=FLASHONLY|Rotation=90.000|XOffset=0mil|YOffset=0mil|HoleType=Round|Shape=RoundedRectangle|*
%AMROUNDEDRECTD128*
21,1,0.02572,0.05909,0,0,90.0*
21,1,0.01382,0.07099,0,0,90.0*
1,1,0.01190,0.02955,0.00691*
1,1,0.01190,0.02955,-0.00691*
1,1,0.01190,-0.02955,-0.00691*
1,1,0.01190,-0.02955,0.00691*
%
%ADD128ROUNDEDRECTD128*%
%ADD129O,0.07887X0.02572*%
%ADD130R,0.12611X0.19698*%
%ADD131R,0.05328X0.06509*%
%ADD132R,0.04737X0.04343*%
%ADD133R,0.06706X0.06706*%
%ADD134C,0.06706*%
%ADD135C,0.03950*%
%ADD136C,0.05918*%
%ADD137R,0.06706X0.06706*%
%ADD138C,0.10564*%
%ADD139C,0.05524*%
%ADD140R,0.07303X0.07303*%
%ADD141C,0.07303*%
%ADD142C,0.06800*%
%ADD143C,0.05800*%
D74*
X22109Y411551D02*
D03*
Y408992D02*
D03*
Y406433D02*
D03*
Y403874D02*
D03*
X39309D02*
D03*
Y406433D02*
D03*
Y408992D02*
D03*
Y411551D02*
D03*
D79*
X74803Y20524D02*
D03*
D80*
X67224Y16587D02*
D03*
Y18161D02*
D03*
Y19736D02*
D03*
Y21311D02*
D03*
Y22886D02*
D03*
Y24461D02*
D03*
X82382D02*
D03*
Y22886D02*
D03*
Y21311D02*
D03*
Y19736D02*
D03*
Y18161D02*
D03*
Y16587D02*
D03*
D81*
X236280Y265177D02*
D03*
Y149823D02*
D03*
D82*
X206358Y253957D02*
D03*
Y250807D02*
D03*
Y247657D02*
D03*
Y244508D02*
D03*
Y241358D02*
D03*
Y238209D02*
D03*
Y235059D02*
D03*
Y231909D02*
D03*
Y228760D02*
D03*
Y225610D02*
D03*
Y222461D02*
D03*
Y219311D02*
D03*
Y216161D02*
D03*
Y213012D02*
D03*
Y209862D02*
D03*
Y206713D02*
D03*
Y203563D02*
D03*
Y200413D02*
D03*
X238642Y252382D02*
D03*
Y249232D02*
D03*
Y246083D02*
D03*
Y242933D02*
D03*
Y239784D02*
D03*
Y236634D02*
D03*
Y233484D02*
D03*
Y230335D02*
D03*
Y227185D02*
D03*
Y224035D02*
D03*
Y220886D02*
D03*
Y217736D02*
D03*
Y214587D02*
D03*
Y211437D02*
D03*
Y208287D02*
D03*
Y205138D02*
D03*
Y201988D02*
D03*
Y198839D02*
D03*
X206358Y184665D02*
D03*
Y181516D02*
D03*
Y178366D02*
D03*
Y175216D02*
D03*
Y172067D02*
D03*
Y168917D02*
D03*
Y165768D02*
D03*
Y162618D02*
D03*
X238642Y183091D02*
D03*
Y179941D02*
D03*
Y176791D02*
D03*
Y173642D02*
D03*
Y170492D02*
D03*
Y167342D02*
D03*
Y164193D02*
D03*
Y161043D02*
D03*
D83*
X69142Y390158D02*
D03*
X63189D02*
D03*
X47787D02*
D03*
X53740D02*
D03*
X131646Y37471D02*
D03*
X137598D02*
D03*
X217709Y42803D02*
D03*
X223661D02*
D03*
X217709Y53150D02*
D03*
X223661D02*
D03*
D84*
X142913Y37471D02*
D03*
X146063D02*
D03*
X193063Y56089D02*
D03*
X196213D02*
D03*
X193106Y51941D02*
D03*
X196256D02*
D03*
X209402Y42803D02*
D03*
X206252D02*
D03*
X41339Y57480D02*
D03*
X38189D02*
D03*
X77165Y390158D02*
D03*
X74016D02*
D03*
X39309D02*
D03*
X42458D02*
D03*
X124362Y80236D02*
D03*
X121213D02*
D03*
X171671Y70319D02*
D03*
X168522D02*
D03*
X193063Y60236D02*
D03*
X196213D02*
D03*
D85*
X23622Y110236D02*
D03*
Y74803D02*
D03*
D86*
X170097Y9886D02*
D03*
X177183D02*
D03*
X215465D02*
D03*
X208378D02*
D03*
D87*
X215465Y23327D02*
D03*
X208772D02*
D03*
X235236Y62017D02*
D03*
X241929D02*
D03*
D88*
X215465Y16732D02*
D03*
X209165D02*
D03*
X174803Y416732D02*
D03*
X168504D02*
D03*
X188583Y387402D02*
D03*
X182283D02*
D03*
X198425Y303150D02*
D03*
X204724D02*
D03*
X198425Y309055D02*
D03*
X204724D02*
D03*
X105118Y82284D02*
D03*
X111417D02*
D03*
X173246Y56067D02*
D03*
X166947D02*
D03*
X136811Y385539D02*
D03*
X130512D02*
D03*
X188189Y416732D02*
D03*
X181890D02*
D03*
X198425Y314961D02*
D03*
X204724D02*
D03*
X198425Y297220D02*
D03*
X204724D02*
D03*
X198425Y320984D02*
D03*
X204724D02*
D03*
X198398Y374989D02*
D03*
X204697D02*
D03*
X198398Y369083D02*
D03*
X204697D02*
D03*
D89*
X185504Y18941D02*
D03*
X188969D02*
D03*
D90*
X213339Y42803D02*
D03*
Y39654D02*
D03*
X51378Y20079D02*
D03*
Y16929D02*
D03*
X135504Y345442D02*
D03*
Y348592D02*
D03*
X129381Y345203D02*
D03*
Y348352D02*
D03*
D91*
X189716Y34929D02*
D03*
D92*
X194638Y27055D02*
D03*
X192669D02*
D03*
X190701D02*
D03*
X188732D02*
D03*
X186764D02*
D03*
X184795D02*
D03*
Y42803D02*
D03*
X186764D02*
D03*
X188732D02*
D03*
X190701D02*
D03*
X192669D02*
D03*
X194638D02*
D03*
D93*
X181843Y30008D02*
D03*
Y31976D02*
D03*
Y33945D02*
D03*
Y35913D02*
D03*
Y37882D02*
D03*
Y39850D02*
D03*
X197591D02*
D03*
Y37882D02*
D03*
Y35913D02*
D03*
Y33945D02*
D03*
Y31976D02*
D03*
Y30008D02*
D03*
D94*
X91929Y17461D02*
D03*
Y20531D02*
D03*
X38189Y32717D02*
D03*
Y35787D02*
D03*
Y40591D02*
D03*
Y43661D02*
D03*
D95*
X91949Y24461D02*
D03*
X95492D02*
D03*
X91949Y13622D02*
D03*
X95492D02*
D03*
X45472Y383465D02*
D03*
X49016D02*
D03*
X204134Y357480D02*
D03*
X200590D02*
D03*
X110742Y60236D02*
D03*
X114285D02*
D03*
X119095D02*
D03*
X122638D02*
D03*
X191929Y103937D02*
D03*
X188386D02*
D03*
X195575Y99213D02*
D03*
X192032D02*
D03*
X85433Y100394D02*
D03*
X81890D02*
D03*
X195575Y95079D02*
D03*
X192032D02*
D03*
X93691Y100394D02*
D03*
X90148D02*
D03*
X27362Y417685D02*
D03*
X30906D02*
D03*
X27362Y421622D02*
D03*
X30906D02*
D03*
X38878Y69291D02*
D03*
X42421D02*
D03*
X196260Y47991D02*
D03*
X192717D02*
D03*
D96*
X59449Y17087D02*
D03*
Y13622D02*
D03*
D97*
X38189Y53543D02*
D03*
Y49606D02*
D03*
X51378Y8661D02*
D03*
Y12598D02*
D03*
D98*
X59449Y28543D02*
D03*
Y25000D02*
D03*
X227559Y420276D02*
D03*
Y416732D02*
D03*
X222835Y420276D02*
D03*
Y416732D02*
D03*
X218110Y420276D02*
D03*
Y416732D02*
D03*
X160236Y94488D02*
D03*
Y98032D02*
D03*
X53351Y117520D02*
D03*
Y113976D02*
D03*
Y125394D02*
D03*
Y121850D02*
D03*
D99*
X46260Y25437D02*
D03*
X48819D02*
D03*
X51378D02*
D03*
X53937D02*
D03*
X46260Y53858D02*
D03*
X48819D02*
D03*
X51378D02*
D03*
X53937D02*
D03*
D100*
Y37169D02*
D03*
X51378D02*
D03*
X48819D02*
D03*
X46260D02*
D03*
X53937Y42126D02*
D03*
X51378D02*
D03*
X48819D02*
D03*
X46260D02*
D03*
D101*
X50098Y32622D02*
D03*
Y46673D02*
D03*
D102*
X74764Y11024D02*
D03*
X71693D02*
D03*
D103*
X163010Y80236D02*
D03*
X166947D02*
D03*
X166929Y85236D02*
D03*
X162992D02*
D03*
X120473Y85138D02*
D03*
X124409D02*
D03*
X51063Y69291D02*
D03*
X47126D02*
D03*
D104*
X162992Y70319D02*
D03*
Y74256D02*
D03*
D105*
X219291Y123622D02*
D03*
D106*
X229291Y83465D02*
D03*
X219291D02*
D03*
X209291D02*
D03*
D107*
X16929Y64961D02*
D03*
X10630D02*
D03*
D108*
X192126Y365354D02*
D03*
Y363386D02*
D03*
Y361417D02*
D03*
Y359449D02*
D03*
Y357480D02*
D03*
Y355512D02*
D03*
Y353543D02*
D03*
Y351575D02*
D03*
Y349606D02*
D03*
Y347638D02*
D03*
Y345669D02*
D03*
Y343701D02*
D03*
Y341732D02*
D03*
Y339764D02*
D03*
Y337795D02*
D03*
Y335827D02*
D03*
X146850D02*
D03*
Y337795D02*
D03*
Y339764D02*
D03*
Y341732D02*
D03*
Y343701D02*
D03*
Y345669D02*
D03*
Y347638D02*
D03*
Y349606D02*
D03*
Y351575D02*
D03*
Y353543D02*
D03*
Y355512D02*
D03*
Y357480D02*
D03*
Y359449D02*
D03*
Y361417D02*
D03*
Y363386D02*
D03*
Y365354D02*
D03*
D109*
X184252Y327953D02*
D03*
X182283D02*
D03*
X180315D02*
D03*
X178347D02*
D03*
X176378D02*
D03*
X174409D02*
D03*
X172441D02*
D03*
X170473D02*
D03*
X168504D02*
D03*
X166535D02*
D03*
X164567D02*
D03*
X162598D02*
D03*
X160630D02*
D03*
X158661D02*
D03*
X156693D02*
D03*
X154724D02*
D03*
Y373228D02*
D03*
X156693D02*
D03*
X158661D02*
D03*
X160630D02*
D03*
X162598D02*
D03*
X164567D02*
D03*
X166535D02*
D03*
X168504D02*
D03*
X170473D02*
D03*
X172441D02*
D03*
X174409D02*
D03*
X176378D02*
D03*
X178347D02*
D03*
X180315D02*
D03*
X182283D02*
D03*
X184252D02*
D03*
D110*
X39602Y325008D02*
D03*
X44327D02*
D03*
X49051D02*
D03*
X53776D02*
D03*
X58500D02*
D03*
X63224D02*
D03*
X67987D02*
D03*
X72687D02*
D03*
X77487D02*
D03*
X82187D02*
D03*
X86887D02*
D03*
X91587D02*
D03*
Y376992D02*
D03*
X86887D02*
D03*
X82187D02*
D03*
X77487D02*
D03*
X72687D02*
D03*
X67987D02*
D03*
X63224D02*
D03*
X58500D02*
D03*
X53776D02*
D03*
X49051D02*
D03*
X44327D02*
D03*
X39602D02*
D03*
D111*
X102687Y363292D02*
D03*
Y338787D02*
D03*
Y334763D02*
D03*
Y343512D02*
D03*
Y348236D02*
D03*
Y353792D02*
D03*
Y358492D02*
D03*
Y367292D02*
D03*
D112*
X191882Y11165D02*
D03*
X200543D02*
D03*
D113*
X103937Y15256D02*
D03*
Y23327D02*
D03*
D114*
X60189Y107461D02*
D03*
Y112461D02*
D03*
Y117461D02*
D03*
Y122461D02*
D03*
X81543D02*
D03*
Y117461D02*
D03*
Y112461D02*
D03*
Y107461D02*
D03*
D115*
X10638Y128713D02*
D03*
X35835D02*
D03*
D116*
X200284Y79921D02*
D03*
Y87008D02*
D03*
X237500Y83465D02*
D03*
Y76378D02*
D03*
X71653Y69291D02*
D03*
Y62205D02*
D03*
D117*
X129381Y340703D02*
D03*
Y334750D02*
D03*
X135504D02*
D03*
Y340703D02*
D03*
D118*
X32083Y25437D02*
D03*
Y17563D02*
D03*
D119*
X9445Y34689D02*
D03*
Y8311D02*
D03*
D120*
X91429Y59252D02*
D03*
Y62992D02*
D03*
Y66732D02*
D03*
X81980D02*
D03*
Y62992D02*
D03*
Y59252D02*
D03*
D121*
X230469Y27209D02*
D03*
Y24650D02*
D03*
Y22091D02*
D03*
Y19532D02*
D03*
Y16972D02*
D03*
D122*
X231748Y34295D02*
D03*
Y9886D02*
D03*
D123*
X241000Y38232D02*
D03*
Y5949D02*
D03*
D124*
Y25437D02*
D03*
Y18744D02*
D03*
D125*
X15354Y311693D02*
D03*
Y306693D02*
D03*
Y301693D02*
D03*
Y296693D02*
D03*
Y291693D02*
D03*
Y286693D02*
D03*
Y281693D02*
D03*
Y276693D02*
D03*
X52284Y311693D02*
D03*
Y306693D02*
D03*
Y301693D02*
D03*
Y296693D02*
D03*
Y291693D02*
D03*
Y286693D02*
D03*
Y281693D02*
D03*
Y276693D02*
D03*
D126*
X152362Y60236D02*
D03*
Y65236D02*
D03*
Y70236D02*
D03*
Y75236D02*
D03*
Y80236D02*
D03*
Y85236D02*
D03*
Y90236D02*
D03*
X133071Y60236D02*
D03*
Y65236D02*
D03*
Y70236D02*
D03*
Y75236D02*
D03*
Y80236D02*
D03*
Y85236D02*
D03*
Y90236D02*
D03*
D127*
X62598Y85433D02*
D03*
D128*
X74606Y76476D02*
D03*
Y79035D02*
D03*
Y81595D02*
D03*
Y84153D02*
D03*
Y86713D02*
D03*
Y89272D02*
D03*
Y91831D02*
D03*
Y94390D02*
D03*
X50591Y76476D02*
D03*
Y79035D02*
D03*
Y81595D02*
D03*
Y84153D02*
D03*
Y86713D02*
D03*
Y89272D02*
D03*
Y91831D02*
D03*
Y94390D02*
D03*
D129*
X167417Y100197D02*
D03*
Y97638D02*
D03*
Y95079D02*
D03*
Y92520D02*
D03*
X183756Y100197D02*
D03*
Y97638D02*
D03*
Y95079D02*
D03*
Y92520D02*
D03*
D130*
X11673Y159862D02*
D03*
X36476D02*
D03*
X11673Y255138D02*
D03*
X36476D02*
D03*
D131*
X86614Y80709D02*
D03*
X93701D02*
D03*
X111417Y75197D02*
D03*
X104331D02*
D03*
X93701Y73228D02*
D03*
X86614D02*
D03*
D132*
X6299Y305512D02*
D03*
Y311811D02*
D03*
D133*
X62205Y416142D02*
D03*
X88189D02*
D03*
X86378Y299890D02*
D03*
D134*
X52205Y416142D02*
D03*
X78189D02*
D03*
X69685Y299764D02*
D03*
X106378Y299890D02*
D03*
X176378D02*
D03*
X166378D02*
D03*
X156378D02*
D03*
X146378D02*
D03*
X136378D02*
D03*
X126378D02*
D03*
X116378D02*
D03*
X96378D02*
D03*
X136811Y393898D02*
D03*
Y419488D02*
D03*
X119095D02*
D03*
D135*
X222500Y256713D02*
D03*
X24075Y255138D02*
D03*
X19425Y268425D02*
D03*
X158661Y381500D02*
D03*
X118595Y368583D02*
D03*
X96378Y384433D02*
D03*
X192904Y109851D02*
D03*
X222500Y249232D02*
D03*
X28724Y144106D02*
D03*
X47894Y120472D02*
D03*
X52284Y271981D02*
D03*
X54012Y151575D02*
D03*
X177165Y320866D02*
D03*
X166378Y351000D02*
D03*
X77165Y384539D02*
D03*
X116177Y322300D02*
D03*
X115525Y343144D02*
D03*
X112205Y337795D02*
D03*
X91587Y353792D02*
D03*
Y347638D02*
D03*
X173333D02*
D03*
X49213Y403543D02*
D03*
X166342Y359449D02*
D03*
X13780Y399310D02*
D03*
X57087Y143839D02*
D03*
X19425Y144106D02*
D03*
X130209Y308268D02*
D03*
X139779Y318015D02*
D03*
X166535D02*
D03*
X146457Y308268D02*
D03*
X160630D02*
D03*
X152362D02*
D03*
X173522Y364605D02*
D03*
X8661Y405094D02*
D03*
X170453Y322067D02*
D03*
X227165Y242933D02*
D03*
X226378Y165055D02*
D03*
X163985Y110061D02*
D03*
X28724Y268425D02*
D03*
X75590Y32717D02*
D03*
X163394Y43307D02*
D03*
X214567Y60102D02*
D03*
X183071Y86614D02*
D03*
X173228Y79921D02*
D03*
X164567Y62017D02*
D03*
X155512Y98032D02*
D03*
X133071Y55512D02*
D03*
X82382Y33004D02*
D03*
X98420Y66732D02*
D03*
X125591Y37471D02*
D03*
X81161Y79035D02*
D03*
X120079Y70079D02*
D03*
X86614Y92520D02*
D03*
X114961Y51575D02*
D03*
X62598Y85433D02*
D03*
X3937Y64961D02*
D03*
X202000Y19532D02*
D03*
X92126Y30795D02*
D03*
X208378Y60102D02*
D03*
X228552Y62017D02*
D03*
X201969Y60236D02*
D03*
X173228Y33945D02*
D03*
X180709Y18941D02*
D03*
X210583Y30008D02*
D03*
X223661Y37882D02*
D03*
X64961Y28346D02*
D03*
X59449Y9188D02*
D03*
X33303Y49606D02*
D03*
D136*
X222500Y158287D02*
D03*
X24075Y159862D02*
D03*
D137*
X69685Y289764D02*
D03*
X119095Y393898D02*
D03*
D138*
X153150Y18744D02*
D03*
X134646D02*
D03*
X116142D02*
D03*
D139*
X187953Y401575D02*
D03*
X168740D02*
D03*
D140*
X231500Y301000D02*
D03*
D141*
X221500D02*
D03*
X231500Y311000D02*
D03*
X221500D02*
D03*
X231500Y321000D02*
D03*
X221500D02*
D03*
X231500Y331000D02*
D03*
X221500D02*
D03*
X231500Y341000D02*
D03*
X221500D02*
D03*
X231500Y351000D02*
D03*
X221500D02*
D03*
X231500Y361000D02*
D03*
X221500D02*
D03*
X231500Y371000D02*
D03*
X221500D02*
D03*
X231500Y381000D02*
D03*
X221500D02*
D03*
X231500Y391000D02*
D03*
X221500D02*
D03*
D142*
X237500Y417500D02*
D03*
X10000D02*
D03*
X237500Y50000D02*
D03*
X10000D02*
D03*
D143*
X233645Y102756D02*
D03*
X209291Y73852D02*
D03*
X149638Y385929D02*
D03*
X191339Y373414D02*
D03*
X53351Y136980D02*
D03*
X22109Y386785D02*
D03*
X121088Y334750D02*
D03*
X181745Y314961D02*
D03*
X231496Y276772D02*
D03*
X219291Y102756D02*
D03*
X205658D02*
D03*
X6299Y276772D02*
D03*
X10630Y143846D02*
D03*
X125591Y11425D02*
D03*
X71155Y114911D02*
D03*
X74803Y5118D02*
D03*
X103937Y30795D02*
D03*
X19291Y17563D02*
D03*
M02*
