G04*
G04 #@! TF.GenerationSoftware,Altium Limited,Altium Designer,20.0.11 (256)*
G04*
G04 Layer_Color=32768*
%FSLAX25Y25*%
%MOIN*%
G70*
G01*
G75*
%ADD14C,0.00394*%
%ADD16C,0.00600*%
%ADD17C,0.01968*%
%ADD158C,0.00197*%
%ADD161C,0.00200*%
G36*
X23609Y402074D02*
X18409D01*
Y413351D01*
X23609D01*
Y414813D01*
X37809D01*
Y413351D01*
X43009D01*
Y402074D01*
X37809D01*
Y400613D01*
X23609D01*
Y402074D01*
D02*
G37*
D14*
X61417Y10091D02*
X88189D01*
Y30957D01*
X61417D02*
X88189D01*
X61417Y10091D02*
Y30957D01*
X203405Y146968D02*
X228996D01*
Y144311D02*
Y146968D01*
Y144311D02*
X243563D01*
Y270689D01*
X228996D02*
X243563D01*
X228996Y268032D02*
Y270689D01*
X203405Y268032D02*
X228996D01*
X203405Y256122D02*
Y268032D01*
X201437Y256122D02*
X203405D01*
X201437Y160453D02*
Y256122D01*
Y160453D02*
X203405D01*
Y146968D02*
Y160453D01*
X220532Y207500D02*
X224468D01*
X222500Y205532D02*
Y209469D01*
X144488Y36388D02*
Y38553D01*
X143405Y37471D02*
X145571D01*
X21654Y92520D02*
X25591D01*
X23622Y90551D02*
Y94488D01*
X45079Y68898D02*
Y116142D01*
X2165Y68898D02*
Y116142D01*
X45079D01*
X2165Y68898D02*
X45079D01*
X106791Y50000D02*
X108957D01*
X107874Y48917D02*
Y51083D01*
X194638Y55006D02*
Y57171D01*
X193555Y56089D02*
X195721D01*
X194681Y50858D02*
Y53024D01*
X193599Y51941D02*
X195764D01*
X171671Y9886D02*
X175608D01*
X173640Y7917D02*
Y11854D01*
X210150Y23327D02*
X214087D01*
X212118Y21358D02*
Y25295D01*
X187236Y17858D02*
Y20024D01*
X186153Y18941D02*
X188319D01*
X209953Y9886D02*
X213890D01*
X211921Y7917D02*
Y11854D01*
X212256Y41228D02*
X214421D01*
X213339Y40146D02*
Y42311D01*
X207827Y41721D02*
Y43886D01*
X206744Y42803D02*
X208910D01*
X91929Y17815D02*
Y20177D01*
X90748Y18996D02*
X93110D01*
X93721Y23378D02*
Y25543D01*
X92638Y24461D02*
X94803D01*
X93721Y12539D02*
Y14705D01*
X92638Y13622D02*
X94803D01*
X102854Y50000D02*
X105020D01*
X103937Y48917D02*
Y51083D01*
X58366Y15354D02*
X60532D01*
X59449Y14272D02*
Y16437D01*
X38189Y33071D02*
Y35433D01*
X37008Y34252D02*
X39370D01*
X58366Y26772D02*
X60532D01*
X59449Y25689D02*
Y27854D01*
X50295Y18504D02*
X52461D01*
X51378Y17421D02*
Y19587D01*
X39764Y56398D02*
Y58563D01*
X38681Y57480D02*
X40846D01*
X72047Y11024D02*
X74410D01*
X73228Y9843D02*
Y12205D01*
X46161Y383465D02*
X48327D01*
X47244Y382382D02*
Y384547D01*
X201279Y357480D02*
X203445D01*
X202362Y356398D02*
Y358563D01*
X227559Y417421D02*
Y419587D01*
X226476Y418504D02*
X228642D01*
X222835Y417421D02*
Y419587D01*
X221752Y418504D02*
X223917D01*
X218110Y417421D02*
Y419587D01*
X217028Y418504D02*
X219193D01*
X111431Y60236D02*
X113596D01*
X112514Y59153D02*
Y61319D01*
X119783Y60236D02*
X121949D01*
X120866Y59153D02*
Y61319D01*
X189075Y103937D02*
X191240D01*
X190157Y102854D02*
Y105020D01*
X160236Y95177D02*
Y97342D01*
X159153Y96260D02*
X161319D01*
X192720Y99213D02*
X194886D01*
X193803Y98130D02*
Y100295D01*
X82579Y100394D02*
X84744D01*
X83661Y99311D02*
Y101476D01*
X192720Y95079D02*
X194886D01*
X193803Y93996D02*
Y96161D01*
X53351Y114665D02*
Y116831D01*
X52269Y115748D02*
X54434D01*
X53351Y122539D02*
Y124705D01*
X52269Y123622D02*
X54434D01*
X90837Y100394D02*
X93002D01*
X91919Y99311D02*
Y101476D01*
X163896Y80236D02*
X166061D01*
X164978Y79154D02*
Y81319D01*
X162992Y71204D02*
Y73370D01*
X161909Y72287D02*
X164075D01*
X163878Y85236D02*
X166043D01*
X164961Y84153D02*
Y86319D01*
X121358Y85138D02*
X123524D01*
X122441Y84055D02*
Y86221D01*
X74508Y390158D02*
X76673D01*
X75590Y389075D02*
Y391240D01*
X39801Y390158D02*
X41966D01*
X40883Y389075D02*
Y391240D01*
X135504Y345934D02*
Y348100D01*
X134422Y347017D02*
X136587D01*
X129381Y345695D02*
Y347860D01*
X128298Y346778D02*
X130463D01*
X121705Y80236D02*
X123870D01*
X122787Y79154D02*
Y81319D01*
X169014Y70319D02*
X171179D01*
X170097Y69236D02*
Y71401D01*
X217323Y107874D02*
X221260D01*
X219291Y105905D02*
Y109843D01*
X28051Y417685D02*
X30217D01*
X29134Y416602D02*
Y418768D01*
X28051Y421622D02*
X30217D01*
X29134Y420539D02*
Y422705D01*
X39567Y69291D02*
X41732D01*
X40650Y68209D02*
Y70374D01*
X48012Y69291D02*
X50177D01*
X49095Y68209D02*
Y70374D01*
X13780Y62992D02*
Y66929D01*
X11811Y64961D02*
X15748D01*
X167520Y350590D02*
X171457D01*
X169488Y348622D02*
Y352559D01*
X193555Y60236D02*
X195721D01*
X194638Y59153D02*
Y61319D01*
X103937Y17323D02*
Y21260D01*
X101969Y19291D02*
X105905D01*
X193405Y47991D02*
X195571D01*
X194488Y46908D02*
Y49073D01*
X238583Y60048D02*
Y63985D01*
X236614Y62017D02*
X240551D01*
X37008Y42126D02*
X39370D01*
X38189Y40945D02*
Y43307D01*
X198315Y83465D02*
X202252D01*
X200284Y81496D02*
Y85433D01*
X16532Y21500D02*
X20469D01*
X18500Y19532D02*
Y23469D01*
X84736Y62992D02*
X88673D01*
X86705Y61024D02*
Y64961D01*
X235734Y21091D02*
Y23090D01*
X234734Y22091D02*
X236734D01*
X227860Y5555D02*
Y38626D01*
Y5555D02*
X235734D01*
Y3980D02*
Y5555D01*
Y3980D02*
X246758D01*
X235734Y40201D02*
X246758D01*
X235734Y38626D02*
Y40201D01*
X227860Y38626D02*
X235734D01*
X246758Y40201D02*
X251234D01*
Y3980D02*
Y40201D01*
X246758Y3980D02*
X251234D01*
X127953Y404724D02*
Y408661D01*
X125984Y406693D02*
X129921D01*
X31850Y294193D02*
X35787D01*
X33819Y292224D02*
Y296161D01*
X140748Y75236D02*
X144685D01*
X142717Y73268D02*
Y77205D01*
X62598Y83465D02*
Y87402D01*
X60630Y85433D02*
X64567D01*
X173618Y96358D02*
X177555D01*
X175586Y94390D02*
Y98327D01*
X90158Y78740D02*
Y82677D01*
X88189Y80709D02*
X92126D01*
X237500Y77953D02*
Y81890D01*
X235531Y79921D02*
X239469D01*
X105905Y75197D02*
X109843D01*
X107874Y73228D02*
Y77165D01*
X88189Y73228D02*
X92126D01*
X90158Y71260D02*
Y75197D01*
X71653Y63779D02*
Y67716D01*
X69685Y65748D02*
X73622D01*
D16*
X18409Y402074D02*
Y413351D01*
X23609D01*
Y414813D01*
X37809D01*
Y413351D02*
Y414813D01*
Y413351D02*
X43009D01*
Y402074D02*
Y413351D01*
X37809Y402074D02*
X43009D01*
X37809Y400613D02*
Y402074D01*
X23609Y400613D02*
X37809D01*
X23609D02*
Y402074D01*
X18409D02*
X23609D01*
D17*
X156595Y392421D02*
X200098D01*
X156595D02*
Y410728D01*
X200098D01*
Y392421D02*
Y410728D01*
D158*
X141535Y39045D02*
X147441D01*
X141535Y35896D02*
X147441D01*
X141535D02*
Y39045D01*
X147441Y35896D02*
Y39045D01*
X109449Y47047D02*
Y52953D01*
X106299Y47047D02*
Y52953D01*
Y47047D02*
X109449D01*
X106299Y52953D02*
X109449D01*
X191685Y57664D02*
X197590D01*
X191685Y54514D02*
X197590D01*
X191685D02*
Y57664D01*
X197590Y54514D02*
Y57664D01*
X191728Y53516D02*
X197634D01*
X191728Y50366D02*
X197634D01*
X191728D02*
Y53516D01*
X197634Y50366D02*
Y53516D01*
X165175Y4768D02*
Y15004D01*
X182104Y4768D02*
Y15004D01*
X165175D02*
X182104D01*
X165175Y4768D02*
X182104D01*
X218811Y19587D02*
Y27067D01*
X205425Y19587D02*
Y27067D01*
Y19587D02*
X218811D01*
X205425Y27067D02*
X218811D01*
X218220Y13780D02*
Y19685D01*
X206409Y13780D02*
Y19685D01*
Y13780D02*
X218220D01*
X206409Y19685D02*
X218220D01*
X210445Y16732D02*
X214185D01*
X212315Y14862D02*
Y18602D01*
X183496Y20910D02*
X190976D01*
X183496Y16972D02*
X190976D01*
X183496D02*
Y20910D01*
X190976Y16972D02*
Y20910D01*
X220386Y4768D02*
Y15004D01*
X203457Y4768D02*
Y15004D01*
Y4768D02*
X220386D01*
X203457Y15004D02*
X220386D01*
X214913Y38276D02*
Y44181D01*
X211764Y38276D02*
Y44181D01*
X214913D01*
X211764Y38276D02*
X214913D01*
X204874Y41228D02*
X210780D01*
X204874Y44378D02*
X210780D01*
Y41228D02*
Y44378D01*
X204874Y41228D02*
Y44378D01*
X200051Y24595D02*
Y45264D01*
X179382D02*
X200051D01*
X179382Y24595D02*
Y45264D01*
Y24595D02*
X200051D01*
X90354Y15846D02*
X93504D01*
X90354Y22146D02*
X93504D01*
X90354Y15846D02*
Y22146D01*
X93504Y15846D02*
Y22146D01*
X90177Y26232D02*
X97264D01*
X90177Y22689D02*
X97264D01*
X90177D02*
Y26232D01*
X97264Y22689D02*
Y26232D01*
X90177Y15394D02*
X97264D01*
X90177Y11850D02*
X97264D01*
X90177D02*
Y15394D01*
X97264Y11850D02*
Y15394D01*
X102362Y47047D02*
Y52953D01*
X105512Y47047D02*
Y52953D01*
X102362D02*
X105512D01*
X102362Y47047D02*
X105512D01*
X61417Y11614D02*
Y19094D01*
X57480Y11614D02*
Y19094D01*
X61417D01*
X57480Y11614D02*
X61417D01*
X37106Y51575D02*
X39272D01*
X38189Y50492D02*
Y52658D01*
X40157Y47835D02*
Y55315D01*
X36220Y47835D02*
Y55315D01*
X40157D01*
X36220Y47835D02*
X40157D01*
X36614Y31102D02*
X39764D01*
X36614Y37402D02*
X39764D01*
X36614Y31102D02*
Y37402D01*
X39764Y31102D02*
Y37402D01*
X61221Y23228D02*
Y30315D01*
X57677Y23228D02*
Y30315D01*
X61221D01*
X57677Y23228D02*
X61221D01*
X49409Y6890D02*
X53347D01*
X49409Y14370D02*
X53347D01*
X49409Y6890D02*
Y14370D01*
X53347Y6890D02*
Y14370D01*
X51378Y9547D02*
Y11713D01*
X50295Y10630D02*
X52461D01*
X52953Y15551D02*
Y21457D01*
X49803Y15551D02*
Y21457D01*
X52953D01*
X49803Y15551D02*
X52953D01*
X36811Y55905D02*
X42717D01*
X36811Y59055D02*
X42717D01*
Y55905D02*
Y59055D01*
X36811Y55905D02*
Y59055D01*
X76378Y9449D02*
Y12598D01*
X70079Y9449D02*
Y12598D01*
Y9449D02*
X76378D01*
X70079Y12598D02*
X76378D01*
X43701Y381693D02*
Y385236D01*
X50787Y381693D02*
Y385236D01*
X43701D02*
X50787D01*
X43701Y381693D02*
X50787D01*
X205906Y355709D02*
Y359252D01*
X198819Y355709D02*
Y359252D01*
Y355709D02*
X205906D01*
X198819Y359252D02*
X205906D01*
X225787Y422047D02*
X229331D01*
X225787Y414961D02*
X229331D01*
Y422047D01*
X225787Y414961D02*
Y422047D01*
X221063D02*
X224606D01*
X221063Y414961D02*
X224606D01*
Y422047D01*
X221063Y414961D02*
Y422047D01*
X216339D02*
X219882D01*
X216339Y414961D02*
X219882D01*
Y422047D01*
X216339Y414961D02*
Y422047D01*
X108970Y58465D02*
Y62008D01*
X116057Y58465D02*
Y62008D01*
X108970D02*
X116057D01*
X108970Y58465D02*
X116057D01*
X117323D02*
Y62008D01*
X124409Y58465D02*
Y62008D01*
X117323D02*
X124409D01*
X117323Y58465D02*
X124409D01*
X193701Y102165D02*
Y105709D01*
X186614Y102165D02*
Y105709D01*
Y102165D02*
X193701D01*
X186614Y105709D02*
X193701D01*
X158465Y92716D02*
X162008D01*
X158465Y99803D02*
X162008D01*
X158465Y92716D02*
Y99803D01*
X162008Y92716D02*
Y99803D01*
X197346Y97441D02*
Y100984D01*
X190260Y97441D02*
Y100984D01*
Y97441D02*
X197346D01*
X190260Y100984D02*
X197346D01*
X87205Y98622D02*
Y102165D01*
X80118Y98622D02*
Y102165D01*
Y98622D02*
X87205D01*
X80118Y102165D02*
X87205D01*
X197346Y93307D02*
Y96850D01*
X190260Y93307D02*
Y96850D01*
Y93307D02*
X197346D01*
X190260Y96850D02*
X197346D01*
X51580Y119291D02*
X55123D01*
X51580Y112205D02*
X55123D01*
Y119291D01*
X51580Y112205D02*
Y119291D01*
Y127165D02*
X55123D01*
X51580Y120079D02*
X55123D01*
Y127165D01*
X51580Y120079D02*
Y127165D01*
X95463Y98622D02*
Y102165D01*
X88376Y98622D02*
Y102165D01*
Y98622D02*
X95463D01*
X88376Y102165D02*
X95463D01*
X160845Y78071D02*
Y82402D01*
X169112Y78071D02*
Y82402D01*
X160845D02*
X169112D01*
X160845Y78071D02*
X169112D01*
X160827Y68153D02*
X165157D01*
X160827Y76421D02*
X165157D01*
X160827Y68153D02*
Y76421D01*
X165157Y68153D02*
Y76421D01*
X169095Y83071D02*
Y87402D01*
X160827Y83071D02*
Y87402D01*
Y83071D02*
X169095D01*
X160827Y87402D02*
X169095D01*
X118307Y82973D02*
Y87303D01*
X126575Y82973D02*
Y87303D01*
X118307D02*
X126575D01*
X118307Y82973D02*
X126575D01*
X78543Y388583D02*
Y391732D01*
X72638Y388583D02*
Y391732D01*
Y388583D02*
X78543D01*
X72638Y391732D02*
X78543D01*
X37931Y388583D02*
Y391732D01*
X43836Y388583D02*
Y391732D01*
X37931D02*
X43836D01*
X37931Y388583D02*
X43836D01*
X133930Y344064D02*
X137079D01*
X133930Y349970D02*
X137079D01*
X133930Y344064D02*
Y349970D01*
X137079Y344064D02*
Y349970D01*
X127806Y343825D02*
X130955D01*
X127806Y349730D02*
X130955D01*
X127806Y343825D02*
Y349730D01*
X130955Y343825D02*
Y349730D01*
X125740Y81811D02*
X125740Y78661D01*
X119835D02*
Y81811D01*
Y78661D02*
X125740D01*
X119835Y81811D02*
X125740D01*
X173049Y68744D02*
Y71893D01*
X167144Y68744D02*
Y71893D01*
Y68744D02*
X173049D01*
X167144Y71893D02*
X173049D01*
X240945Y76968D02*
Y138779D01*
X197638Y76968D02*
Y138779D01*
X240945D01*
X197638Y76968D02*
X240945D01*
X25591Y415913D02*
Y419457D01*
X32677Y415913D02*
Y419457D01*
X25591D02*
X32677D01*
X25591Y415913D02*
X32677D01*
X25591Y419850D02*
Y423394D01*
X32677Y419850D02*
Y423394D01*
X25591D02*
X32677D01*
X25591Y419850D02*
X32677D01*
X37106Y67520D02*
Y71063D01*
X44193Y67520D02*
Y71063D01*
X37106D02*
X44193D01*
X37106Y67520D02*
X44193D01*
X53228Y67126D02*
Y71457D01*
X44961Y67126D02*
Y71457D01*
Y67126D02*
X53228D01*
X44961Y71457D02*
X53228D01*
X7087Y61024D02*
X20472D01*
X7087Y68898D02*
X20472D01*
Y61024D02*
Y68898D01*
X7087Y61024D02*
Y68898D01*
X144095Y325197D02*
Y375984D01*
X194882Y325197D02*
Y375984D01*
X144095Y325197D02*
X194882D01*
X144095Y375984D02*
X194882D01*
X191685Y58661D02*
Y61811D01*
X197591Y58661D02*
Y61811D01*
X191685D02*
X197591D01*
X191685Y58661D02*
X197591D01*
X188437Y16480D02*
X203988D01*
Y5850D02*
Y16480D01*
X188437Y5850D02*
X203988D01*
X188437D02*
Y16480D01*
X99803Y11417D02*
X108071D01*
X99803Y27165D02*
X108071D01*
X99803Y11417D02*
Y27165D01*
X108071Y11417D02*
Y27165D01*
X198031Y46219D02*
Y49762D01*
X190945Y46219D02*
Y49762D01*
Y46219D02*
X198031D01*
X190945Y49762D02*
X198031D01*
X231890Y65757D02*
X245276D01*
X231890Y58276D02*
X245276D01*
X231890D02*
Y65757D01*
X245276Y58276D02*
Y65757D01*
X36614Y38976D02*
Y45276D01*
X39764Y38976D02*
Y45276D01*
X36614Y38976D02*
X39764D01*
X36614Y45276D02*
X39764D01*
X85532Y104134D02*
Y125787D01*
X56201D02*
X85532D01*
X56201Y104134D02*
Y125787D01*
Y104134D02*
X85532D01*
X196347Y76575D02*
Y90354D01*
X204221Y76575D02*
Y90354D01*
X196347Y76575D02*
X204221D01*
X196347Y90354D02*
X204221D01*
X171653Y414862D02*
Y418602D01*
X169783Y416732D02*
X173524D01*
X165748Y413779D02*
X177559D01*
X165748Y419685D02*
X177559D01*
Y413779D02*
Y419685D01*
X165748Y413779D02*
Y419685D01*
X2358Y4965D02*
Y38035D01*
Y4965D02*
X39366D01*
Y38035D01*
X2358D02*
X39366D01*
X95957Y54921D02*
Y71063D01*
X77453Y54921D02*
Y71063D01*
Y54921D02*
X95957D01*
X77453Y71063D02*
X95957D01*
X115354Y390354D02*
X140551D01*
Y423032D01*
X115354D02*
X140551D01*
X115354Y390354D02*
Y423032D01*
X11772Y273228D02*
Y315158D01*
X55866Y273228D02*
Y315158D01*
X11772D02*
X55866D01*
X11772Y273228D02*
X55866D01*
X159252Y55945D02*
Y94528D01*
X126181Y55945D02*
Y94528D01*
Y55945D02*
X159252D01*
X126181Y94528D02*
X159252D01*
X45472Y73425D02*
X79724D01*
X45472Y97441D02*
X79724D01*
Y73425D02*
Y97441D01*
X45472Y73425D02*
Y97441D01*
X162890Y89075D02*
Y103642D01*
X188283Y89075D02*
Y103642D01*
X162890D02*
X188283D01*
X162890Y89075D02*
X188283D01*
X83268Y84646D02*
X97047D01*
X83268Y76772D02*
X97047D01*
X83268D02*
Y84646D01*
X97047Y76772D02*
Y84646D01*
X185433Y385531D02*
Y389272D01*
X183563Y387402D02*
X187303D01*
X179528Y384449D02*
X191339D01*
X179528Y390354D02*
X191339D01*
Y384449D02*
Y390354D01*
X179528Y384449D02*
Y390354D01*
X195669Y300197D02*
Y306102D01*
X207480Y300197D02*
Y306102D01*
X195669D02*
X207480D01*
X195669Y300197D02*
X207480D01*
X199705Y303150D02*
X203445D01*
X201575Y301279D02*
Y305020D01*
X195669Y306102D02*
Y312008D01*
X207480Y306102D02*
Y312008D01*
X195669D02*
X207480D01*
X195669Y306102D02*
X207480D01*
X199705Y309055D02*
X203445D01*
X201575Y307185D02*
Y310925D01*
X4429Y308661D02*
X8169D01*
X6299Y306791D02*
Y310531D01*
X3347Y302756D02*
Y314567D01*
X9252Y302756D02*
Y314567D01*
X3347Y302756D02*
X9252D01*
X3347Y314567D02*
X9252D01*
X108268Y80413D02*
Y84153D01*
X106398Y82284D02*
X110138D01*
X102362Y85236D02*
X114173D01*
X102362Y79331D02*
X114173D01*
X102362D02*
Y85236D01*
X114173Y79331D02*
Y85236D01*
X170097Y54197D02*
Y57937D01*
X168226Y56067D02*
X171967D01*
X164191Y53114D02*
X176002D01*
X164191Y59020D02*
X176002D01*
Y53114D02*
Y59020D01*
X164191Y53114D02*
Y59020D01*
X233563Y86811D02*
X241437D01*
X233563Y73032D02*
X241437D01*
Y86811D01*
X233563Y73032D02*
Y86811D01*
X114764Y71260D02*
Y79134D01*
X100984Y71260D02*
Y79134D01*
Y71260D02*
X114764D01*
X100984Y79134D02*
X114764D01*
X97047Y69291D02*
Y77165D01*
X83268Y69291D02*
Y77165D01*
Y69291D02*
X97047D01*
X83268Y77165D02*
X97047D01*
X67716Y72638D02*
X75591D01*
X67716Y58858D02*
X75591D01*
Y72638D01*
X67716Y58858D02*
Y72638D01*
X139567Y382587D02*
Y388492D01*
X127756Y382587D02*
Y388492D01*
Y382587D02*
X139567D01*
X127756Y388492D02*
X139567D01*
X131791Y385539D02*
X135531D01*
X133661Y383669D02*
Y387409D01*
X190945Y413779D02*
Y419685D01*
X179134Y413779D02*
Y419685D01*
Y413779D02*
X190945D01*
X179134Y419685D02*
X190945D01*
X183169Y416732D02*
X186909D01*
X185039Y414862D02*
Y418602D01*
X195669Y312008D02*
Y317913D01*
X207480Y312008D02*
Y317913D01*
X195669D02*
X207480D01*
X195669Y312008D02*
X207480D01*
X199705Y314961D02*
X203445D01*
X201575Y313091D02*
Y316831D01*
X195669Y294268D02*
Y300173D01*
X207480Y294268D02*
Y300173D01*
X195669D02*
X207480D01*
X195669Y294268D02*
X207480D01*
X199705Y297220D02*
X203445D01*
X201575Y295350D02*
Y299091D01*
X195669Y318031D02*
Y323936D01*
X207480Y318031D02*
Y323936D01*
X195669D02*
X207480D01*
X195669Y318031D02*
X207480D01*
X199705Y320984D02*
X203445D01*
X201575Y319113D02*
Y322853D01*
X195642Y372036D02*
Y377941D01*
X207453Y372036D02*
Y377941D01*
X195642D02*
X207453D01*
X195642Y372036D02*
X207453D01*
X199677Y374989D02*
X203418D01*
X201548Y373118D02*
Y376859D01*
X195642Y366130D02*
Y372036D01*
X207453Y366130D02*
Y372036D01*
X195642D02*
X207453D01*
X195642Y366130D02*
X207453D01*
X199677Y369083D02*
X203418D01*
X201548Y367213D02*
Y370953D01*
D161*
X232700Y301000D02*
G03*
X232700Y301000I-1200J0D01*
G01*
X208200Y280250D02*
X244800D01*
X208200D02*
Y411750D01*
X244800D01*
Y280250D02*
Y411750D01*
X231500Y299400D02*
Y302600D01*
X229900Y301000D02*
X233100D01*
M02*
