G04*
G04 #@! TF.GenerationSoftware,Altium Limited,Altium Designer,20.0.11 (256)*
G04*
G04 Layer_Physical_Order=2*
G04 Layer_Color=16711680*
%FSLAX25Y25*%
%MOIN*%
G70*
G01*
G75*
%ADD11C,0.01000*%
%ADD13C,0.02362*%
%ADD35R,0.01772X0.01772*%
%ADD145C,0.01575*%
%ADD147R,0.05906X0.05906*%
%ADD148C,0.05906*%
%ADD149C,0.03150*%
%ADD150C,0.05118*%
%ADD151R,0.05906X0.05906*%
%ADD152C,0.09764*%
%ADD153C,0.04724*%
%ADD154R,0.06503X0.06503*%
%ADD155C,0.06503*%
%ADD156C,0.06000*%
%ADD157C,0.05000*%
G36*
X244882Y418104D02*
X244382Y418079D01*
X244306Y418854D01*
X243911Y420155D01*
X243269Y421355D01*
X242407Y422407D01*
X241355Y423270D01*
X240155Y423911D01*
X238854Y424306D01*
X237500Y424439D01*
X236146Y424306D01*
X234845Y423911D01*
X233645Y423270D01*
X232593Y422407D01*
X231731Y421355D01*
X231089Y420155D01*
X230694Y418854D01*
X230561Y417500D01*
X230694Y416146D01*
X231089Y414845D01*
X231731Y413645D01*
X232593Y412593D01*
X233645Y411730D01*
X234845Y411089D01*
X236146Y410694D01*
X237500Y410561D01*
X238854Y410694D01*
X240155Y411089D01*
X241355Y411730D01*
X242407Y412593D01*
X243269Y413645D01*
X243911Y414845D01*
X244306Y416146D01*
X244382Y416921D01*
X244882Y416896D01*
Y274063D01*
X244977Y274063D01*
Y154102D01*
Y2023D01*
X120079D01*
Y14366D01*
X120321Y14565D01*
X121056Y15461D01*
X121602Y16482D01*
X121939Y17591D01*
X122052Y18744D01*
X121939Y19897D01*
X121602Y21006D01*
X121056Y22028D01*
X120321Y22923D01*
X120079Y23122D01*
Y53877D01*
X120541Y54068D01*
X124061Y50548D01*
Y39542D01*
X123754Y39307D01*
X123342Y38769D01*
X123082Y38143D01*
X122994Y37471D01*
X123082Y36798D01*
X123342Y36172D01*
X123754Y35634D01*
X124292Y35221D01*
X124918Y34962D01*
X125591Y34874D01*
X126263Y34962D01*
X126889Y35221D01*
X127427Y35634D01*
X127840Y36172D01*
X128099Y36798D01*
X128188Y37471D01*
X128099Y38143D01*
X127840Y38769D01*
X127427Y39307D01*
X127120Y39542D01*
Y51181D01*
X127004Y51766D01*
X126672Y52263D01*
X121207Y57727D01*
X120767Y58168D01*
X120079Y58856D01*
X98818Y80117D01*
X98321Y80448D01*
X97736Y80565D01*
X83233D01*
X82998Y80872D01*
X82460Y81284D01*
X81833Y81544D01*
X81161Y81632D01*
X80489Y81544D01*
X79863Y81284D01*
X79325Y80872D01*
X78912Y80334D01*
X78653Y79708D01*
X78564Y79035D01*
X78653Y78363D01*
X78912Y77737D01*
X79325Y77199D01*
X79863Y76786D01*
X80489Y76527D01*
X81161Y76438D01*
X81833Y76527D01*
X82460Y76786D01*
X82998Y77199D01*
X83233Y77506D01*
X97103D01*
X116441Y58168D01*
X116250Y57706D01*
X77171D01*
Y57244D01*
X60304D01*
X56426Y61122D01*
Y103371D01*
X56309Y103956D01*
X55978Y104453D01*
X30254Y130177D01*
Y142034D01*
X30561Y142270D01*
X30974Y142808D01*
X31233Y143434D01*
X31321Y144106D01*
X31233Y144779D01*
X30974Y145405D01*
X30561Y145943D01*
X30023Y146355D01*
X29397Y146615D01*
X28724Y146703D01*
X28052Y146615D01*
X27426Y146355D01*
X26888Y145943D01*
X26475Y145405D01*
X26216Y144779D01*
X26127Y144106D01*
X26216Y143434D01*
X26475Y142808D01*
X26888Y142270D01*
X27195Y142034D01*
Y129612D01*
X27033Y129489D01*
X26717Y129383D01*
X20955Y135145D01*
Y142034D01*
X21261Y142270D01*
X21674Y142808D01*
X21934Y143434D01*
X22022Y144106D01*
X21934Y144779D01*
X21674Y145405D01*
X21261Y145943D01*
X20724Y146355D01*
X20097Y146615D01*
X19425Y146703D01*
X18753Y146615D01*
X18127Y146355D01*
X17589Y145943D01*
X17176Y145405D01*
X16917Y144779D01*
X16828Y144106D01*
X16917Y143434D01*
X17176Y142808D01*
X17589Y142270D01*
X17896Y142034D01*
Y134512D01*
X18012Y133926D01*
X18344Y133430D01*
X49534Y102241D01*
Y57244D01*
X2023D01*
Y62554D01*
X2523Y62800D01*
X2638Y62712D01*
X3265Y62452D01*
X3437Y62429D01*
Y64961D01*
Y67492D01*
X3265Y67469D01*
X2638Y67210D01*
X2523Y67121D01*
X2023Y67368D01*
Y271654D01*
Y318898D01*
X35872D01*
Y287035D01*
X22192Y273355D01*
D01*
X19809Y270972D01*
X19425Y271022D01*
X18753Y270934D01*
X18127Y270674D01*
X17589Y270262D01*
X17176Y269724D01*
X16917Y269097D01*
X16828Y268425D01*
X16917Y267753D01*
X17176Y267127D01*
X17589Y266589D01*
X18127Y266176D01*
X18753Y265917D01*
X19425Y265828D01*
X20097Y265917D01*
X20724Y266176D01*
X21261Y266589D01*
X21674Y267127D01*
X21934Y267753D01*
X22022Y268425D01*
X21972Y268809D01*
X25278Y272115D01*
D01*
X38483Y285320D01*
X38814Y285816D01*
X38931Y286402D01*
Y382677D01*
X38814Y383262D01*
X38483Y383759D01*
X27762Y394479D01*
X27266Y394811D01*
X26681Y394927D01*
X11173D01*
X10191Y395909D01*
Y403022D01*
X10498Y403258D01*
X10733Y403565D01*
X33642D01*
X73493Y363714D01*
X73989Y363382D01*
X74575Y363266D01*
X171305D01*
X171686Y362769D01*
X172224Y362356D01*
X172850Y362097D01*
X173522Y362009D01*
X174195Y362097D01*
X174821Y362356D01*
X175359Y362769D01*
X175771Y363307D01*
X176031Y363933D01*
X176119Y364605D01*
X176031Y365278D01*
X175771Y365904D01*
X175359Y366442D01*
X174821Y366855D01*
X174195Y367114D01*
X173522Y367202D01*
X172850Y367114D01*
X172224Y366855D01*
X171686Y366442D01*
X171596Y366325D01*
X120702D01*
X120568Y366533D01*
X120491Y366825D01*
X120844Y367284D01*
X121103Y367911D01*
X121126Y368083D01*
X116063D01*
X116086Y367911D01*
X116345Y367284D01*
X116698Y366825D01*
X116621Y366533D01*
X116487Y366325D01*
X75208D01*
X35357Y406176D01*
X34861Y406507D01*
X34276Y406624D01*
X10733D01*
X10498Y406931D01*
X9960Y407343D01*
X9334Y407603D01*
X8661Y407691D01*
X7989Y407603D01*
X7363Y407343D01*
X6825Y406931D01*
X6412Y406393D01*
X6153Y405766D01*
X6064Y405094D01*
X6153Y404422D01*
X6412Y403796D01*
X6825Y403258D01*
X7132Y403022D01*
Y395276D01*
X7248Y394690D01*
X7580Y394194D01*
X9458Y392316D01*
X9954Y391985D01*
X10539Y391868D01*
X26048D01*
X35526Y382390D01*
X35319Y381890D01*
X2023D01*
Y425197D01*
X244882Y425197D01*
Y418104D01*
D02*
G37*
G36*
X53367Y102681D02*
Y60489D01*
X53483Y59904D01*
X53815Y59408D01*
X55516Y57706D01*
X55325Y57244D01*
X53226D01*
X52592Y57878D01*
Y102743D01*
X53028Y102961D01*
X53367Y102681D01*
D02*
G37*
G36*
X108268Y2023D02*
X77340D01*
X77171Y2523D01*
X77299Y2622D01*
X77860Y3353D01*
X78213Y4204D01*
X78268Y4618D01*
X71339D01*
X71393Y4204D01*
X71746Y3353D01*
X72307Y2622D01*
X72436Y2523D01*
X72266Y2023D01*
X2023D01*
Y27559D01*
X34058Y27559D01*
X34352Y27265D01*
X34848Y26934D01*
X35433Y26817D01*
X62889D01*
X63124Y26510D01*
X63662Y26097D01*
X64289Y25838D01*
X64961Y25749D01*
X65633Y25838D01*
X66259Y26097D01*
X66797Y26510D01*
X67210Y27048D01*
X67421Y27559D01*
X86614D01*
X86614Y35433D01*
X90596Y35433D01*
Y32867D01*
X90289Y32632D01*
X89877Y32094D01*
X89617Y31467D01*
X89529Y30795D01*
X89617Y30123D01*
X89877Y29497D01*
X90289Y28959D01*
X90827Y28546D01*
X91454Y28287D01*
X92126Y28198D01*
X92798Y28287D01*
X93424Y28546D01*
X93962Y28959D01*
X94375Y29497D01*
X94634Y30123D01*
X94723Y30795D01*
X94634Y31467D01*
X94375Y32094D01*
X93962Y32632D01*
X93655Y32867D01*
Y35433D01*
X102408Y35433D01*
Y33950D01*
X102172Y33852D01*
X101441Y33292D01*
X100880Y32560D01*
X100527Y31709D01*
X100473Y31295D01*
X107401D01*
X107347Y31709D01*
X106994Y32560D01*
X106433Y33292D01*
X105702Y33852D01*
X105466Y33950D01*
Y35433D01*
X108268D01*
X108268Y2023D01*
D02*
G37*
%LPC*%
G36*
X136811Y423475D02*
X135779Y423339D01*
X134818Y422941D01*
X133992Y422307D01*
X133358Y421482D01*
X132960Y420520D01*
X132824Y419488D01*
X132960Y418456D01*
X133358Y417495D01*
X133992Y416669D01*
X134818Y416036D01*
X135779Y415637D01*
X136811Y415501D01*
X137843Y415637D01*
X138804Y416036D01*
X139630Y416669D01*
X140264Y417495D01*
X140662Y418456D01*
X140798Y419488D01*
X140662Y420520D01*
X140264Y421482D01*
X139630Y422307D01*
X138804Y422941D01*
X137843Y423339D01*
X136811Y423475D01*
D02*
G37*
G36*
X119095D02*
X118063Y423339D01*
X117101Y422941D01*
X116275Y422307D01*
X115642Y421482D01*
X115243Y420520D01*
X115108Y419488D01*
X115243Y418456D01*
X115642Y417495D01*
X116275Y416669D01*
X117101Y416036D01*
X118063Y415637D01*
X119095Y415501D01*
X120126Y415637D01*
X121088Y416036D01*
X121914Y416669D01*
X122547Y417495D01*
X122945Y418456D01*
X123081Y419488D01*
X122945Y420520D01*
X122547Y421482D01*
X121914Y422307D01*
X121088Y422941D01*
X120126Y423339D01*
X119095Y423475D01*
D02*
G37*
G36*
X92142Y420094D02*
X84236D01*
Y412189D01*
X92142D01*
Y420094D01*
D02*
G37*
G36*
X66158D02*
X58252D01*
Y412189D01*
X66158D01*
Y420094D01*
D02*
G37*
G36*
X78189Y420129D02*
X77157Y419993D01*
X76196Y419594D01*
X75370Y418961D01*
X74736Y418135D01*
X74338Y417174D01*
X74202Y416142D01*
X74338Y415110D01*
X74736Y414148D01*
X75370Y413323D01*
X76196Y412689D01*
X77157Y412291D01*
X78189Y412155D01*
X79221Y412291D01*
X80182Y412689D01*
X81008Y413323D01*
X81642Y414148D01*
X82040Y415110D01*
X82176Y416142D01*
X82040Y417174D01*
X81642Y418135D01*
X81008Y418961D01*
X80182Y419594D01*
X79221Y419993D01*
X78189Y420129D01*
D02*
G37*
G36*
X52205D02*
X51173Y419993D01*
X50211Y419594D01*
X49386Y418961D01*
X48752Y418135D01*
X48354Y417174D01*
X48218Y416142D01*
X48354Y415110D01*
X48752Y414148D01*
X49386Y413323D01*
X50211Y412689D01*
X51173Y412291D01*
X52205Y412155D01*
X53237Y412291D01*
X54198Y412689D01*
X55024Y413323D01*
X55657Y414148D01*
X56056Y415110D01*
X56192Y416142D01*
X56056Y417174D01*
X55657Y418135D01*
X55024Y418961D01*
X54198Y419594D01*
X53237Y419993D01*
X52205Y420129D01*
D02*
G37*
G36*
X10000Y424439D02*
X8646Y424306D01*
X7345Y423911D01*
X6145Y423270D01*
X5093Y422407D01*
X4231Y421355D01*
X3589Y420155D01*
X3194Y418854D01*
X3061Y417500D01*
X3194Y416146D01*
X3589Y414845D01*
X4231Y413645D01*
X5093Y412593D01*
X6145Y411730D01*
X7345Y411089D01*
X8646Y410694D01*
X10000Y410561D01*
X11354Y410694D01*
X12655Y411089D01*
X13855Y411730D01*
X14907Y412593D01*
X15769Y413645D01*
X16411Y414845D01*
X16806Y416146D01*
X16939Y417500D01*
X16806Y418854D01*
X16411Y420155D01*
X15769Y421355D01*
X14907Y422407D01*
X13855Y423270D01*
X12655Y423911D01*
X11354Y424306D01*
X10000Y424439D01*
D02*
G37*
G36*
X187953Y404966D02*
X187075Y404850D01*
X186257Y404512D01*
X185555Y403973D01*
X185016Y403270D01*
X184677Y402453D01*
X184562Y401575D01*
X184677Y400697D01*
X185016Y399879D01*
X185555Y399177D01*
X186257Y398638D01*
X187075Y398299D01*
X187953Y398184D01*
X188830Y398299D01*
X189648Y398638D01*
X190351Y399177D01*
X190890Y399879D01*
X191228Y400697D01*
X191344Y401575D01*
X191228Y402453D01*
X190890Y403270D01*
X190351Y403973D01*
X189648Y404512D01*
X188830Y404850D01*
X187953Y404966D01*
D02*
G37*
G36*
X168740D02*
X167862Y404850D01*
X167045Y404512D01*
X166342Y403973D01*
X165803Y403270D01*
X165464Y402453D01*
X165349Y401575D01*
X165464Y400697D01*
X165803Y399879D01*
X166342Y399177D01*
X167045Y398638D01*
X167862Y398299D01*
X168740Y398184D01*
X169618Y398299D01*
X170436Y398638D01*
X171138Y399177D01*
X171677Y399879D01*
X172016Y400697D01*
X172131Y401575D01*
X172016Y402453D01*
X171677Y403270D01*
X171138Y403973D01*
X170436Y404512D01*
X169618Y404850D01*
X168740Y404966D01*
D02*
G37*
G36*
X123047Y397850D02*
X119595D01*
Y394398D01*
X123047D01*
Y397850D01*
D02*
G37*
G36*
X118595D02*
X115142D01*
Y394398D01*
X118595D01*
Y397850D01*
D02*
G37*
G36*
X222000Y395222D02*
Y391500D01*
X225723D01*
X225642Y392110D01*
X225214Y393144D01*
X224532Y394032D01*
X223644Y394714D01*
X222610Y395142D01*
X222000Y395222D01*
D02*
G37*
G36*
X221000D02*
X220390Y395142D01*
X219356Y394714D01*
X218468Y394032D01*
X217786Y393144D01*
X217358Y392110D01*
X217278Y391500D01*
X221000D01*
Y395222D01*
D02*
G37*
G36*
X123047Y393398D02*
X119595D01*
Y389945D01*
X123047D01*
Y393398D01*
D02*
G37*
G36*
X118595D02*
X115142D01*
Y389945D01*
X118595D01*
Y393398D01*
D02*
G37*
G36*
X136811Y397884D02*
X135779Y397749D01*
X134818Y397350D01*
X133992Y396717D01*
X133358Y395891D01*
X132960Y394930D01*
X132824Y393898D01*
X132960Y392866D01*
X133358Y391904D01*
X133992Y391078D01*
X134818Y390445D01*
X135779Y390047D01*
X136811Y389911D01*
X137843Y390047D01*
X138804Y390445D01*
X139630Y391078D01*
X140264Y391904D01*
X140662Y392866D01*
X140798Y393898D01*
X140662Y394930D01*
X140264Y395891D01*
X139630Y396717D01*
X138804Y397350D01*
X137843Y397749D01*
X136811Y397884D01*
D02*
G37*
G36*
X22609Y390249D02*
Y387285D01*
X25573D01*
X25519Y387698D01*
X25166Y388550D01*
X24605Y389281D01*
X23874Y389842D01*
X23022Y390195D01*
X22609Y390249D01*
D02*
G37*
G36*
X21609D02*
X21195Y390195D01*
X20344Y389842D01*
X19612Y389281D01*
X19051Y388550D01*
X18699Y387698D01*
X18644Y387285D01*
X21609D01*
Y390249D01*
D02*
G37*
G36*
X225723Y390500D02*
X222000D01*
Y386777D01*
X222610Y386858D01*
X223644Y387286D01*
X224532Y387968D01*
X225214Y388856D01*
X225642Y389890D01*
X225723Y390500D01*
D02*
G37*
G36*
X221000D02*
X217278D01*
X217358Y389890D01*
X217786Y388856D01*
X218468Y387968D01*
X219356Y387286D01*
X220390Y386858D01*
X221000Y386777D01*
Y390500D01*
D02*
G37*
G36*
X231500Y395288D02*
X230390Y395142D01*
X229356Y394714D01*
X228468Y394032D01*
X227786Y393144D01*
X227358Y392110D01*
X227212Y391000D01*
X227358Y389890D01*
X227786Y388856D01*
X228468Y387968D01*
X229356Y387286D01*
X230390Y386858D01*
X231500Y386712D01*
X232610Y386858D01*
X233644Y387286D01*
X234532Y387968D01*
X235214Y388856D01*
X235642Y389890D01*
X235788Y391000D01*
X235642Y392110D01*
X235214Y393144D01*
X234532Y394032D01*
X233644Y394714D01*
X232610Y395142D01*
X231500Y395288D01*
D02*
G37*
G36*
X150138Y389393D02*
Y386429D01*
X153103D01*
X153048Y386842D01*
X152696Y387694D01*
X152135Y388425D01*
X151404Y388986D01*
X150552Y389339D01*
X150138Y389393D01*
D02*
G37*
G36*
X149138D02*
X148725Y389339D01*
X147873Y388986D01*
X147142Y388425D01*
X146581Y387694D01*
X146229Y386842D01*
X146174Y386429D01*
X149138D01*
Y389393D01*
D02*
G37*
G36*
X77665Y387071D02*
Y385039D01*
X79697D01*
X79674Y385211D01*
X79414Y385838D01*
X79002Y386376D01*
X78464Y386789D01*
X77838Y387048D01*
X77665Y387071D01*
D02*
G37*
G36*
X76665D02*
X76493Y387048D01*
X75867Y386789D01*
X75329Y386376D01*
X74916Y385838D01*
X74657Y385211D01*
X74634Y385039D01*
X76665D01*
Y387071D01*
D02*
G37*
G36*
X25573Y386285D02*
X22609D01*
Y383320D01*
X23022Y383375D01*
X23874Y383728D01*
X24605Y384289D01*
X25166Y385020D01*
X25519Y385871D01*
X25573Y386285D01*
D02*
G37*
G36*
X21609D02*
X18644D01*
X18699Y385871D01*
X19051Y385020D01*
X19612Y384289D01*
X20344Y383728D01*
X21195Y383375D01*
X21609Y383320D01*
Y386285D01*
D02*
G37*
G36*
X153103Y385429D02*
X150138D01*
Y382465D01*
X150552Y382519D01*
X151404Y382872D01*
X152135Y383433D01*
X152696Y384164D01*
X153048Y385015D01*
X153103Y385429D01*
D02*
G37*
G36*
X149138D02*
X146174D01*
X146229Y385015D01*
X146581Y384164D01*
X147142Y383433D01*
X147873Y382872D01*
X148725Y382519D01*
X149138Y382465D01*
Y385429D01*
D02*
G37*
G36*
X79697Y384039D02*
X77665D01*
Y382008D01*
X77838Y382031D01*
X78464Y382290D01*
X79002Y382703D01*
X79414Y383241D01*
X79674Y383867D01*
X79697Y384039D01*
D02*
G37*
G36*
X76665D02*
X74634D01*
X74657Y383867D01*
X74916Y383241D01*
X75329Y382703D01*
X75867Y382290D01*
X76493Y382031D01*
X76665Y382008D01*
Y384039D01*
D02*
G37*
G36*
X49213Y406140D02*
X48540Y406052D01*
X47914Y405792D01*
X47376Y405380D01*
X46964Y404842D01*
X46704Y404215D01*
X46616Y403543D01*
X46704Y402871D01*
X46964Y402245D01*
X47376Y401707D01*
X47914Y401294D01*
X48540Y401035D01*
X49213Y400946D01*
X49885Y401035D01*
X50511Y401294D01*
X51049Y401707D01*
X51060Y401721D01*
X76513D01*
X93783Y384451D01*
X93781Y384433D01*
X93869Y383761D01*
X94129Y383135D01*
X94542Y382597D01*
X95079Y382184D01*
X95706Y381925D01*
X96378Y381836D01*
X97050Y381925D01*
X97676Y382184D01*
X98214Y382597D01*
X98627Y383135D01*
X98887Y383761D01*
X98975Y384433D01*
X98887Y385105D01*
X98627Y385732D01*
X98214Y386269D01*
X97676Y386682D01*
X97050Y386942D01*
X96378Y387030D01*
X96360Y387028D01*
X78556Y404832D01*
X77965Y405227D01*
X77268Y405366D01*
X77268Y405366D01*
X51060D01*
X51049Y405380D01*
X50511Y405792D01*
X49885Y406052D01*
X49213Y406140D01*
D02*
G37*
G36*
X222000Y385223D02*
Y381500D01*
X225723D01*
X225642Y382110D01*
X225214Y383144D01*
X224532Y384032D01*
X223644Y384714D01*
X222610Y385142D01*
X222000Y385223D01*
D02*
G37*
G36*
X221000D02*
X220390Y385142D01*
X219356Y384714D01*
X218468Y384032D01*
X217786Y383144D01*
X217358Y382110D01*
X217278Y381500D01*
X221000D01*
Y385223D01*
D02*
G37*
G36*
X225723Y380500D02*
X222000D01*
Y376778D01*
X222610Y376858D01*
X223644Y377286D01*
X224532Y377968D01*
X225214Y378856D01*
X225642Y379890D01*
X225723Y380500D01*
D02*
G37*
G36*
X221000D02*
X217278D01*
X217358Y379890D01*
X217786Y378856D01*
X218468Y377968D01*
X219356Y377286D01*
X220390Y376858D01*
X221000Y376778D01*
Y380500D01*
D02*
G37*
G36*
X231500Y385288D02*
X230390Y385142D01*
X229356Y384714D01*
X228468Y384032D01*
X227786Y383144D01*
X227358Y382110D01*
X227212Y381000D01*
X227358Y379890D01*
X227786Y378856D01*
X228468Y377968D01*
X229356Y377286D01*
X230390Y376858D01*
X231500Y376712D01*
X232610Y376858D01*
X233644Y377286D01*
X234532Y377968D01*
X235214Y378856D01*
X235642Y379890D01*
X235788Y381000D01*
X235642Y382110D01*
X235214Y383144D01*
X234532Y384032D01*
X233644Y384714D01*
X232610Y385142D01*
X231500Y385288D01*
D02*
G37*
G36*
X222000Y375222D02*
Y371500D01*
X225723D01*
X225642Y372110D01*
X225214Y373144D01*
X224532Y374032D01*
X223644Y374714D01*
X222610Y375142D01*
X222000Y375222D01*
D02*
G37*
G36*
X221000D02*
X220390Y375142D01*
X219356Y374714D01*
X218468Y374032D01*
X217786Y373144D01*
X217358Y372110D01*
X217278Y371500D01*
X221000D01*
Y375222D01*
D02*
G37*
G36*
X191339Y376944D02*
X190425Y376824D01*
X189574Y376471D01*
X188842Y375910D01*
X188281Y375179D01*
X187929Y374327D01*
X187808Y373414D01*
X187853Y373073D01*
X180172Y365392D01*
X179690Y364671D01*
X179521Y363820D01*
X179521Y363820D01*
Y322848D01*
X179021Y322678D01*
X179002Y322703D01*
X178464Y323115D01*
X177838Y323375D01*
X177665Y323397D01*
Y320866D01*
Y318335D01*
X177838Y318358D01*
X178464Y318617D01*
X179002Y319030D01*
X179021Y319054D01*
X179521Y318885D01*
Y317666D01*
X179248Y317457D01*
X178687Y316726D01*
X178335Y315874D01*
X178214Y314961D01*
X178335Y314047D01*
X178687Y313195D01*
X179248Y312464D01*
X179979Y311903D01*
X180831Y311551D01*
X181745Y311430D01*
X182658Y311551D01*
X183510Y311903D01*
X184241Y312464D01*
X184802Y313195D01*
X185154Y314047D01*
X185275Y314961D01*
X185154Y315874D01*
X184802Y316726D01*
X184241Y317457D01*
X183968Y317666D01*
Y362898D01*
X190998Y369928D01*
X191339Y369883D01*
X192252Y370004D01*
X193104Y370356D01*
X193835Y370918D01*
X194396Y371649D01*
X194748Y372500D01*
X194869Y373414D01*
X194748Y374327D01*
X194396Y375179D01*
X193835Y375910D01*
X193104Y376471D01*
X192252Y376824D01*
X191339Y376944D01*
D02*
G37*
G36*
X119095Y371114D02*
Y369083D01*
X121126D01*
X121103Y369255D01*
X120844Y369882D01*
X120431Y370419D01*
X119893Y370832D01*
X119267Y371092D01*
X119095Y371114D01*
D02*
G37*
G36*
X118095D02*
X117922Y371092D01*
X117296Y370832D01*
X116758Y370419D01*
X116345Y369882D01*
X116086Y369255D01*
X116063Y369083D01*
X118095D01*
Y371114D01*
D02*
G37*
G36*
X225723Y370500D02*
X222000D01*
Y366777D01*
X222610Y366858D01*
X223644Y367286D01*
X224532Y367968D01*
X225214Y368856D01*
X225642Y369890D01*
X225723Y370500D01*
D02*
G37*
G36*
X221000D02*
X217278D01*
X217358Y369890D01*
X217786Y368856D01*
X218468Y367968D01*
X219356Y367286D01*
X220390Y366858D01*
X221000Y366777D01*
Y370500D01*
D02*
G37*
G36*
X231500Y375288D02*
X230390Y375142D01*
X229356Y374714D01*
X228468Y374032D01*
X227786Y373144D01*
X227358Y372110D01*
X227212Y371000D01*
X227358Y369890D01*
X227786Y368856D01*
X228468Y367968D01*
X229356Y367286D01*
X230390Y366858D01*
X231500Y366712D01*
X232610Y366858D01*
X233644Y367286D01*
X234532Y367968D01*
X235214Y368856D01*
X235642Y369890D01*
X235788Y371000D01*
X235642Y372110D01*
X235214Y373144D01*
X234532Y374032D01*
X233644Y374714D01*
X232610Y375142D01*
X231500Y375288D01*
D02*
G37*
G36*
X232000Y365223D02*
Y361500D01*
X235722D01*
X235642Y362110D01*
X235214Y363144D01*
X234532Y364032D01*
X233644Y364714D01*
X232610Y365142D01*
X232000Y365223D01*
D02*
G37*
G36*
X222000D02*
Y361500D01*
X225723D01*
X225642Y362110D01*
X225214Y363144D01*
X224532Y364032D01*
X223644Y364714D01*
X222610Y365142D01*
X222000Y365223D01*
D02*
G37*
G36*
X231000D02*
X230390Y365142D01*
X229356Y364714D01*
X228468Y364032D01*
X227786Y363144D01*
X227358Y362110D01*
X227277Y361500D01*
X231000D01*
Y365223D01*
D02*
G37*
G36*
X221000D02*
X220390Y365142D01*
X219356Y364714D01*
X218468Y364032D01*
X217786Y363144D01*
X217358Y362110D01*
X217278Y361500D01*
X221000D01*
Y365223D01*
D02*
G37*
G36*
X13780Y401907D02*
X13107Y401818D01*
X12481Y401559D01*
X11943Y401146D01*
X11530Y400608D01*
X11271Y399982D01*
X11182Y399310D01*
X11271Y398638D01*
X11530Y398011D01*
X11943Y397473D01*
X12481Y397061D01*
X13107Y396801D01*
X13780Y396713D01*
X14452Y396801D01*
X15078Y397061D01*
X15616Y397473D01*
X15852Y397780D01*
X29978D01*
X40203Y387556D01*
Y282067D01*
X30789Y272653D01*
X29108Y270972D01*
X28724Y271022D01*
X28052Y270934D01*
X27426Y270674D01*
X26888Y270262D01*
X26475Y269724D01*
X26216Y269097D01*
X26127Y268425D01*
X26216Y267753D01*
X26475Y267127D01*
X26888Y266589D01*
X27426Y266176D01*
X28052Y265917D01*
X28724Y265828D01*
X29397Y265917D01*
X30023Y266176D01*
X30561Y266589D01*
X30974Y267127D01*
X31233Y267753D01*
X31321Y268425D01*
X31271Y268809D01*
X34578Y272115D01*
D01*
X42814Y280352D01*
X43145Y280848D01*
X43262Y281433D01*
Y383843D01*
X43724Y384035D01*
X44194Y383564D01*
X44194Y383564D01*
X69391Y358367D01*
X69887Y358036D01*
X70473Y357919D01*
X164270D01*
X164506Y357612D01*
X165044Y357200D01*
X165670Y356940D01*
X166342Y356852D01*
X167014Y356940D01*
X167641Y357200D01*
X168179Y357612D01*
X168591Y358150D01*
X168851Y358777D01*
X168939Y359449D01*
X168851Y360121D01*
X168591Y360747D01*
X168179Y361285D01*
X167641Y361698D01*
X167014Y361957D01*
X166342Y362046D01*
X165670Y361957D01*
X165044Y361698D01*
X164506Y361285D01*
X164270Y360978D01*
X71106D01*
X46357Y385727D01*
X42814Y389270D01*
X31693Y400391D01*
X31197Y400723D01*
X30612Y400839D01*
X15852D01*
X15616Y401146D01*
X15078Y401559D01*
X14452Y401818D01*
X13780Y401907D01*
D02*
G37*
G36*
X235722Y360500D02*
X232000D01*
Y356778D01*
X232610Y356858D01*
X233644Y357286D01*
X234532Y357968D01*
X235214Y358856D01*
X235642Y359890D01*
X235722Y360500D01*
D02*
G37*
G36*
X225723D02*
X222000D01*
Y356778D01*
X222610Y356858D01*
X223644Y357286D01*
X224532Y357968D01*
X225214Y358856D01*
X225642Y359890D01*
X225723Y360500D01*
D02*
G37*
G36*
X231000D02*
X227277D01*
X227358Y359890D01*
X227786Y358856D01*
X228468Y357968D01*
X229356Y357286D01*
X230390Y356858D01*
X231000Y356778D01*
Y360500D01*
D02*
G37*
G36*
X221000D02*
X217278D01*
X217358Y359890D01*
X217786Y358856D01*
X218468Y357968D01*
X219356Y357286D01*
X220390Y356858D01*
X221000Y356778D01*
Y360500D01*
D02*
G37*
G36*
X222000Y355223D02*
Y351500D01*
X225723D01*
X225642Y352110D01*
X225214Y353144D01*
X224532Y354032D01*
X223644Y354714D01*
X222610Y355142D01*
X222000Y355223D01*
D02*
G37*
G36*
X221000D02*
X220390Y355142D01*
X219356Y354714D01*
X218468Y354032D01*
X217786Y353144D01*
X217358Y352110D01*
X217278Y351500D01*
X221000D01*
Y355223D01*
D02*
G37*
G36*
X225723Y350500D02*
X222000D01*
Y346778D01*
X222610Y346858D01*
X223644Y347286D01*
X224532Y347968D01*
X225214Y348856D01*
X225642Y349890D01*
X225723Y350500D01*
D02*
G37*
G36*
X221000D02*
X217278D01*
X217358Y349890D01*
X217786Y348856D01*
X218468Y347968D01*
X219356Y347286D01*
X220390Y346858D01*
X221000Y346778D01*
Y350500D01*
D02*
G37*
G36*
X231500Y355288D02*
X230390Y355142D01*
X229356Y354714D01*
X228468Y354032D01*
X227786Y353144D01*
X227358Y352110D01*
X227212Y351000D01*
X227358Y349890D01*
X227786Y348856D01*
X228468Y347968D01*
X229356Y347286D01*
X230390Y346858D01*
X231500Y346712D01*
X232610Y346858D01*
X233644Y347286D01*
X234532Y347968D01*
X235214Y348856D01*
X235642Y349890D01*
X235788Y351000D01*
X235642Y352110D01*
X235214Y353144D01*
X234532Y354032D01*
X233644Y354714D01*
X232610Y355142D01*
X231500Y355288D01*
D02*
G37*
G36*
X158661Y384097D02*
X157989Y384009D01*
X157363Y383749D01*
X156825Y383336D01*
X156412Y382799D01*
X156153Y382172D01*
X156064Y381500D01*
X156153Y380828D01*
X156412Y380202D01*
X156825Y379664D01*
X157363Y379251D01*
X157989Y378992D01*
X158661Y378903D01*
X159334Y378992D01*
X159960Y379251D01*
X160498Y379664D01*
X160733Y379971D01*
X201725D01*
X205164Y376532D01*
Y274068D01*
Y154102D01*
Y124273D01*
X197312Y116422D01*
X196850Y116613D01*
Y154102D01*
Y271654D01*
X61766Y271654D01*
Y276378D01*
X61649Y276963D01*
X61318Y277459D01*
X57829Y280948D01*
Y325745D01*
X68350Y336266D01*
X110133D01*
X110368Y335959D01*
X110906Y335546D01*
X111533Y335287D01*
X112205Y335198D01*
X112877Y335287D01*
X113503Y335546D01*
X114041Y335959D01*
X114454Y336497D01*
X114713Y337123D01*
X114802Y337795D01*
X114713Y338467D01*
X114454Y339094D01*
X114041Y339632D01*
X113503Y340044D01*
X112877Y340304D01*
X112205Y340392D01*
X111533Y340304D01*
X110906Y340044D01*
X110368Y339632D01*
X110133Y339325D01*
X67716D01*
X67131Y339208D01*
X66635Y338877D01*
X55218Y327459D01*
X54886Y326963D01*
X54770Y326378D01*
Y280315D01*
X54851Y279909D01*
X54390Y279663D01*
X53892Y280161D01*
Y330075D01*
X65431Y341615D01*
X113453D01*
X113689Y341308D01*
X114226Y340895D01*
X114853Y340636D01*
X115525Y340547D01*
X116197Y340636D01*
X116823Y340895D01*
X117361Y341308D01*
X117774Y341846D01*
X118033Y342472D01*
X118122Y343144D01*
X118033Y343816D01*
X117774Y344443D01*
X117361Y344981D01*
X116823Y345393D01*
X116304Y345608D01*
X116403Y346108D01*
X171261D01*
X171496Y345801D01*
X172034Y345389D01*
X172660Y345129D01*
X173333Y345041D01*
X174005Y345129D01*
X174631Y345389D01*
X175169Y345801D01*
X175582Y346339D01*
X175841Y346966D01*
X175930Y347638D01*
X175841Y348310D01*
X175582Y348936D01*
X175169Y349474D01*
X174631Y349887D01*
X174005Y350146D01*
X173333Y350235D01*
X172660Y350146D01*
X172034Y349887D01*
X171496Y349474D01*
X171261Y349167D01*
X168782D01*
X168561Y349616D01*
X168627Y349701D01*
X168886Y350328D01*
X168975Y351000D01*
X168886Y351672D01*
X168627Y352298D01*
X168214Y352836D01*
X167676Y353249D01*
X167050Y353508D01*
X166378Y353597D01*
X165994Y353547D01*
X164667Y354874D01*
X164171Y355205D01*
X163586Y355322D01*
X93659D01*
X93423Y355628D01*
X92885Y356041D01*
X92259Y356301D01*
X91587Y356389D01*
X90914Y356301D01*
X90288Y356041D01*
X89750Y355628D01*
X89337Y355091D01*
X89078Y354464D01*
X88990Y353792D01*
X89078Y353120D01*
X89337Y352494D01*
X89750Y351956D01*
X90288Y351543D01*
X90914Y351284D01*
X91587Y351195D01*
X92259Y351284D01*
X92885Y351543D01*
X93423Y351956D01*
X93659Y352263D01*
X162952D01*
X163831Y351384D01*
X163781Y351000D01*
X163869Y350328D01*
X164129Y349701D01*
X164195Y349616D01*
X163974Y349167D01*
X93659D01*
X93423Y349474D01*
X92885Y349887D01*
X92259Y350146D01*
X91587Y350235D01*
X90914Y350146D01*
X90288Y349887D01*
X89750Y349474D01*
X89337Y348936D01*
X89078Y348310D01*
X88990Y347638D01*
X89078Y346966D01*
X89337Y346339D01*
X89750Y345801D01*
X90288Y345389D01*
X90807Y345174D01*
X90708Y344674D01*
X64798D01*
X64212Y344557D01*
X63716Y344226D01*
X51281Y331790D01*
X50949Y331294D01*
X50833Y330709D01*
Y279528D01*
X50949Y278942D01*
X51281Y278446D01*
X55557Y274170D01*
Y271943D01*
X55328Y271868D01*
X54850Y272210D01*
X54792Y272653D01*
X54533Y273279D01*
X54120Y273817D01*
X53582Y274230D01*
X52956Y274489D01*
X52284Y274578D01*
X51611Y274489D01*
X50985Y274230D01*
X50447Y273817D01*
X50212Y273510D01*
X41666D01*
X41081Y273394D01*
X40966Y273317D01*
D01*
X40584Y273062D01*
X34352Y266829D01*
X34020Y266333D01*
X33904Y265748D01*
Y127953D01*
X34020Y127367D01*
X34352Y126871D01*
X41832Y119391D01*
X42328Y119060D01*
X42913Y118943D01*
X45822D01*
X46057Y118636D01*
X46595Y118223D01*
X47221Y117964D01*
X47894Y117875D01*
X48566Y117964D01*
X49192Y118223D01*
X49730Y118636D01*
X50143Y119174D01*
X50402Y119800D01*
X50491Y120472D01*
X50402Y121145D01*
X50143Y121771D01*
X49730Y122309D01*
X49192Y122722D01*
X48566Y122981D01*
X47894Y123070D01*
X47221Y122981D01*
X46595Y122722D01*
X46057Y122309D01*
X45822Y122002D01*
X43547D01*
X36963Y128586D01*
Y265114D01*
X42299Y270451D01*
X49213D01*
Y263187D01*
X40651Y254625D01*
X40319Y254129D01*
X40203Y253543D01*
Y154331D01*
X40319Y153745D01*
X40651Y153249D01*
X49213Y144687D01*
Y141732D01*
X55602D01*
X55788Y141589D01*
X56414Y141330D01*
X57087Y141242D01*
X57759Y141330D01*
X58385Y141589D01*
X58571Y141732D01*
X64435D01*
Y127953D01*
X77171D01*
Y109843D01*
X120079D01*
Y110061D01*
X161388D01*
X161477Y109389D01*
X161736Y108763D01*
X162149Y108225D01*
X162456Y107989D01*
Y63495D01*
X162318Y63315D01*
X162058Y62689D01*
X161970Y62017D01*
X162058Y61344D01*
X162318Y60718D01*
X162731Y60180D01*
X163268Y59768D01*
X163895Y59508D01*
X164567Y59420D01*
X165239Y59508D01*
X165865Y59768D01*
X166403Y60180D01*
X166816Y60718D01*
X167076Y61344D01*
X167164Y62017D01*
X167076Y62689D01*
X166816Y63315D01*
X166403Y63853D01*
X165865Y64266D01*
X165515Y64411D01*
Y107989D01*
X165822Y108225D01*
X166234Y108763D01*
X166494Y109389D01*
X166582Y110061D01*
X190124D01*
X190307Y109851D01*
X190396Y109179D01*
X190655Y108553D01*
X191068Y108015D01*
X191606Y107602D01*
X192232Y107343D01*
X192904Y107254D01*
X193577Y107343D01*
X194203Y107602D01*
X194741Y108015D01*
X195154Y108553D01*
X195413Y109179D01*
X195501Y109851D01*
X195685Y110061D01*
X196850D01*
Y111634D01*
X207774Y122558D01*
X208106Y123055D01*
X208222Y123640D01*
Y154102D01*
Y271654D01*
Y273714D01*
Y377165D01*
X208106Y377751D01*
X207774Y378247D01*
X203440Y382581D01*
X202943Y382913D01*
X202358Y383029D01*
X160733D01*
X160498Y383336D01*
X159960Y383749D01*
X159334Y384009D01*
X158661Y384097D01*
D02*
G37*
G36*
X222000Y345222D02*
Y341500D01*
X225723D01*
X225642Y342110D01*
X225214Y343144D01*
X224532Y344032D01*
X223644Y344714D01*
X222610Y345142D01*
X222000Y345222D01*
D02*
G37*
G36*
X221000D02*
X220390Y345142D01*
X219356Y344714D01*
X218468Y344032D01*
X217786Y343144D01*
X217358Y342110D01*
X217278Y341500D01*
X221000D01*
Y345222D01*
D02*
G37*
G36*
X225723Y340500D02*
X222000D01*
Y336777D01*
X222610Y336858D01*
X223644Y337286D01*
X224532Y337968D01*
X225214Y338856D01*
X225642Y339890D01*
X225723Y340500D01*
D02*
G37*
G36*
X221000D02*
X217278D01*
X217358Y339890D01*
X217786Y338856D01*
X218468Y337968D01*
X219356Y337286D01*
X220390Y336858D01*
X221000Y336777D01*
Y340500D01*
D02*
G37*
G36*
X231500Y345288D02*
X230390Y345142D01*
X229356Y344714D01*
X228468Y344032D01*
X227786Y343144D01*
X227358Y342110D01*
X227212Y341000D01*
X227358Y339890D01*
X227786Y338856D01*
X228468Y337968D01*
X229356Y337286D01*
X230390Y336858D01*
X231500Y336712D01*
X232610Y336858D01*
X233644Y337286D01*
X234532Y337968D01*
X235214Y338856D01*
X235642Y339890D01*
X235788Y341000D01*
X235642Y342110D01*
X235214Y343144D01*
X234532Y344032D01*
X233644Y344714D01*
X232610Y345142D01*
X231500Y345288D01*
D02*
G37*
G36*
X121588Y338214D02*
Y335250D01*
X124552D01*
X124498Y335664D01*
X124145Y336515D01*
X123584Y337246D01*
X122853Y337807D01*
X122002Y338160D01*
X121588Y338214D01*
D02*
G37*
G36*
X120588D02*
X120174Y338160D01*
X119323Y337807D01*
X118592Y337246D01*
X118031Y336515D01*
X117678Y335664D01*
X117624Y335250D01*
X120588D01*
Y338214D01*
D02*
G37*
G36*
X222000Y335223D02*
Y331500D01*
X225723D01*
X225642Y332110D01*
X225214Y333144D01*
X224532Y334032D01*
X223644Y334714D01*
X222610Y335142D01*
X222000Y335223D01*
D02*
G37*
G36*
X221000D02*
X220390Y335142D01*
X219356Y334714D01*
X218468Y334032D01*
X217786Y333144D01*
X217358Y332110D01*
X217278Y331500D01*
X221000D01*
Y335223D01*
D02*
G37*
G36*
X124552Y334250D02*
X121588D01*
Y331286D01*
X122002Y331340D01*
X122853Y331693D01*
X123584Y332254D01*
X124145Y332985D01*
X124498Y333836D01*
X124552Y334250D01*
D02*
G37*
G36*
X120588D02*
X117624D01*
X117678Y333836D01*
X118031Y332985D01*
X118592Y332254D01*
X119323Y331693D01*
X120174Y331340D01*
X120588Y331286D01*
Y334250D01*
D02*
G37*
G36*
X225723Y330500D02*
X222000D01*
Y326778D01*
X222610Y326858D01*
X223644Y327286D01*
X224532Y327968D01*
X225214Y328856D01*
X225642Y329890D01*
X225723Y330500D01*
D02*
G37*
G36*
X221000D02*
X217278D01*
X217358Y329890D01*
X217786Y328856D01*
X218468Y327968D01*
X219356Y327286D01*
X220390Y326858D01*
X221000Y326778D01*
Y330500D01*
D02*
G37*
G36*
X231500Y335288D02*
X230390Y335142D01*
X229356Y334714D01*
X228468Y334032D01*
X227786Y333144D01*
X227358Y332110D01*
X227212Y331000D01*
X227358Y329890D01*
X227786Y328856D01*
X228468Y327968D01*
X229356Y327286D01*
X230390Y326858D01*
X231500Y326712D01*
X232610Y326858D01*
X233644Y327286D01*
X234532Y327968D01*
X235214Y328856D01*
X235642Y329890D01*
X235788Y331000D01*
X235642Y332110D01*
X235214Y333144D01*
X234532Y334032D01*
X233644Y334714D01*
X232610Y335142D01*
X231500Y335288D01*
D02*
G37*
G36*
X232000Y325222D02*
Y321500D01*
X235722D01*
X235642Y322110D01*
X235214Y323144D01*
X234532Y324032D01*
X233644Y324714D01*
X232610Y325142D01*
X232000Y325222D01*
D02*
G37*
G36*
X222000D02*
Y321500D01*
X225723D01*
X225642Y322110D01*
X225214Y323144D01*
X224532Y324032D01*
X223644Y324714D01*
X222610Y325142D01*
X222000Y325222D01*
D02*
G37*
G36*
X231000D02*
X230390Y325142D01*
X229356Y324714D01*
X228468Y324032D01*
X227786Y323144D01*
X227358Y322110D01*
X227277Y321500D01*
X231000D01*
Y325222D01*
D02*
G37*
G36*
X221000D02*
X220390Y325142D01*
X219356Y324714D01*
X218468Y324032D01*
X217786Y323144D01*
X217358Y322110D01*
X217278Y321500D01*
X221000D01*
Y325222D01*
D02*
G37*
G36*
X176665Y323397D02*
X176493Y323375D01*
X175867Y323115D01*
X175329Y322703D01*
X174916Y322165D01*
X174657Y321538D01*
X174634Y321366D01*
X176665D01*
Y323397D01*
D02*
G37*
G36*
X116177Y324897D02*
X115505Y324809D01*
X114878Y324549D01*
X114340Y324136D01*
X113928Y323599D01*
X113668Y322972D01*
X113580Y322300D01*
X113668Y321628D01*
X113928Y321002D01*
X114340Y320464D01*
X114878Y320051D01*
X115505Y319792D01*
X116177Y319703D01*
X116849Y319792D01*
X117475Y320051D01*
X118013Y320464D01*
X118249Y320771D01*
X138397D01*
X138497Y320271D01*
X138481Y320264D01*
X137943Y319851D01*
X137530Y319314D01*
X137271Y318687D01*
X137182Y318015D01*
X137271Y317343D01*
X137530Y316717D01*
X137943Y316179D01*
X138481Y315766D01*
X139107Y315507D01*
X139779Y315418D01*
X140452Y315507D01*
X141078Y315766D01*
X141616Y316179D01*
X141851Y316486D01*
X164463D01*
X164699Y316179D01*
X165237Y315766D01*
X165863Y315507D01*
X166535Y315418D01*
X167208Y315507D01*
X167834Y315766D01*
X168372Y316179D01*
X168784Y316717D01*
X169044Y317343D01*
X169132Y318015D01*
X169044Y318687D01*
X168784Y319314D01*
X168502Y319682D01*
X168490Y319697D01*
X168847Y320054D01*
X168858Y320046D01*
X169154Y319818D01*
X169780Y319559D01*
X170453Y319470D01*
X171125Y319559D01*
X171751Y319818D01*
X172289Y320231D01*
X172702Y320769D01*
X172961Y321395D01*
X173050Y322067D01*
X172961Y322739D01*
X172702Y323366D01*
X172289Y323903D01*
X171751Y324316D01*
X171125Y324576D01*
X170453Y324664D01*
X169780Y324576D01*
X169154Y324316D01*
X168616Y323903D01*
X168559Y323829D01*
X118249D01*
X118013Y324136D01*
X117475Y324549D01*
X116849Y324809D01*
X116177Y324897D01*
D02*
G37*
G36*
X176665Y320366D02*
X174634D01*
X174657Y320194D01*
X174916Y319568D01*
X175329Y319030D01*
X175867Y318617D01*
X176493Y318358D01*
X176665Y318335D01*
Y320366D01*
D02*
G37*
G36*
X235722Y320500D02*
X232000D01*
Y316777D01*
X232610Y316858D01*
X233644Y317286D01*
X234532Y317968D01*
X235214Y318856D01*
X235642Y319890D01*
X235722Y320500D01*
D02*
G37*
G36*
X225723D02*
X222000D01*
Y316777D01*
X222610Y316858D01*
X223644Y317286D01*
X224532Y317968D01*
X225214Y318856D01*
X225642Y319890D01*
X225723Y320500D01*
D02*
G37*
G36*
X231000D02*
X227277D01*
X227358Y319890D01*
X227786Y318856D01*
X228468Y317968D01*
X229356Y317286D01*
X230390Y316858D01*
X231000Y316777D01*
Y320500D01*
D02*
G37*
G36*
X221000D02*
X217278D01*
X217358Y319890D01*
X217786Y318856D01*
X218468Y317968D01*
X219356Y317286D01*
X220390Y316858D01*
X221000Y316777D01*
Y320500D01*
D02*
G37*
G36*
X232000Y315223D02*
Y311500D01*
X235722D01*
X235642Y312110D01*
X235214Y313144D01*
X234532Y314032D01*
X233644Y314714D01*
X232610Y315142D01*
X232000Y315223D01*
D02*
G37*
G36*
X222000D02*
Y311500D01*
X225723D01*
X225642Y312110D01*
X225214Y313144D01*
X224532Y314032D01*
X223644Y314714D01*
X222610Y315142D01*
X222000Y315223D01*
D02*
G37*
G36*
X231000D02*
X230390Y315142D01*
X229356Y314714D01*
X228468Y314032D01*
X227786Y313144D01*
X227358Y312110D01*
X227277Y311500D01*
X231000D01*
Y315223D01*
D02*
G37*
G36*
X221000D02*
X220390Y315142D01*
X219356Y314714D01*
X218468Y314032D01*
X217786Y313144D01*
X217358Y312110D01*
X217278Y311500D01*
X221000D01*
Y315223D01*
D02*
G37*
G36*
X160630Y310865D02*
X159958Y310776D01*
X159331Y310517D01*
X158794Y310104D01*
X158558Y309797D01*
X154434D01*
X154199Y310104D01*
X153661Y310517D01*
X153034Y310776D01*
X152362Y310865D01*
X151690Y310776D01*
X151064Y310517D01*
X150526Y310104D01*
X150113Y309566D01*
X149854Y308940D01*
X149765Y308268D01*
X149854Y307596D01*
X150113Y306969D01*
X150526Y306431D01*
X151064Y306019D01*
X151690Y305759D01*
X152362Y305671D01*
X153034Y305759D01*
X153661Y306019D01*
X154199Y306431D01*
X154434Y306738D01*
X158558D01*
X158794Y306431D01*
X159331Y306019D01*
X159958Y305759D01*
X160630Y305671D01*
X161302Y305759D01*
X161928Y306019D01*
X162466Y306431D01*
X162879Y306969D01*
X163138Y307596D01*
X163227Y308268D01*
X163138Y308940D01*
X162879Y309566D01*
X162466Y310104D01*
X161928Y310517D01*
X161302Y310776D01*
X160630Y310865D01*
D02*
G37*
G36*
X146457D02*
X145784Y310776D01*
X145158Y310517D01*
X144620Y310104D01*
X144385Y309797D01*
X132281D01*
X132045Y310104D01*
X131507Y310517D01*
X130881Y310776D01*
X130209Y310865D01*
X129536Y310776D01*
X128910Y310517D01*
X128372Y310104D01*
X127960Y309566D01*
X127700Y308940D01*
X127612Y308268D01*
X127700Y307596D01*
X127960Y306969D01*
X128372Y306431D01*
X128910Y306019D01*
X129536Y305759D01*
X130209Y305671D01*
X130881Y305759D01*
X131507Y306019D01*
X132045Y306431D01*
X132281Y306738D01*
X144385D01*
X144620Y306431D01*
X145158Y306019D01*
X145784Y305759D01*
X146457Y305671D01*
X147129Y305759D01*
X147755Y306019D01*
X148293Y306431D01*
X148706Y306969D01*
X148965Y307596D01*
X149054Y308268D01*
X148965Y308940D01*
X148706Y309566D01*
X148293Y310104D01*
X147755Y310517D01*
X147129Y310776D01*
X146457Y310865D01*
D02*
G37*
G36*
X235722Y310500D02*
X232000D01*
Y306778D01*
X232610Y306858D01*
X233644Y307286D01*
X234532Y307968D01*
X235214Y308856D01*
X235642Y309890D01*
X235722Y310500D01*
D02*
G37*
G36*
X225723D02*
X222000D01*
Y306778D01*
X222610Y306858D01*
X223644Y307286D01*
X224532Y307968D01*
X225214Y308856D01*
X225642Y309890D01*
X225723Y310500D01*
D02*
G37*
G36*
X231000D02*
X227277D01*
X227358Y309890D01*
X227786Y308856D01*
X228468Y307968D01*
X229356Y307286D01*
X230390Y306858D01*
X231000Y306778D01*
Y310500D01*
D02*
G37*
G36*
X221000D02*
X217278D01*
X217358Y309890D01*
X217786Y308856D01*
X218468Y307968D01*
X219356Y307286D01*
X220390Y306858D01*
X221000Y306778D01*
Y310500D01*
D02*
G37*
G36*
X90331Y303843D02*
X86878D01*
Y300390D01*
X90331D01*
Y303843D01*
D02*
G37*
G36*
X85878D02*
X82425D01*
Y300390D01*
X85878D01*
Y303843D01*
D02*
G37*
G36*
X70185Y303685D02*
Y300264D01*
X73606D01*
X73536Y300796D01*
X73138Y301757D01*
X72504Y302583D01*
X71679Y303217D01*
X70717Y303615D01*
X70185Y303685D01*
D02*
G37*
G36*
X69185Y303685D02*
X68653Y303615D01*
X67692Y303217D01*
X66866Y302583D01*
X66232Y301757D01*
X65834Y300796D01*
X65764Y300264D01*
X69185D01*
Y303685D01*
D02*
G37*
G36*
X235752Y305252D02*
X227248D01*
Y296748D01*
X235752D01*
Y305252D01*
D02*
G37*
G36*
X221500Y305288D02*
X220390Y305142D01*
X219356Y304714D01*
X218468Y304032D01*
X217786Y303144D01*
X217358Y302110D01*
X217212Y301000D01*
X217358Y299890D01*
X217786Y298856D01*
X218468Y297968D01*
X219356Y297286D01*
X220390Y296858D01*
X221500Y296712D01*
X222610Y296858D01*
X223644Y297286D01*
X224532Y297968D01*
X225214Y298856D01*
X225642Y299890D01*
X225788Y301000D01*
X225642Y302110D01*
X225214Y303144D01*
X224532Y304032D01*
X223644Y304714D01*
X222610Y305142D01*
X221500Y305288D01*
D02*
G37*
G36*
X90331Y299390D02*
X86878D01*
Y295937D01*
X90331D01*
Y299390D01*
D02*
G37*
G36*
X85878D02*
X82425D01*
Y295937D01*
X85878D01*
Y299390D01*
D02*
G37*
G36*
X176378Y303877D02*
X175346Y303741D01*
X174384Y303343D01*
X173559Y302709D01*
X172925Y301884D01*
X172527Y300922D01*
X172391Y299890D01*
X172527Y298858D01*
X172925Y297897D01*
X173559Y297071D01*
X174384Y296437D01*
X175346Y296039D01*
X176378Y295903D01*
X177410Y296039D01*
X178371Y296437D01*
X179197Y297071D01*
X179831Y297897D01*
X180229Y298858D01*
X180365Y299890D01*
X180229Y300922D01*
X179831Y301884D01*
X179197Y302709D01*
X178371Y303343D01*
X177410Y303741D01*
X176378Y303877D01*
D02*
G37*
G36*
X166378D02*
X165346Y303741D01*
X164384Y303343D01*
X163559Y302709D01*
X162925Y301884D01*
X162527Y300922D01*
X162391Y299890D01*
X162527Y298858D01*
X162925Y297897D01*
X163559Y297071D01*
X164384Y296437D01*
X165346Y296039D01*
X166378Y295903D01*
X167410Y296039D01*
X168371Y296437D01*
X169197Y297071D01*
X169831Y297897D01*
X170229Y298858D01*
X170365Y299890D01*
X170229Y300922D01*
X169831Y301884D01*
X169197Y302709D01*
X168371Y303343D01*
X167410Y303741D01*
X166378Y303877D01*
D02*
G37*
G36*
X156378D02*
X155346Y303741D01*
X154385Y303343D01*
X153559Y302709D01*
X152925Y301884D01*
X152527Y300922D01*
X152391Y299890D01*
X152527Y298858D01*
X152925Y297897D01*
X153559Y297071D01*
X154385Y296437D01*
X155346Y296039D01*
X156378Y295903D01*
X157410Y296039D01*
X158371Y296437D01*
X159197Y297071D01*
X159831Y297897D01*
X160229Y298858D01*
X160365Y299890D01*
X160229Y300922D01*
X159831Y301884D01*
X159197Y302709D01*
X158371Y303343D01*
X157410Y303741D01*
X156378Y303877D01*
D02*
G37*
G36*
X146378D02*
X145346Y303741D01*
X144385Y303343D01*
X143559Y302709D01*
X142925Y301884D01*
X142527Y300922D01*
X142391Y299890D01*
X142527Y298858D01*
X142925Y297897D01*
X143559Y297071D01*
X144385Y296437D01*
X145346Y296039D01*
X146378Y295903D01*
X147410Y296039D01*
X148371Y296437D01*
X149197Y297071D01*
X149831Y297897D01*
X150229Y298858D01*
X150365Y299890D01*
X150229Y300922D01*
X149831Y301884D01*
X149197Y302709D01*
X148371Y303343D01*
X147410Y303741D01*
X146378Y303877D01*
D02*
G37*
G36*
X136378D02*
X135346Y303741D01*
X134385Y303343D01*
X133559Y302709D01*
X132925Y301884D01*
X132527Y300922D01*
X132391Y299890D01*
X132527Y298858D01*
X132925Y297897D01*
X133559Y297071D01*
X134385Y296437D01*
X135346Y296039D01*
X136378Y295903D01*
X137410Y296039D01*
X138371Y296437D01*
X139197Y297071D01*
X139831Y297897D01*
X140229Y298858D01*
X140365Y299890D01*
X140229Y300922D01*
X139831Y301884D01*
X139197Y302709D01*
X138371Y303343D01*
X137410Y303741D01*
X136378Y303877D01*
D02*
G37*
G36*
X126378D02*
X125346Y303741D01*
X124384Y303343D01*
X123559Y302709D01*
X122925Y301884D01*
X122527Y300922D01*
X122391Y299890D01*
X122527Y298858D01*
X122925Y297897D01*
X123559Y297071D01*
X124384Y296437D01*
X125346Y296039D01*
X126378Y295903D01*
X127410Y296039D01*
X128371Y296437D01*
X129197Y297071D01*
X129831Y297897D01*
X130229Y298858D01*
X130365Y299890D01*
X130229Y300922D01*
X129831Y301884D01*
X129197Y302709D01*
X128371Y303343D01*
X127410Y303741D01*
X126378Y303877D01*
D02*
G37*
G36*
X116378D02*
X115346Y303741D01*
X114384Y303343D01*
X113559Y302709D01*
X112925Y301884D01*
X112527Y300922D01*
X112391Y299890D01*
X112527Y298858D01*
X112925Y297897D01*
X113559Y297071D01*
X114384Y296437D01*
X115346Y296039D01*
X116378Y295903D01*
X117410Y296039D01*
X118371Y296437D01*
X119197Y297071D01*
X119831Y297897D01*
X120229Y298858D01*
X120365Y299890D01*
X120229Y300922D01*
X119831Y301884D01*
X119197Y302709D01*
X118371Y303343D01*
X117410Y303741D01*
X116378Y303877D01*
D02*
G37*
G36*
X106378D02*
X105346Y303741D01*
X104385Y303343D01*
X103559Y302709D01*
X102925Y301884D01*
X102527Y300922D01*
X102391Y299890D01*
X102527Y298858D01*
X102925Y297897D01*
X103559Y297071D01*
X104385Y296437D01*
X105346Y296039D01*
X106378Y295903D01*
X107410Y296039D01*
X108371Y296437D01*
X109197Y297071D01*
X109831Y297897D01*
X110229Y298858D01*
X110365Y299890D01*
X110229Y300922D01*
X109831Y301884D01*
X109197Y302709D01*
X108371Y303343D01*
X107410Y303741D01*
X106378Y303877D01*
D02*
G37*
G36*
X96378D02*
X95346Y303741D01*
X94384Y303343D01*
X93559Y302709D01*
X92925Y301884D01*
X92527Y300922D01*
X92391Y299890D01*
X92527Y298858D01*
X92925Y297897D01*
X93559Y297071D01*
X94384Y296437D01*
X95346Y296039D01*
X96378Y295903D01*
X97410Y296039D01*
X98371Y296437D01*
X99197Y297071D01*
X99831Y297897D01*
X100229Y298858D01*
X100365Y299890D01*
X100229Y300922D01*
X99831Y301884D01*
X99197Y302709D01*
X98371Y303343D01*
X97410Y303741D01*
X96378Y303877D01*
D02*
G37*
G36*
X69185Y299264D02*
X65764D01*
X65834Y298732D01*
X66232Y297770D01*
X66866Y296945D01*
X67692Y296311D01*
X68653Y295913D01*
X69185Y295843D01*
Y299264D01*
D02*
G37*
G36*
X73606D02*
X70185D01*
Y295843D01*
X70717Y295913D01*
X71679Y296311D01*
X72504Y296945D01*
X73138Y297770D01*
X73536Y298732D01*
X73606Y299264D01*
D02*
G37*
G36*
X73638Y293717D02*
X65732D01*
Y285811D01*
X73638D01*
Y293717D01*
D02*
G37*
G36*
X6799Y280236D02*
Y277272D01*
X9764D01*
X9709Y277685D01*
X9356Y278537D01*
X8795Y279268D01*
X8064Y279829D01*
X7213Y280182D01*
X6799Y280236D01*
D02*
G37*
G36*
X5799D02*
X5385Y280182D01*
X4534Y279829D01*
X3803Y279268D01*
X3242Y278537D01*
X2889Y277685D01*
X2835Y277272D01*
X5799D01*
Y280236D01*
D02*
G37*
G36*
X9764Y276272D02*
X6799D01*
Y273307D01*
X7213Y273362D01*
X8064Y273714D01*
X8198Y273817D01*
X8795Y274275D01*
X9356Y275007D01*
X9709Y275858D01*
X9764Y276272D01*
D02*
G37*
G36*
X5799D02*
X2835D01*
X2889Y275858D01*
X3242Y275007D01*
X3803Y274275D01*
X4400Y273817D01*
X4534Y273714D01*
X5385Y273362D01*
X5799Y273307D01*
Y276272D01*
D02*
G37*
G36*
X222500Y259905D02*
X221674Y259797D01*
X220904Y259477D01*
X220243Y258970D01*
X219735Y258309D01*
X219416Y257539D01*
X219307Y256713D01*
X219416Y255886D01*
X219735Y255116D01*
X220243Y254455D01*
X220904Y253948D01*
X221674Y253629D01*
X222500Y253520D01*
X223326Y253629D01*
X224096Y253948D01*
X224758Y254455D01*
X225265Y255116D01*
X225584Y255886D01*
X225693Y256713D01*
X225584Y257539D01*
X225265Y258309D01*
X224758Y258970D01*
X224096Y259477D01*
X223326Y259797D01*
X222500Y259905D01*
D02*
G37*
G36*
X24075Y258330D02*
X23248Y258222D01*
X22479Y257903D01*
X21817Y257395D01*
X21310Y256734D01*
X20991Y255964D01*
X20882Y255138D01*
X20991Y254311D01*
X21310Y253541D01*
X21817Y252880D01*
X22479Y252373D01*
X23248Y252054D01*
X24075Y251945D01*
X24901Y252054D01*
X25671Y252373D01*
X26332Y252880D01*
X26840Y253541D01*
X27159Y254311D01*
X27268Y255138D01*
X27159Y255964D01*
X26840Y256734D01*
X26332Y257395D01*
X25671Y257903D01*
X24901Y258222D01*
X24075Y258330D01*
D02*
G37*
G36*
X222500Y251829D02*
X221828Y251741D01*
X221201Y251481D01*
X220664Y251069D01*
X220428Y250762D01*
X216949D01*
X216364Y250645D01*
X215867Y250314D01*
X210730Y245176D01*
X210398Y244680D01*
X210282Y244094D01*
Y154102D01*
Y119925D01*
X181989Y91633D01*
X181658Y91136D01*
X181542Y90551D01*
Y88686D01*
X181235Y88450D01*
X180822Y87913D01*
X180562Y87286D01*
X180474Y86614D01*
X180562Y85942D01*
X180822Y85316D01*
X181235Y84778D01*
X181772Y84365D01*
X182399Y84106D01*
X183071Y84017D01*
X183743Y84106D01*
X184369Y84365D01*
X184907Y84778D01*
X185320Y85316D01*
X185579Y85942D01*
X185668Y86614D01*
X185579Y87286D01*
X185320Y87913D01*
X184907Y88450D01*
X184600Y88686D01*
Y89918D01*
X212893Y118210D01*
X213224Y118706D01*
X213340Y119291D01*
Y154102D01*
Y243461D01*
X217582Y247703D01*
X220428D01*
X220664Y247396D01*
X221201Y246983D01*
X221828Y246724D01*
X222500Y246635D01*
X223172Y246724D01*
X223798Y246983D01*
X224336Y247396D01*
X224749Y247934D01*
X225009Y248560D01*
X225097Y249232D01*
X225009Y249904D01*
X224749Y250531D01*
X224336Y251069D01*
X223798Y251481D01*
X223172Y251741D01*
X222500Y251829D01*
D02*
G37*
G36*
X231496Y280302D02*
X230582Y280182D01*
X229731Y279829D01*
X229000Y279268D01*
X228439Y278537D01*
X228086Y277685D01*
X227966Y276772D01*
X228086Y275858D01*
X228439Y275007D01*
X229000Y274275D01*
X229274Y274065D01*
X229276Y274063D01*
Y245157D01*
X228497D01*
X228464Y245182D01*
X227837Y245442D01*
X227165Y245530D01*
X226493Y245442D01*
X225867Y245182D01*
X225329Y244770D01*
X224916Y244232D01*
X224657Y243605D01*
X224568Y242933D01*
X224657Y242261D01*
X224916Y241635D01*
X225329Y241097D01*
X225867Y240684D01*
X226493Y240425D01*
X227165Y240336D01*
X227837Y240425D01*
X228464Y240684D01*
X228497Y240709D01*
X229276D01*
X229276Y167279D01*
X227709D01*
X227677Y167304D01*
X227050Y167564D01*
X226378Y167652D01*
X225706Y167564D01*
X225079Y167304D01*
X224542Y166892D01*
X224129Y166354D01*
X223869Y165727D01*
X223781Y165055D01*
X223869Y164383D01*
X224129Y163757D01*
X224542Y163219D01*
X225079Y162806D01*
X225706Y162547D01*
X226378Y162458D01*
X227050Y162547D01*
X227677Y162806D01*
X227709Y162831D01*
X229276D01*
Y154102D01*
Y152106D01*
X217719Y140549D01*
X217237Y139827D01*
X217068Y138976D01*
X217068Y138976D01*
Y105461D01*
X216795Y105252D01*
X216234Y104521D01*
X215881Y103670D01*
X215761Y102756D01*
X215881Y101842D01*
X216234Y100991D01*
X216795Y100260D01*
X217526Y99699D01*
X218378Y99346D01*
X219291Y99226D01*
X220205Y99346D01*
X221056Y99699D01*
X221788Y100260D01*
X222349Y100991D01*
X222701Y101842D01*
X222821Y102756D01*
X222701Y103670D01*
X222349Y104521D01*
X221788Y105252D01*
X221515Y105461D01*
Y138055D01*
X233072Y149612D01*
X233072Y149613D01*
X233555Y150334D01*
X233724Y151185D01*
Y154102D01*
Y165055D01*
X233724Y242933D01*
Y271654D01*
Y273711D01*
Y274069D01*
X233992Y274275D01*
X234553Y275007D01*
X234906Y275858D01*
X235026Y276772D01*
X234906Y277685D01*
X234553Y278537D01*
X233992Y279268D01*
X233261Y279829D01*
X232410Y280182D01*
X231496Y280302D01*
D02*
G37*
G36*
X24075Y164048D02*
X22991Y163905D01*
X21982Y163487D01*
X21115Y162822D01*
X20450Y161955D01*
X20032Y160945D01*
X19889Y159862D01*
X20032Y158779D01*
X20450Y157770D01*
X21115Y156903D01*
X21982Y156237D01*
X22991Y155819D01*
X24075Y155677D01*
X25158Y155819D01*
X26168Y156237D01*
X27034Y156903D01*
X27700Y157770D01*
X28118Y158779D01*
X28260Y159862D01*
X28118Y160945D01*
X27700Y161955D01*
X27034Y162822D01*
X26168Y163487D01*
X25158Y163905D01*
X24075Y164048D01*
D02*
G37*
G36*
X222500Y162473D02*
X221417Y162330D01*
X220407Y161912D01*
X219541Y161247D01*
X218875Y160380D01*
X218457Y159371D01*
X218315Y158287D01*
X218457Y157204D01*
X218875Y156195D01*
X219399Y155512D01*
X219541Y155328D01*
X220407Y154663D01*
X221417Y154245D01*
X222500Y154102D01*
X223583Y154245D01*
X224593Y154663D01*
X225460Y155328D01*
X225601Y155512D01*
X226125Y156195D01*
X226543Y157204D01*
X226685Y158287D01*
X226543Y159371D01*
X226125Y160380D01*
X225460Y161247D01*
X224593Y161912D01*
X223583Y162330D01*
X222500Y162473D01*
D02*
G37*
G36*
X11130Y147311D02*
Y144346D01*
X14094D01*
X14040Y144760D01*
X13687Y145612D01*
X13126Y146343D01*
X12395Y146904D01*
X11544Y147256D01*
X11130Y147311D01*
D02*
G37*
G36*
X10130D02*
X9716Y147256D01*
X8865Y146904D01*
X8134Y146343D01*
X7573Y145612D01*
X7220Y144760D01*
X7166Y144346D01*
X10130D01*
Y147311D01*
D02*
G37*
G36*
X14094Y143347D02*
X11130D01*
Y140382D01*
X11544Y140437D01*
X12395Y140789D01*
X13126Y141350D01*
X13687Y142081D01*
X14040Y142933D01*
X14094Y143347D01*
D02*
G37*
G36*
X10130D02*
X7166D01*
X7220Y142933D01*
X7573Y142081D01*
X8134Y141350D01*
X8865Y140789D01*
X9716Y140437D01*
X10130Y140382D01*
Y143347D01*
D02*
G37*
G36*
X53851Y140445D02*
Y137480D01*
X56816D01*
X56761Y137894D01*
X56409Y138745D01*
X55848Y139477D01*
X55116Y140038D01*
X54265Y140390D01*
X53851Y140445D01*
D02*
G37*
G36*
X52851D02*
X52438Y140390D01*
X51586Y140038D01*
X50855Y139477D01*
X50294Y138745D01*
X49941Y137894D01*
X49887Y137480D01*
X52851D01*
Y140445D01*
D02*
G37*
G36*
X56816Y136480D02*
X53851D01*
Y133516D01*
X54265Y133570D01*
X55116Y133923D01*
X55848Y134484D01*
X56409Y135215D01*
X56761Y136067D01*
X56816Y136480D01*
D02*
G37*
G36*
X52851D02*
X49887D01*
X49941Y136067D01*
X50294Y135215D01*
X50855Y134484D01*
X51586Y133923D01*
X52438Y133570D01*
X52851Y133516D01*
Y136480D01*
D02*
G37*
G36*
X71655Y118375D02*
Y115411D01*
X74619D01*
X74565Y115824D01*
X74212Y116676D01*
X73651Y117407D01*
X72920Y117968D01*
X72069Y118321D01*
X71655Y118375D01*
D02*
G37*
G36*
X70655D02*
X70241Y118321D01*
X69390Y117968D01*
X68659Y117407D01*
X68098Y116676D01*
X67745Y115824D01*
X67691Y115411D01*
X70655D01*
Y118375D01*
D02*
G37*
G36*
X74619Y114411D02*
X71655D01*
Y111446D01*
X72069Y111501D01*
X72920Y111853D01*
X73651Y112414D01*
X74212Y113146D01*
X74565Y113997D01*
X74619Y114411D01*
D02*
G37*
G36*
X70655D02*
X67691D01*
X67745Y113997D01*
X68098Y113146D01*
X68659Y112414D01*
X69390Y111853D01*
X70241Y111501D01*
X70655Y111446D01*
Y114411D01*
D02*
G37*
G36*
X234145Y106220D02*
Y103256D01*
X237109D01*
X237055Y103670D01*
X236702Y104521D01*
X236141Y105252D01*
X235410Y105813D01*
X234559Y106166D01*
X234145Y106220D01*
D02*
G37*
G36*
X233145D02*
X232731Y106166D01*
X231880Y105813D01*
X231149Y105252D01*
X230588Y104521D01*
X230235Y103670D01*
X230181Y103256D01*
X233145D01*
Y106220D01*
D02*
G37*
G36*
X206158D02*
Y103256D01*
X209122D01*
X209068Y103670D01*
X208715Y104521D01*
X208154Y105252D01*
X207423Y105813D01*
X206572Y106166D01*
X206158Y106220D01*
D02*
G37*
G36*
X205158D02*
X204744Y106166D01*
X203893Y105813D01*
X203162Y105252D01*
X202601Y104521D01*
X202248Y103670D01*
X202194Y103256D01*
X205158D01*
Y106220D01*
D02*
G37*
G36*
X237109Y102256D02*
X234145D01*
Y99291D01*
X234559Y99346D01*
X235410Y99699D01*
X236141Y100260D01*
X236702Y100991D01*
X237055Y101842D01*
X237109Y102256D01*
D02*
G37*
G36*
X233145D02*
X230181D01*
X230235Y101842D01*
X230588Y100991D01*
X231149Y100260D01*
X231880Y99699D01*
X232731Y99346D01*
X233145Y99291D01*
Y102256D01*
D02*
G37*
G36*
X209122D02*
X206158D01*
Y99291D01*
X206572Y99346D01*
X207423Y99699D01*
X208154Y100260D01*
X208715Y100991D01*
X209068Y101842D01*
X209122Y102256D01*
D02*
G37*
G36*
X205158D02*
X202194D01*
X202248Y101842D01*
X202601Y100991D01*
X203162Y100260D01*
X203893Y99699D01*
X204744Y99346D01*
X205158Y99291D01*
Y102256D01*
D02*
G37*
G36*
X155512Y100628D02*
X154840Y100540D01*
X154213Y100281D01*
X153675Y99868D01*
X153440Y99561D01*
X148425D01*
X147840Y99445D01*
X147344Y99113D01*
X131989Y83759D01*
X131658Y83262D01*
X131542Y82677D01*
Y57584D01*
X131235Y57348D01*
X130822Y56810D01*
X130562Y56184D01*
X130474Y55512D01*
X130562Y54840D01*
X130822Y54213D01*
X131235Y53675D01*
X131772Y53263D01*
X132399Y53003D01*
X133071Y52915D01*
X133743Y53003D01*
X134369Y53263D01*
X134907Y53675D01*
X135320Y54213D01*
X135579Y54840D01*
X135668Y55512D01*
X135579Y56184D01*
X135320Y56810D01*
X134907Y57348D01*
X134600Y57584D01*
Y82044D01*
X149059Y96502D01*
X153440D01*
X153675Y96195D01*
X154213Y95782D01*
X154840Y95523D01*
X155512Y95434D01*
X156184Y95523D01*
X156810Y95782D01*
X157348Y96195D01*
X157761Y96733D01*
X158020Y97359D01*
X158109Y98032D01*
X158020Y98704D01*
X157761Y99330D01*
X157348Y99868D01*
X156810Y100281D01*
X156184Y100540D01*
X155512Y100628D01*
D02*
G37*
G36*
X63098Y87964D02*
Y85933D01*
X65130D01*
X65107Y86105D01*
X64847Y86732D01*
X64435Y87269D01*
X63897Y87682D01*
X63271Y87942D01*
X63098Y87964D01*
D02*
G37*
G36*
X62098D02*
X61926Y87942D01*
X61300Y87682D01*
X60762Y87269D01*
X60349Y86732D01*
X60090Y86105D01*
X60067Y85933D01*
X62098D01*
Y87964D01*
D02*
G37*
G36*
X65130Y84933D02*
X63098D01*
Y82902D01*
X63271Y82924D01*
X63897Y83184D01*
X64435Y83597D01*
X64847Y84135D01*
X65107Y84761D01*
X65130Y84933D01*
D02*
G37*
G36*
X62098D02*
X60067D01*
X60090Y84761D01*
X60349Y84135D01*
X60762Y83597D01*
X61300Y83184D01*
X61926Y82924D01*
X62098Y82902D01*
Y84933D01*
D02*
G37*
G36*
X173728Y82452D02*
Y80421D01*
X175759D01*
X175737Y80593D01*
X175477Y81220D01*
X175065Y81758D01*
X174527Y82170D01*
X173900Y82430D01*
X173728Y82452D01*
D02*
G37*
G36*
X172728D02*
X172556Y82430D01*
X171930Y82170D01*
X171392Y81758D01*
X170979Y81220D01*
X170720Y80593D01*
X170697Y80421D01*
X172728D01*
Y82452D01*
D02*
G37*
G36*
X175759Y79421D02*
X173728D01*
Y77390D01*
X173900Y77413D01*
X174527Y77672D01*
X175065Y78085D01*
X175477Y78623D01*
X175737Y79249D01*
X175759Y79421D01*
D02*
G37*
G36*
X172728D02*
X170697D01*
X170720Y79249D01*
X170979Y78623D01*
X171392Y78085D01*
X171930Y77672D01*
X172556Y77413D01*
X172728Y77390D01*
Y79421D01*
D02*
G37*
G36*
X209791Y77317D02*
Y74353D01*
X212756D01*
X212701Y74766D01*
X212349Y75618D01*
X211788Y76349D01*
X211056Y76910D01*
X210205Y77262D01*
X209791Y77317D01*
D02*
G37*
G36*
X208791D02*
X208378Y77262D01*
X207526Y76910D01*
X206795Y76349D01*
X206234Y75618D01*
X205881Y74766D01*
X205827Y74353D01*
X208791D01*
Y77317D01*
D02*
G37*
G36*
X212756Y73352D02*
X209791D01*
Y70388D01*
X210205Y70443D01*
X211056Y70795D01*
X211788Y71356D01*
X212349Y72087D01*
X212701Y72939D01*
X212756Y73352D01*
D02*
G37*
G36*
X208791D02*
X205827D01*
X205881Y72939D01*
X206234Y72087D01*
X206795Y71356D01*
X207526Y70795D01*
X208378Y70443D01*
X208791Y70388D01*
Y73352D01*
D02*
G37*
G36*
X86614Y95117D02*
X85942Y95028D01*
X85316Y94769D01*
X84778Y94356D01*
X84365Y93818D01*
X84106Y93192D01*
X84017Y92520D01*
X84106Y91847D01*
X84365Y91221D01*
X84778Y90683D01*
X85316Y90271D01*
X85942Y90011D01*
X86614Y89923D01*
X87286Y90011D01*
X87913Y90271D01*
X88450Y90683D01*
X88686Y90990D01*
X109603D01*
X118549Y82044D01*
Y72151D01*
X118242Y71915D01*
X117830Y71377D01*
X117570Y70751D01*
X117482Y70079D01*
X117570Y69407D01*
X117830Y68780D01*
X118242Y68242D01*
X118780Y67830D01*
X119407Y67570D01*
X120079Y67482D01*
X120751Y67570D01*
X121377Y67830D01*
X121915Y68242D01*
X122328Y68780D01*
X122587Y69407D01*
X122676Y70079D01*
X122587Y70751D01*
X122328Y71377D01*
X121915Y71915D01*
X121608Y72151D01*
Y82677D01*
X121492Y83262D01*
X121160Y83759D01*
X120079Y84840D01*
X111318Y93601D01*
X110821Y93933D01*
X110236Y94049D01*
X88686D01*
X88450Y94356D01*
X87913Y94769D01*
X87286Y95028D01*
X86614Y95117D01*
D02*
G37*
G36*
X98920Y69263D02*
Y67232D01*
X100951D01*
X100928Y67404D01*
X100669Y68031D01*
X100256Y68569D01*
X99718Y68981D01*
X99092Y69241D01*
X98920Y69263D01*
D02*
G37*
G36*
X97920D02*
X97748Y69241D01*
X97121Y68981D01*
X96583Y68569D01*
X96171Y68031D01*
X95911Y67404D01*
X95889Y67232D01*
X97920D01*
Y69263D01*
D02*
G37*
G36*
X4437Y67492D02*
Y65461D01*
X6468D01*
X6446Y65633D01*
X6186Y66259D01*
X5773Y66797D01*
X5235Y67210D01*
X4609Y67469D01*
X4437Y67492D01*
D02*
G37*
G36*
X228552Y64614D02*
X227880Y64525D01*
X227254Y64266D01*
X227221Y64240D01*
X225197D01*
X225197Y64240D01*
X224346Y64071D01*
X223624Y63589D01*
X223624Y63589D01*
X222089Y62054D01*
X221607Y61332D01*
X221438Y60481D01*
X221438Y60481D01*
Y39694D01*
X220801D01*
X220801Y39694D01*
X219950Y39525D01*
X219229Y39043D01*
X212417Y32232D01*
X211914D01*
X211881Y32257D01*
X211255Y32516D01*
X210583Y32605D01*
X209910Y32516D01*
X209284Y32257D01*
X208746Y31844D01*
X208334Y31306D01*
X208074Y30680D01*
X207986Y30008D01*
X208074Y29336D01*
X208334Y28709D01*
X208746Y28172D01*
X209284Y27759D01*
X209910Y27499D01*
X210583Y27411D01*
X211255Y27499D01*
X211881Y27759D01*
X211914Y27784D01*
X213338D01*
X213339Y27784D01*
X214190Y27953D01*
X214911Y28435D01*
X221722Y35247D01*
X223250D01*
X223529Y35302D01*
X223661Y35285D01*
X224334Y35373D01*
X224960Y35633D01*
X225498Y36046D01*
X225910Y36583D01*
X226170Y37210D01*
X226258Y37882D01*
X226170Y38554D01*
X225910Y39180D01*
X225885Y39213D01*
Y59560D01*
X226118Y59793D01*
X227221D01*
X227254Y59768D01*
X227880Y59508D01*
X228552Y59420D01*
X229224Y59508D01*
X229851Y59768D01*
X230388Y60180D01*
X230801Y60718D01*
X231061Y61344D01*
X231149Y62017D01*
X231061Y62689D01*
X230801Y63315D01*
X230388Y63853D01*
X229851Y64266D01*
X229224Y64525D01*
X228552Y64614D01*
D02*
G37*
G36*
X100951Y66232D02*
X98920D01*
Y64201D01*
X99092Y64224D01*
X99718Y64483D01*
X100256Y64896D01*
X100669Y65434D01*
X100928Y66060D01*
X100951Y66232D01*
D02*
G37*
G36*
X97920D02*
X95889D01*
X95911Y66060D01*
X96171Y65434D01*
X96583Y64896D01*
X97121Y64483D01*
X97748Y64224D01*
X97920Y64201D01*
Y66232D01*
D02*
G37*
G36*
X6468Y64461D02*
X4437D01*
Y62429D01*
X4609Y62452D01*
X5235Y62712D01*
X5773Y63124D01*
X6186Y63662D01*
X6446Y64289D01*
X6468Y64461D01*
D02*
G37*
G36*
X208878Y62634D02*
Y60602D01*
X210909D01*
X210887Y60774D01*
X210627Y61401D01*
X210214Y61939D01*
X209677Y62352D01*
X209050Y62611D01*
X208878Y62634D01*
D02*
G37*
G36*
X207878D02*
X207706Y62611D01*
X207079Y62352D01*
X206542Y61939D01*
X206129Y61401D01*
X205869Y60774D01*
X205847Y60602D01*
X207878D01*
Y62634D01*
D02*
G37*
G36*
X210909Y59602D02*
X208878D01*
Y57571D01*
X209050Y57594D01*
X209677Y57853D01*
X210214Y58266D01*
X210627Y58804D01*
X210887Y59430D01*
X210909Y59602D01*
D02*
G37*
G36*
X207878D02*
X205847D01*
X205869Y59430D01*
X206129Y58804D01*
X206542Y58266D01*
X207079Y57853D01*
X207706Y57594D01*
X207878Y57571D01*
Y59602D01*
D02*
G37*
G36*
X212158Y67671D02*
X191732D01*
X191147Y67555D01*
X190651Y67223D01*
X172147Y48719D01*
X171815Y48223D01*
X171699Y47638D01*
Y36017D01*
X171392Y35781D01*
X170979Y35243D01*
X170720Y34617D01*
X170631Y33945D01*
X170720Y33273D01*
X170979Y32646D01*
X171392Y32109D01*
X171406Y32098D01*
Y21654D01*
X171406Y21654D01*
X171545Y20956D01*
X171940Y20365D01*
X174652Y17652D01*
X174652Y17652D01*
X175243Y17257D01*
X175941Y17119D01*
X175941Y17119D01*
X178862D01*
X178872Y17105D01*
X179410Y16692D01*
X180036Y16432D01*
X180709Y16344D01*
X181381Y16432D01*
X182007Y16692D01*
X182545Y17105D01*
X182958Y17642D01*
X183217Y18269D01*
X183306Y18941D01*
X183217Y19613D01*
X182958Y20239D01*
X182545Y20777D01*
X182007Y21190D01*
X181381Y21450D01*
X180709Y21538D01*
X180036Y21450D01*
X179410Y21190D01*
X178872Y20777D01*
X178862Y20763D01*
X176696D01*
X175051Y22408D01*
Y32098D01*
X175065Y32109D01*
X175477Y32646D01*
X175737Y33273D01*
X175825Y33945D01*
X175737Y34617D01*
X175477Y35243D01*
X175065Y35781D01*
X174758Y36017D01*
Y47004D01*
X192366Y64612D01*
X211524D01*
X213037Y63099D01*
Y62174D01*
X212731Y61939D01*
X212318Y61401D01*
X212058Y60774D01*
X211970Y60102D01*
X212058Y59430D01*
X212318Y58804D01*
X212731Y58266D01*
X213268Y57853D01*
X213895Y57594D01*
X214567Y57505D01*
X215239Y57594D01*
X215865Y57853D01*
X216403Y58266D01*
X216816Y58804D01*
X217075Y59430D01*
X217164Y60102D01*
X217075Y60774D01*
X216816Y61401D01*
X216403Y61939D01*
X216096Y62174D01*
Y63732D01*
X215980Y64318D01*
X215648Y64814D01*
X213239Y67223D01*
X212743Y67555D01*
X212158Y67671D01*
D02*
G37*
G36*
X163894Y45838D02*
Y43807D01*
X165925D01*
X165902Y43979D01*
X165643Y44606D01*
X165230Y45143D01*
X164692Y45556D01*
X164066Y45816D01*
X163894Y45838D01*
D02*
G37*
G36*
X162894D02*
X162722Y45816D01*
X162095Y45556D01*
X161557Y45143D01*
X161145Y44606D01*
X160885Y43979D01*
X160863Y43807D01*
X162894D01*
Y45838D01*
D02*
G37*
G36*
X237500Y56939D02*
X236146Y56806D01*
X234845Y56411D01*
X233645Y55769D01*
X232593Y54907D01*
X231731Y53855D01*
X231089Y52655D01*
X230694Y51354D01*
X230561Y50000D01*
X230694Y48646D01*
X231089Y47345D01*
X231731Y46145D01*
X232593Y45093D01*
X233645Y44230D01*
X234845Y43589D01*
X236146Y43194D01*
X237500Y43061D01*
X238854Y43194D01*
X240155Y43589D01*
X241355Y44230D01*
X242407Y45093D01*
X243269Y46145D01*
X243911Y47345D01*
X244306Y48646D01*
X244439Y50000D01*
X244306Y51354D01*
X243911Y52655D01*
X243269Y53855D01*
X242407Y54907D01*
X241355Y55769D01*
X240155Y56411D01*
X238854Y56806D01*
X237500Y56939D01*
D02*
G37*
G36*
X165925Y42807D02*
X163894D01*
Y40776D01*
X164066Y40799D01*
X164692Y41058D01*
X165230Y41471D01*
X165643Y42009D01*
X165902Y42635D01*
X165925Y42807D01*
D02*
G37*
G36*
X162894D02*
X160863D01*
X160885Y42635D01*
X161145Y42009D01*
X161557Y41471D01*
X162095Y41058D01*
X162722Y40799D01*
X162894Y40776D01*
Y42807D01*
D02*
G37*
G36*
X201969Y62833D02*
X201296Y62745D01*
X200670Y62485D01*
X200132Y62073D01*
X199719Y61535D01*
X199460Y60908D01*
X199372Y60236D01*
X199460Y59564D01*
X199719Y58938D01*
X200132Y58400D01*
X200471Y58140D01*
Y21603D01*
X200164Y21368D01*
X199751Y20830D01*
X199492Y20204D01*
X199403Y19532D01*
X199492Y18859D01*
X199751Y18233D01*
X200164Y17695D01*
X200701Y17282D01*
X201328Y17023D01*
X202000Y16935D01*
X202672Y17023D01*
X203298Y17282D01*
X203836Y17695D01*
X204249Y18233D01*
X204508Y18859D01*
X204597Y19532D01*
X204508Y20204D01*
X204249Y20830D01*
X203836Y21368D01*
X203529Y21603D01*
Y58188D01*
X203805Y58400D01*
X204218Y58938D01*
X204477Y59564D01*
X204566Y60236D01*
X204477Y60908D01*
X204218Y61535D01*
X203805Y62073D01*
X203267Y62485D01*
X202641Y62745D01*
X201969Y62833D01*
D02*
G37*
G36*
X153150Y24654D02*
X151997Y24541D01*
X150888Y24205D01*
X149866Y23658D01*
X148970Y22923D01*
X148235Y22028D01*
X147689Y21006D01*
X147353Y19897D01*
X147239Y18744D01*
X147353Y17591D01*
X147689Y16482D01*
X148235Y15461D01*
X148970Y14565D01*
X149866Y13830D01*
X150888Y13284D01*
X151997Y12947D01*
X153150Y12834D01*
X154303Y12947D01*
X155411Y13284D01*
X156433Y13830D01*
X157329Y14565D01*
X158064Y15461D01*
X158610Y16482D01*
X158946Y17591D01*
X159060Y18744D01*
X158946Y19897D01*
X158610Y21006D01*
X158064Y22028D01*
X157329Y22923D01*
X156433Y23658D01*
X155411Y24205D01*
X154303Y24541D01*
X153150Y24654D01*
D02*
G37*
G36*
X134646D02*
X133493Y24541D01*
X132384Y24205D01*
X131362Y23658D01*
X130466Y22923D01*
X129731Y22028D01*
X129185Y21006D01*
X128849Y19897D01*
X128735Y18744D01*
X128849Y17591D01*
X129185Y16482D01*
X129731Y15461D01*
X130466Y14565D01*
X131362Y13830D01*
X132384Y13284D01*
X133493Y12947D01*
X134646Y12834D01*
X135799Y12947D01*
X136907Y13284D01*
X137929Y13830D01*
X138825Y14565D01*
X139560Y15461D01*
X140106Y16482D01*
X140443Y17591D01*
X140556Y18744D01*
X140443Y19897D01*
X140106Y21006D01*
X139560Y22028D01*
X138825Y22923D01*
X137929Y23658D01*
X136907Y24205D01*
X135799Y24541D01*
X134646Y24654D01*
D02*
G37*
G36*
X126091Y14890D02*
Y11925D01*
X129055D01*
X129000Y12339D01*
X128648Y13190D01*
X128087Y13921D01*
X127356Y14482D01*
X126504Y14835D01*
X126091Y14890D01*
D02*
G37*
G36*
X125091D02*
X124677Y14835D01*
X123826Y14482D01*
X123094Y13921D01*
X122533Y13190D01*
X122181Y12339D01*
X122126Y11925D01*
X125091D01*
Y14890D01*
D02*
G37*
G36*
X129055Y10925D02*
X126091D01*
Y7961D01*
X126504Y8015D01*
X127356Y8368D01*
X128087Y8929D01*
X128648Y9660D01*
X129000Y10511D01*
X129055Y10925D01*
D02*
G37*
G36*
X125091D02*
X122126D01*
X122181Y10511D01*
X122533Y9660D01*
X123094Y8929D01*
X123826Y8368D01*
X124677Y8015D01*
X125091Y7961D01*
Y10925D01*
D02*
G37*
%LPD*%
G36*
X114746Y345608D02*
X114226Y345393D01*
X113689Y344981D01*
X113453Y344674D01*
X92465D01*
X92366Y345174D01*
X92885Y345389D01*
X93423Y345801D01*
X93659Y346108D01*
X114646D01*
X114746Y345608D01*
D02*
G37*
G36*
X49213Y253089D02*
Y155572D01*
X48751Y155381D01*
X46997Y157134D01*
Y251527D01*
X48751Y253281D01*
X49213Y253089D01*
D02*
G37*
G36*
X48914Y257855D02*
X48928Y257784D01*
X44386Y253242D01*
X44055Y252746D01*
X43938Y252161D01*
Y156501D01*
X44055Y155916D01*
X44386Y155419D01*
X49213Y150593D01*
Y149667D01*
X48751Y149475D01*
X43262Y154964D01*
Y252910D01*
X48372Y258020D01*
X48914Y257855D01*
D02*
G37*
G36*
X165253Y320271D02*
X165237Y320264D01*
X164699Y319851D01*
X164463Y319544D01*
X141851D01*
X141616Y319851D01*
X141078Y320264D01*
X141062Y320271D01*
X141162Y320771D01*
X165153D01*
X165253Y320271D01*
D02*
G37*
%LPC*%
G36*
X107401Y30295D02*
X104437D01*
Y27331D01*
X104851Y27385D01*
X105702Y27738D01*
X106433Y28299D01*
X106994Y29030D01*
X107347Y29882D01*
X107401Y30295D01*
D02*
G37*
G36*
X103437D02*
X100473D01*
X100527Y29882D01*
X100880Y29030D01*
X101441Y28299D01*
X102172Y27738D01*
X103023Y27385D01*
X103437Y27331D01*
Y30295D01*
D02*
G37*
G36*
X19791Y21027D02*
Y18063D01*
X22756D01*
X22701Y18477D01*
X22349Y19328D01*
X21788Y20059D01*
X21056Y20620D01*
X20205Y20973D01*
X19791Y21027D01*
D02*
G37*
G36*
X18791D02*
X18378Y20973D01*
X17526Y20620D01*
X16795Y20059D01*
X16234Y19328D01*
X15881Y18477D01*
X15827Y18063D01*
X18791D01*
Y21027D01*
D02*
G37*
G36*
X22756Y17063D02*
X19791D01*
Y14099D01*
X20205Y14153D01*
X21056Y14506D01*
X21788Y15067D01*
X22349Y15798D01*
X22701Y16649D01*
X22756Y17063D01*
D02*
G37*
G36*
X18791D02*
X15827D01*
X15881Y16649D01*
X16234Y15798D01*
X16795Y15067D01*
X17526Y14506D01*
X18378Y14153D01*
X18791Y14099D01*
Y17063D01*
D02*
G37*
G36*
X59949Y11719D02*
Y9688D01*
X61980D01*
X61957Y9860D01*
X61698Y10487D01*
X61285Y11024D01*
X60747Y11437D01*
X60121Y11697D01*
X59949Y11719D01*
D02*
G37*
G36*
X58949D02*
X58777Y11697D01*
X58150Y11437D01*
X57613Y11024D01*
X57200Y10487D01*
X56940Y9860D01*
X56918Y9688D01*
X58949D01*
Y11719D01*
D02*
G37*
G36*
X61980Y8688D02*
X59949D01*
Y6657D01*
X60121Y6680D01*
X60747Y6939D01*
X61285Y7352D01*
X61698Y7890D01*
X61957Y8516D01*
X61980Y8688D01*
D02*
G37*
G36*
X58949D02*
X56918D01*
X56940Y8516D01*
X57200Y7890D01*
X57613Y7352D01*
X58150Y6939D01*
X58777Y6680D01*
X58949Y6657D01*
Y8688D01*
D02*
G37*
G36*
X75303Y8583D02*
Y5618D01*
X78268D01*
X78213Y6032D01*
X77860Y6883D01*
X77299Y7614D01*
X76568Y8175D01*
X75717Y8528D01*
X75303Y8583D01*
D02*
G37*
G36*
X74303D02*
X73889Y8528D01*
X73038Y8175D01*
X72307Y7614D01*
X71746Y6883D01*
X71393Y6032D01*
X71339Y5618D01*
X74303D01*
Y8583D01*
D02*
G37*
%LPD*%
D11*
X19425Y268425D02*
X37402Y286402D01*
X158661Y381500D02*
X202358D01*
X206693Y377165D01*
Y123640D02*
Y377165D01*
X192904Y109851D02*
X206693Y123640D01*
X183071Y90551D02*
X211811Y119291D01*
X183071Y86614D02*
Y90551D01*
X211811Y119291D02*
Y244094D01*
X216949Y249232D01*
X222500D01*
X28724Y129543D02*
Y144106D01*
X52224Y143839D02*
X57087D01*
X41732Y154331D02*
Y253543D01*
Y154331D02*
X52224Y143839D01*
X50394Y151575D02*
X54012D01*
X45468Y156501D02*
Y252161D01*
Y156501D02*
X50394Y151575D01*
X60236Y266929D02*
Y276378D01*
X45468Y252161D02*
X60236Y266929D01*
X57087Y268898D02*
Y274803D01*
X41732Y253543D02*
X57087Y268898D01*
X56299Y280315D02*
X60236Y276378D01*
X56299Y280315D02*
Y326378D01*
X52362Y279528D02*
X57087Y274803D01*
X52362Y279528D02*
Y330709D01*
X42913Y120472D02*
X47894D01*
X35433Y127953D02*
Y265748D01*
Y127953D02*
X42913Y120472D01*
X41666Y271981D02*
X52284D01*
X35433Y265748D02*
X41666Y271981D01*
X54896Y60489D02*
Y103371D01*
X28724Y129543D02*
X54896Y103371D01*
X19425Y134512D02*
Y144106D01*
X51063Y57244D02*
Y102874D01*
X19425Y134512D02*
X51063Y102874D01*
Y57244D02*
X75590Y32717D01*
X52362Y330709D02*
X64798Y343144D01*
X56299Y326378D02*
X67716Y337795D01*
X26681Y393398D02*
X37402Y382677D01*
Y286402D02*
Y382677D01*
X45276Y384646D02*
X70473Y359449D01*
X28724Y268425D02*
X41732Y281433D01*
Y388189D01*
X45276Y384646D01*
X30612Y399310D02*
X41732Y388189D01*
X30612Y399310D02*
X41732Y388189D01*
X41732D02*
X45276Y384646D01*
X163586Y353792D02*
X166378Y351000D01*
X10539Y393398D02*
X26681D01*
X8661Y395276D02*
X10539Y393398D01*
X170220Y322300D02*
X170453Y322067D01*
X116177Y322300D02*
X170220D01*
X64798Y343144D02*
X115525D01*
X67716Y337795D02*
X112205D01*
X91587Y353792D02*
X163586D01*
X91587Y347638D02*
X173333D01*
X8661Y405094D02*
X34276D01*
X74575Y364795D02*
X173333D01*
X34276Y405094D02*
X74575Y364795D01*
X30612Y399310D02*
X30612D01*
X70473Y359449D02*
X166342D01*
X8661Y395276D02*
Y405094D01*
X13780Y399310D02*
X30612D01*
X54896Y60489D02*
X82382Y33004D01*
X130209Y308268D02*
X146457D01*
X146457Y308268D01*
X139779Y318015D02*
X166535D01*
X152362Y308268D02*
X160630D01*
X173333Y364795D02*
X173522Y364605D01*
X163985Y62598D02*
Y110061D01*
Y62598D02*
X164567Y62017D01*
X191732Y66142D02*
X212158D01*
X214567Y63732D01*
Y60102D02*
Y63732D01*
X173228Y47638D02*
X191732Y66142D01*
X173228Y33945D02*
Y47638D01*
X148425Y98032D02*
X155512D01*
X81161Y79035D02*
X97736D01*
X125591Y37471D02*
Y51181D01*
X97736Y79035D02*
X125591Y51181D01*
X133071Y82677D02*
X148425Y98032D01*
X133071Y55512D02*
Y82677D01*
X86614Y92520D02*
X110236D01*
X120079Y70079D02*
Y82677D01*
X110236Y92520D02*
X120079Y82677D01*
X114961Y51575D02*
X114961Y51575D01*
X107874Y51575D02*
X114961D01*
X202000Y19532D02*
Y60205D01*
X201969Y60236D02*
X202000Y60205D01*
X99606Y51575D02*
X103937D01*
X92126Y30795D02*
Y44094D01*
X99606Y51575D01*
X103937Y48425D02*
X103937Y48425D01*
X107874D01*
X107874Y48425D01*
X103937Y30795D02*
Y48425D01*
X223250Y37471D02*
X223661Y37882D01*
X35433Y28346D02*
X64961D01*
X33303Y30476D02*
X35433Y28346D01*
X33303Y30476D02*
Y49606D01*
D13*
X181745Y363820D02*
X191339Y373414D01*
X231500Y242933D02*
Y276772D01*
X181745Y314961D02*
Y363820D01*
X227165Y242933D02*
X231500D01*
X231500Y165055D01*
Y151185D02*
Y165055D01*
X226378D02*
X231500D01*
X219291Y138976D02*
X231500Y151185D01*
X219291Y102756D02*
Y138976D01*
X225197Y62017D02*
X228552D01*
X223661Y37882D02*
Y60481D01*
X225197Y62017D01*
X210583Y30008D02*
X213339D01*
X220801Y37471D01*
X223250D01*
D35*
X107874Y48425D02*
D03*
Y51575D02*
D03*
X103937Y51575D02*
D03*
Y48425D02*
D03*
D145*
X77268Y403543D02*
X96378Y384433D01*
X49213Y403543D02*
X77268D01*
X173228Y21654D02*
Y33945D01*
X175941Y18941D02*
X180709D01*
X173228Y21654D02*
X175941Y18941D01*
D147*
X62205Y416142D02*
D03*
X88189D02*
D03*
X86378Y299890D02*
D03*
D148*
X52205Y416142D02*
D03*
X78189D02*
D03*
X69685Y299764D02*
D03*
X106378Y299890D02*
D03*
X176378D02*
D03*
X166378D02*
D03*
X156378D02*
D03*
X146378D02*
D03*
X136378D02*
D03*
X126378D02*
D03*
X116378D02*
D03*
X96378D02*
D03*
X136811Y393898D02*
D03*
Y419488D02*
D03*
X119095D02*
D03*
D149*
X222500Y256713D02*
D03*
X24075Y255138D02*
D03*
X19425Y268425D02*
D03*
X158661Y381500D02*
D03*
X118595Y368583D02*
D03*
X96378Y384433D02*
D03*
X192904Y109851D02*
D03*
X222500Y249232D02*
D03*
X28724Y144106D02*
D03*
X47894Y120472D02*
D03*
X52284Y271981D02*
D03*
X54012Y151575D02*
D03*
X177165Y320866D02*
D03*
X166378Y351000D02*
D03*
X77165Y384539D02*
D03*
X116177Y322300D02*
D03*
X115525Y343144D02*
D03*
X112205Y337795D02*
D03*
X91587Y353792D02*
D03*
Y347638D02*
D03*
X173333D02*
D03*
X49213Y403543D02*
D03*
X166342Y359449D02*
D03*
X13780Y399310D02*
D03*
X57087Y143839D02*
D03*
X19425Y144106D02*
D03*
X130209Y308268D02*
D03*
X139779Y318015D02*
D03*
X166535D02*
D03*
X146457Y308268D02*
D03*
X160630D02*
D03*
X152362D02*
D03*
X173522Y364605D02*
D03*
X8661Y405094D02*
D03*
X170453Y322067D02*
D03*
X227165Y242933D02*
D03*
X226378Y165055D02*
D03*
X163985Y110061D02*
D03*
X28724Y268425D02*
D03*
X75590Y32717D02*
D03*
X163394Y43307D02*
D03*
X214567Y60102D02*
D03*
X183071Y86614D02*
D03*
X173228Y79921D02*
D03*
X164567Y62017D02*
D03*
X155512Y98032D02*
D03*
X133071Y55512D02*
D03*
X82382Y33004D02*
D03*
X98420Y66732D02*
D03*
X125591Y37471D02*
D03*
X81161Y79035D02*
D03*
X120079Y70079D02*
D03*
X86614Y92520D02*
D03*
X114961Y51575D02*
D03*
X62598Y85433D02*
D03*
X3937Y64961D02*
D03*
X202000Y19532D02*
D03*
X92126Y30795D02*
D03*
X208378Y60102D02*
D03*
X228552Y62017D02*
D03*
X201969Y60236D02*
D03*
X173228Y33945D02*
D03*
X180709Y18941D02*
D03*
X210583Y30008D02*
D03*
X223661Y37882D02*
D03*
X64961Y28346D02*
D03*
X59449Y9188D02*
D03*
X33303Y49606D02*
D03*
D150*
X222500Y158287D02*
D03*
X24075Y159862D02*
D03*
D151*
X69685Y289764D02*
D03*
X119095Y393898D02*
D03*
D152*
X153150Y18744D02*
D03*
X134646D02*
D03*
X116142D02*
D03*
D153*
X187953Y401575D02*
D03*
X168740D02*
D03*
D154*
X231500Y301000D02*
D03*
D155*
X221500D02*
D03*
X231500Y311000D02*
D03*
X221500D02*
D03*
X231500Y321000D02*
D03*
X221500D02*
D03*
X231500Y331000D02*
D03*
X221500D02*
D03*
X231500Y341000D02*
D03*
X221500D02*
D03*
X231500Y351000D02*
D03*
X221500D02*
D03*
X231500Y361000D02*
D03*
X221500D02*
D03*
X231500Y371000D02*
D03*
X221500D02*
D03*
X231500Y381000D02*
D03*
X221500D02*
D03*
X231500Y391000D02*
D03*
X221500D02*
D03*
D156*
X237500Y417500D02*
D03*
X10000D02*
D03*
X237500Y50000D02*
D03*
X10000D02*
D03*
D157*
X233645Y102756D02*
D03*
X209291Y73852D02*
D03*
X149638Y385929D02*
D03*
X191339Y373414D02*
D03*
X53351Y136980D02*
D03*
X22109Y386785D02*
D03*
X121088Y334750D02*
D03*
X181745Y314961D02*
D03*
X231496Y276772D02*
D03*
X219291Y102756D02*
D03*
X205658D02*
D03*
X6299Y276772D02*
D03*
X10630Y143846D02*
D03*
X125591Y11425D02*
D03*
X71155Y114911D02*
D03*
X74803Y5118D02*
D03*
X103937Y30795D02*
D03*
X19291Y17563D02*
D03*
M02*
