G04*
G04 #@! TF.GenerationSoftware,Altium Limited,Altium Designer,20.0.11 (256)*
G04*
G04 Layer_Color=16711935*
%FSLAX25Y25*%
%MOIN*%
G70*
G01*
G75*
%ADD10C,0.00787*%
%ADD11C,0.01000*%
%ADD14C,0.00394*%
%ADD20C,0.00100*%
%ADD22C,0.00300*%
%ADD160C,0.00000*%
D10*
X66929Y15602D02*
X82677D01*
Y25445D01*
X66929D02*
X82677D01*
X66929Y15602D02*
Y25445D01*
X43602Y37583D02*
X56595D01*
Y24591D02*
Y37583D01*
X43602Y24591D02*
X56595D01*
X43602D02*
Y37583D01*
X56595Y41713D02*
Y54705D01*
X43602D02*
X56595D01*
X43602Y41713D02*
Y54705D01*
Y41713D02*
X56595D01*
D11*
X109646Y5752D02*
Y31736D01*
X159646D01*
Y5752D02*
Y31736D01*
X109646Y5752D02*
X159646D01*
D14*
X187598Y366732D02*
G03*
X187598Y366732I-1969J0D01*
G01*
X24370Y311319D02*
G03*
X24370Y311319I-1969J0D01*
G01*
X149016Y61457D02*
G03*
X149016Y61457I-1969J0D01*
G01*
X59252Y91929D02*
G03*
X59252Y91929I-1969J0D01*
G01*
X174799Y99114D02*
G03*
X174799Y99114I-1969J0D01*
G01*
X204390Y147953D02*
Y148810D01*
Y147953D02*
X237452D01*
X204390Y267047D02*
X204646D01*
X204390Y256221D02*
Y267047D01*
X237461Y262717D02*
Y267047D01*
Y156319D02*
Y258681D01*
X237548Y152284D02*
X242185D01*
X237461Y147953D02*
Y152284D01*
X204392Y158780D02*
X207543D01*
X237461Y156319D02*
X242185D01*
X204386Y256221D02*
X207538D01*
X237461Y258681D02*
X242185D01*
X237476Y262717D02*
X242128D01*
X242185Y262659D01*
Y258681D02*
Y262659D01*
Y152277D02*
Y156319D01*
X204390Y148810D02*
Y158780D01*
X204646Y267047D02*
X237445D01*
X207539Y158780D02*
Y256221D01*
X142421Y38553D02*
X146555D01*
X142421Y36388D02*
X146555D01*
X142421D02*
Y38553D01*
X146555Y36388D02*
Y38553D01*
X43898Y71850D02*
Y113189D01*
X3347Y71850D02*
Y113189D01*
X43898D01*
X3347Y71850D02*
X43898D01*
X108957Y47933D02*
Y52067D01*
X106791Y47933D02*
Y52067D01*
Y47933D02*
X108957D01*
X106791Y52067D02*
X108957D01*
X192571Y57171D02*
X196705D01*
X192571Y55006D02*
X196705D01*
X192571D02*
Y57171D01*
X196705Y55006D02*
Y57171D01*
X192614Y53024D02*
X196748D01*
X192614Y50858D02*
X196748D01*
X192614D02*
Y53024D01*
X196748Y50858D02*
Y53024D01*
X169309Y7032D02*
Y12740D01*
X177971Y7032D02*
Y12740D01*
X169309D02*
X177971D01*
X169309Y7032D02*
X177971D01*
X216252Y20669D02*
Y25984D01*
X207984Y20669D02*
Y25984D01*
Y20669D02*
X216252D01*
X207984Y25984D02*
X216252D01*
X215760Y14862D02*
Y18602D01*
X208870Y14862D02*
Y18602D01*
Y14862D02*
X215760D01*
X208870Y18602D02*
X215760D01*
X185169Y20024D02*
X189303D01*
X185169Y17858D02*
X189303D01*
X185169D02*
Y20024D01*
X189303Y17858D02*
Y20024D01*
X216252Y7032D02*
Y12740D01*
X207591Y7032D02*
Y12740D01*
Y7032D02*
X216252D01*
X207591Y12740D02*
X216252D01*
X214421Y39161D02*
Y43295D01*
X212256Y39161D02*
Y43295D01*
X214421D01*
X212256Y39161D02*
X214421D01*
X205760Y41721D02*
X209894D01*
X205760Y43886D02*
X209894D01*
Y41721D02*
Y43886D01*
X205760Y41721D02*
Y43886D01*
X195622Y27055D02*
X197591Y29024D01*
Y27055D02*
Y42803D01*
X181843D02*
X197591D01*
X181843Y27055D02*
Y42803D01*
Y27055D02*
X197591D01*
X90748Y16831D02*
X93110D01*
X90748Y21161D02*
X93110D01*
X90748Y16831D02*
Y21161D01*
X93110Y16831D02*
Y21161D01*
X91654Y25543D02*
X95787D01*
X91654Y23378D02*
X95787D01*
X91654D02*
Y25543D01*
X95787Y23378D02*
Y25543D01*
X91654Y14705D02*
X95787D01*
X91654Y12539D02*
X95787D01*
X91654D02*
Y14705D01*
X95787Y12539D02*
Y14705D01*
X102854Y47933D02*
Y52067D01*
X105020Y47933D02*
Y52067D01*
X102854D02*
X105020D01*
X102854Y47933D02*
X105020D01*
X60532Y13287D02*
Y17421D01*
X58366Y13287D02*
Y17421D01*
X60532D01*
X58366Y13287D02*
X60532D01*
X39272Y49508D02*
Y53642D01*
X37106Y49508D02*
Y53642D01*
X39272D01*
X37106Y49508D02*
X39272D01*
X37008Y32087D02*
X39370D01*
X37008Y36417D02*
X39370D01*
X37008Y32087D02*
Y36417D01*
X39370Y32087D02*
Y36417D01*
X60532Y24705D02*
Y28839D01*
X58366Y24705D02*
Y28839D01*
X60532D01*
X58366Y24705D02*
X60532D01*
X50295Y8563D02*
X52461D01*
X50295Y12697D02*
X52461D01*
X50295Y8563D02*
Y12697D01*
X52461Y8563D02*
Y12697D01*
X52461Y16437D02*
Y20571D01*
X50295Y16437D02*
Y20571D01*
X52461D01*
X50295Y16437D02*
X52461D01*
X37697Y56398D02*
X41831D01*
X37697Y58563D02*
X41831D01*
Y56398D02*
Y58563D01*
X37697Y56398D02*
Y58563D01*
X75394Y9843D02*
Y12205D01*
X71063Y9843D02*
Y12205D01*
Y9843D02*
X75394D01*
X71063Y12205D02*
X75394D01*
X45177Y382382D02*
Y384547D01*
X49311Y382382D02*
Y384547D01*
X45177D02*
X49311D01*
X45177Y382382D02*
X49311D01*
X204429Y356398D02*
Y358563D01*
X200295Y356398D02*
Y358563D01*
Y356398D02*
X204429D01*
X200295Y358563D02*
X204429D01*
X226476Y420571D02*
X228642D01*
X226476Y416437D02*
X228642D01*
Y420571D01*
X226476Y416437D02*
Y420571D01*
X221752D02*
X223917D01*
X221752Y416437D02*
X223917D01*
Y420571D01*
X221752Y416437D02*
Y420571D01*
X217028D02*
X219193D01*
X217028Y416437D02*
X219193D01*
Y420571D01*
X217028Y416437D02*
Y420571D01*
X110447Y59153D02*
Y61319D01*
X114581Y59153D02*
Y61319D01*
X110447D02*
X114581D01*
X110447Y59153D02*
X114581D01*
X118799D02*
Y61319D01*
X122933Y59153D02*
Y61319D01*
X118799D02*
X122933D01*
X118799Y59153D02*
X122933D01*
X192224Y102854D02*
Y105020D01*
X188091Y102854D02*
Y105020D01*
Y102854D02*
X192224D01*
X188091Y105020D02*
X192224D01*
X159153Y94193D02*
X161319D01*
X159153Y98327D02*
X161319D01*
X159153Y94193D02*
Y98327D01*
X161319Y94193D02*
Y98327D01*
X195870Y98130D02*
Y100295D01*
X191736Y98130D02*
Y100295D01*
Y98130D02*
X195870D01*
X191736Y100295D02*
X195870D01*
X85728Y99311D02*
Y101476D01*
X81595Y99311D02*
Y101476D01*
Y99311D02*
X85728D01*
X81595Y101476D02*
X85728D01*
X195870Y93996D02*
Y96161D01*
X191736Y93996D02*
Y96161D01*
Y93996D02*
X195870D01*
X191736Y96161D02*
X195870D01*
X52269Y117815D02*
X54434D01*
X52269Y113681D02*
X54434D01*
Y117815D01*
X52269Y113681D02*
Y117815D01*
Y125689D02*
X54434D01*
X52269Y121555D02*
X54434D01*
Y125689D01*
X52269Y121555D02*
Y125689D01*
X93986Y99311D02*
Y101476D01*
X89852Y99311D02*
Y101476D01*
Y99311D02*
X93986D01*
X89852Y101476D02*
X93986D01*
X162911Y79154D02*
Y81319D01*
X167045Y79154D02*
Y81319D01*
X162911D02*
X167045D01*
X162911Y79154D02*
X167045D01*
X161909Y70220D02*
X164075D01*
X161909Y74354D02*
X164075D01*
X161909Y70220D02*
Y74354D01*
X164075Y70220D02*
Y74354D01*
X167028Y84153D02*
Y86319D01*
X162894Y84153D02*
Y86319D01*
Y84153D02*
X167028D01*
X162894Y86319D02*
X167028D01*
X120374Y84055D02*
Y86221D01*
X124508Y84055D02*
Y86221D01*
X120374D02*
X124508D01*
X120374Y84055D02*
X124508D01*
X77658Y389075D02*
Y391240D01*
X73524Y389075D02*
Y391240D01*
Y389075D02*
X77658D01*
X73524Y391240D02*
X77658D01*
X38816Y389075D02*
Y391240D01*
X42950Y389075D02*
Y391240D01*
X38816D02*
X42950D01*
X38816Y389075D02*
X42950D01*
X134422Y344950D02*
X136587D01*
X134422Y349084D02*
X136587D01*
X134422Y344950D02*
Y349084D01*
X136587Y344950D02*
Y349084D01*
X128298Y344711D02*
X130463D01*
X128298Y348844D02*
X130463D01*
X128298Y344711D02*
Y348844D01*
X130463Y344711D02*
Y348844D01*
X124854Y79154D02*
Y81319D01*
X120721Y79154D02*
Y81319D01*
Y79154D02*
X124854D01*
X120721Y81319D02*
X124854D01*
X172163Y69236D02*
Y71401D01*
X168029Y69236D02*
Y71401D01*
Y69236D02*
X172163D01*
X168029Y71401D02*
X172163D01*
X239764Y96063D02*
Y131063D01*
X198819Y96063D02*
Y131063D01*
X239764D01*
X198819Y96063D02*
X239764D01*
X27067Y416602D02*
Y418768D01*
X31201Y416602D02*
Y418768D01*
X27067D02*
X31201D01*
X27067Y416602D02*
X31201D01*
X27067Y420539D02*
Y422705D01*
X31201Y420539D02*
Y422705D01*
X27067D02*
X31201D01*
X27067Y420539D02*
X31201D01*
X38583Y68209D02*
Y70374D01*
X42717Y68209D02*
Y70374D01*
X38583D02*
X42717D01*
X38583Y68209D02*
X42717D01*
X51161Y68209D02*
Y70374D01*
X47028Y68209D02*
Y70374D01*
Y68209D02*
X51161D01*
X47028Y70374D02*
X51161D01*
X9449Y62106D02*
X18110D01*
X9449Y67815D02*
X18110D01*
Y62106D02*
Y67815D01*
X9449Y62106D02*
Y67815D01*
X149803Y330906D02*
Y370276D01*
X189173Y330906D02*
Y370276D01*
X149803Y330906D02*
X189173D01*
X149803Y370276D02*
X189173D01*
X192571Y59153D02*
Y61319D01*
X196705Y59153D02*
Y61319D01*
X192571D02*
X196705D01*
X192571Y59153D02*
X196705D01*
X191291Y15102D02*
X201134D01*
Y7228D02*
Y15102D01*
X191291Y7228D02*
X201134D01*
X191291D02*
Y15102D01*
X100295Y12500D02*
X107579D01*
X100295Y26083D02*
X107579D01*
X100295Y12500D02*
Y26083D01*
X107579Y12500D02*
Y26083D01*
X196555Y46908D02*
Y49073D01*
X192421Y46908D02*
Y49073D01*
Y46908D02*
X196555D01*
X192421Y49073D02*
X196555D01*
X234449Y64674D02*
X242717D01*
X234449Y59359D02*
X242717D01*
X234449D02*
Y64674D01*
X242717Y59359D02*
Y64674D01*
X37008Y39961D02*
Y44291D01*
X39370Y39961D02*
Y44291D01*
X37008Y39961D02*
X39370D01*
X37008Y44291D02*
X39370D01*
X73543Y105315D02*
X78543Y110315D01*
Y105315D02*
Y124606D01*
X63189D02*
X78543D01*
X63189Y105315D02*
Y124606D01*
Y105315D02*
X78543D01*
X197430Y79134D02*
Y87795D01*
X203138Y79134D02*
Y87795D01*
X197430Y79134D02*
X203138D01*
X197430Y87795D02*
X203138D01*
X168209Y414862D02*
X175098D01*
X168209Y418602D02*
X175098D01*
Y414862D02*
Y418602D01*
X168209Y414862D02*
Y418602D01*
X6689Y37051D02*
X33461D01*
Y33902D02*
Y37051D01*
X6689Y35083D02*
Y37051D01*
X3539Y35083D02*
X6689D01*
X3539Y7917D02*
Y35083D01*
X6689Y5949D02*
Y7917D01*
X3539Y7917D02*
X6689D01*
X27161Y33902D02*
X33461D01*
X27161Y9098D02*
Y33902D01*
Y9098D02*
X33461D01*
X6689Y5949D02*
X33461D01*
Y9098D01*
X90150Y56988D02*
Y68996D01*
X83260Y56988D02*
Y68996D01*
Y56988D02*
X90150D01*
X83260Y68996D02*
X90150D01*
X228726Y6342D02*
Y37839D01*
Y6342D02*
Y37839D01*
X248411Y6342D02*
X249592Y5161D01*
X250774D01*
Y39020D01*
X249592D02*
X250774D01*
X248411Y37839D02*
X249592Y39020D01*
X238569Y4090D02*
Y6342D01*
Y4090D02*
X242734D01*
Y6342D01*
X228726D02*
X238569D01*
X242734D02*
X248411D01*
X242734Y37839D02*
X248411D01*
X228726D02*
X238569D01*
X242734D02*
Y40091D01*
X238569D02*
X242734D01*
X238569Y37839D02*
Y40091D01*
X116142Y394882D02*
X139764D01*
X116142Y418504D02*
X139764D01*
X116142Y394882D02*
Y418504D01*
X139764Y394882D02*
Y418504D01*
X18858Y273622D02*
Y314764D01*
X48779Y273622D02*
Y314764D01*
X18858D02*
X48779D01*
X18858Y273622D02*
X48779D01*
X150591Y58012D02*
Y92461D01*
X134843Y58012D02*
Y92461D01*
Y58012D02*
X150591D01*
X134843Y92461D02*
X150591D01*
X53740Y75394D02*
X71457D01*
X53740Y95472D02*
X71457D01*
Y75394D02*
Y95472D01*
X53740Y75394D02*
Y95472D01*
X169287Y90059D02*
Y102657D01*
X181886Y90059D02*
Y102657D01*
X169287D02*
X181886D01*
X169287Y90059D02*
X181886D01*
X85827Y83563D02*
X94488D01*
X85827Y77854D02*
X94488D01*
X85827D02*
Y83563D01*
X94488Y77854D02*
Y83563D01*
X182087Y385531D02*
X188779D01*
X182087Y389272D02*
X188779D01*
Y385531D02*
Y389272D01*
X182087Y385531D02*
Y389272D01*
X198130Y301279D02*
Y305020D01*
X205020Y301279D02*
Y305020D01*
X198130D02*
X205020D01*
X198130Y301279D02*
X205020D01*
X198130Y307185D02*
Y310925D01*
X205020Y307185D02*
Y310925D01*
X198130D02*
X205020D01*
X198130Y307185D02*
X205020D01*
X4429Y305217D02*
Y312106D01*
X8169Y305217D02*
Y312106D01*
X4429Y305217D02*
X8169D01*
X4429Y312106D02*
X8169D01*
X104823Y84153D02*
X111713D01*
X104823Y80413D02*
X111713D01*
X104823D02*
Y84153D01*
X111713Y80413D02*
Y84153D01*
X166652Y54197D02*
X173541D01*
X166652Y57937D02*
X173541D01*
Y54197D02*
Y57937D01*
X166652Y54197D02*
Y57937D01*
X234646Y84252D02*
X240354D01*
X234646Y75590D02*
X240354D01*
Y84252D01*
X234646Y75590D02*
Y84252D01*
X112205Y72342D02*
Y78051D01*
X103543Y72342D02*
Y78051D01*
Y72342D02*
X112205D01*
X103543Y78051D02*
X112205D01*
X94488Y70374D02*
Y76083D01*
X85827Y70374D02*
Y76083D01*
Y70374D02*
X94488D01*
X85827Y76083D02*
X94488D01*
X68799Y70079D02*
X74508D01*
X68799Y61417D02*
X74508D01*
Y70079D01*
X68799Y61417D02*
Y70079D01*
X137106Y383669D02*
Y387409D01*
X130217Y383669D02*
Y387409D01*
Y383669D02*
X137106D01*
X130217Y387409D02*
X137106D01*
X188484Y414862D02*
Y418602D01*
X181595Y414862D02*
Y418602D01*
Y414862D02*
X188484D01*
X181595Y418602D02*
X188484D01*
X198130Y313091D02*
Y316831D01*
X205020Y313091D02*
Y316831D01*
X198130D02*
X205020D01*
X198130Y313091D02*
X205020D01*
X198130Y295350D02*
Y299091D01*
X205020Y295350D02*
Y299091D01*
X198130D02*
X205020D01*
X198130Y295350D02*
X205020D01*
X198130Y319113D02*
Y322853D01*
X205020Y319113D02*
Y322853D01*
X198130D02*
X205020D01*
X198130Y319113D02*
X205020D01*
X198103Y373118D02*
Y376859D01*
X204992Y373118D02*
Y376859D01*
X198103D02*
X204992D01*
X198103Y373118D02*
X204992D01*
X198103Y367213D02*
Y370953D01*
X204992Y367213D02*
Y370953D01*
X198103D02*
X204992D01*
X198103Y367213D02*
X204992D01*
D20*
X24609Y410851D02*
Y412251D01*
X20809D02*
X24609D01*
X20809Y410851D02*
Y412251D01*
Y410851D02*
X24609D01*
Y408292D02*
Y409692D01*
X20809D02*
X24609D01*
X20809Y408292D02*
Y409692D01*
Y408292D02*
X24609D01*
Y405733D02*
Y407133D01*
X20809D02*
X24609D01*
X20809Y405733D02*
Y407133D01*
Y405733D02*
X24609D01*
Y403174D02*
Y404574D01*
X20809D02*
X24609D01*
X20809Y403174D02*
Y404574D01*
Y403174D02*
X24609D01*
X36809D02*
Y404574D01*
Y403174D02*
X40609D01*
Y404574D01*
X36809D02*
X40609D01*
X36809Y405733D02*
Y407133D01*
Y405733D02*
X40609D01*
Y407133D01*
X36809D02*
X40609D01*
X36809Y408292D02*
Y409692D01*
Y408292D02*
X40609D01*
Y409692D01*
X36809D02*
X40609D01*
X36809Y410851D02*
Y412251D01*
Y410851D02*
X40609D01*
Y412251D01*
X36809D02*
X40609D01*
X24609Y401613D02*
X36809D01*
Y413813D01*
X24609D02*
X36809D01*
X24609Y401613D02*
Y413813D01*
D22*
X24859Y412678D02*
X28191Y409346D01*
X24859D02*
X28191Y412678D01*
X24859Y411012D02*
X28191D01*
X26525Y409346D02*
Y412678D01*
D160*
X29509Y413813D02*
G03*
X31909Y413813I1200J0D01*
G01*
M02*
