G04*
G04 #@! TF.GenerationSoftware,Altium Limited,Altium Designer,20.0.11 (256)*
G04*
G04 Layer_Color=16711935*
%FSLAX25Y25*%
%MOIN*%
G70*
G01*
G75*
%ADD11C,0.01000*%
%ADD14C,0.00394*%
%ADD16C,0.00600*%
%ADD23C,0.00591*%
%ADD158C,0.00197*%
D11*
X-17000Y427500D02*
X-15000Y421500D01*
X-19000D02*
X-17000Y427500D01*
X-19000Y6000D02*
X-17000Y0D01*
X-15000Y6000D01*
X-17000Y229745D02*
Y427500D01*
Y0D02*
Y194555D01*
X-18000Y427500D02*
X-1000D01*
X-18000Y0D02*
X-1000D01*
X0Y-13000D02*
X6000Y-11000D01*
X0Y-13000D02*
X6000Y-15000D01*
X241000D02*
X247000Y-13000D01*
X241000Y-11000D02*
X247000Y-13000D01*
X0D02*
X106804D01*
X136996D02*
X247000D01*
X0Y-14000D02*
Y-1000D01*
X247000Y-14000D02*
Y-1000D01*
D14*
X246758Y-1531D02*
Y10988D01*
X239278D02*
X246758D01*
X239278D02*
Y14532D01*
X246758D01*
Y22091D01*
Y29650D01*
X239278D02*
X246758D01*
X239278D02*
Y33193D01*
X246758D01*
Y45713D01*
D16*
X-13401Y196155D02*
Y198154D01*
Y197155D01*
X-19399D01*
X-18399Y196155D01*
Y201154D02*
X-19399Y202153D01*
Y204153D01*
X-18399Y205152D01*
X-14401D01*
X-13401Y204153D01*
Y202153D01*
X-14401Y201154D01*
X-18399D01*
Y207152D02*
X-19399Y208151D01*
Y210151D01*
X-18399Y211150D01*
X-17400D01*
X-16400Y210151D01*
X-15400Y211150D01*
X-14401D01*
X-13401Y210151D01*
Y208151D01*
X-14401Y207152D01*
X-15400D01*
X-16400Y208151D01*
X-17400Y207152D01*
X-18399D01*
X-16400Y208151D02*
Y210151D01*
X-13401Y213150D02*
X-14401D01*
Y214149D01*
X-13401D01*
Y213150D01*
X-19399Y222147D02*
Y218148D01*
X-16400D01*
X-17400Y220147D01*
Y221147D01*
X-16400Y222147D01*
X-14401D01*
X-13401Y221147D01*
Y219148D01*
X-14401Y218148D01*
Y224146D02*
X-13401Y225146D01*
Y227145D01*
X-14401Y228145D01*
X-18399D01*
X-19399Y227145D01*
Y225146D01*
X-18399Y224146D01*
X-17400D01*
X-16400Y225146D01*
Y228145D01*
X112403Y-10601D02*
X110404Y-11601D01*
X108404Y-13600D01*
Y-15599D01*
X109404Y-16599D01*
X111403D01*
X112403Y-15599D01*
Y-14600D01*
X111403Y-13600D01*
X108404D01*
X118401Y-16599D02*
X114402D01*
X118401Y-12600D01*
Y-11601D01*
X117402Y-10601D01*
X115402D01*
X114402Y-11601D01*
X120401Y-16599D02*
Y-15599D01*
X121400D01*
Y-16599D01*
X120401D01*
X125399Y-10601D02*
X129398D01*
Y-11601D01*
X125399Y-15599D01*
Y-16599D01*
X134396D02*
Y-10601D01*
X131397Y-13600D01*
X135396D01*
D23*
X216568Y101374D02*
X221291D01*
Y104523D01*
Y106097D02*
X216568D01*
X218143Y107671D01*
X216568Y109246D01*
X221291D01*
Y113968D02*
Y110820D01*
X218143Y113968D01*
X217356D01*
X216568Y113181D01*
Y111607D01*
X217356Y110820D01*
D158*
X245447Y44091D02*
X246234D01*
Y44484D01*
X246103Y44615D01*
X245972D01*
X245841Y44484D01*
Y44091D01*
Y44484D01*
X245709Y44615D01*
X245578D01*
X245447Y44484D01*
Y44091D01*
X246234Y45009D02*
Y45271D01*
X246103Y45402D01*
X245841D01*
X245709Y45271D01*
Y45009D01*
X245841Y44878D01*
X246103D01*
X246234Y45009D01*
X245709Y45796D02*
Y46058D01*
X245841Y46190D01*
X246234D01*
Y45796D01*
X246103Y45665D01*
X245972Y45796D01*
Y46190D01*
X245709Y46452D02*
X246234D01*
X245972D01*
X245841Y46583D01*
X245709Y46714D01*
Y46846D01*
X245447Y47764D02*
X246234D01*
Y47370D01*
X246103Y47239D01*
X245841D01*
X245709Y47370D01*
Y47764D01*
X246234Y49207D02*
Y48945D01*
X246103Y48813D01*
X245841D01*
X245709Y48945D01*
Y49207D01*
X245841Y49338D01*
X245972D01*
Y48813D01*
X245447Y50125D02*
X246234D01*
Y49732D01*
X246103Y49601D01*
X245841D01*
X245709Y49732D01*
Y50125D01*
X246497Y50650D02*
Y50781D01*
X246365Y50912D01*
X245709D01*
Y50519D01*
X245841Y50388D01*
X246103D01*
X246234Y50519D01*
Y50912D01*
Y51569D02*
Y51306D01*
X246103Y51175D01*
X245841D01*
X245709Y51306D01*
Y51569D01*
X245841Y51700D01*
X245972D01*
Y51175D01*
M02*
