G04*
G04 #@! TF.GenerationSoftware,Altium Limited,Altium Designer,20.0.11 (256)*
G04*
G04 Layer_Color=16711935*
%FSLAX25Y25*%
%MOIN*%
G70*
G01*
G75*
%ADD90R,0.02572X0.02572*%
%ADD133R,0.06706X0.06706*%
%ADD134C,0.06706*%
%ADD135C,0.03950*%
%ADD136C,0.05918*%
%ADD137R,0.06706X0.06706*%
%ADD138C,0.10564*%
%ADD139C,0.05524*%
%ADD140R,0.07303X0.07303*%
%ADD141C,0.07303*%
%ADD142C,0.06800*%
%ADD143C,0.05800*%
D90*
X107874Y48425D02*
D03*
Y51575D02*
D03*
X103937Y51575D02*
D03*
Y48425D02*
D03*
D133*
X62205Y416142D02*
D03*
X88189D02*
D03*
X86378Y299890D02*
D03*
D134*
X52205Y416142D02*
D03*
X78189D02*
D03*
X69685Y299764D02*
D03*
X106378Y299890D02*
D03*
X176378D02*
D03*
X166378D02*
D03*
X156378D02*
D03*
X146378D02*
D03*
X136378D02*
D03*
X126378D02*
D03*
X116378D02*
D03*
X96378D02*
D03*
X136811Y393898D02*
D03*
Y419488D02*
D03*
X119095D02*
D03*
D135*
X222500Y256713D02*
D03*
X24075Y255138D02*
D03*
X19425Y268425D02*
D03*
X158661Y381500D02*
D03*
X118595Y368583D02*
D03*
X96378Y384433D02*
D03*
X192904Y109851D02*
D03*
X222500Y249232D02*
D03*
X28724Y144106D02*
D03*
X47894Y120472D02*
D03*
X52284Y271981D02*
D03*
X54012Y151575D02*
D03*
X177165Y320866D02*
D03*
X166378Y351000D02*
D03*
X77165Y384539D02*
D03*
X116177Y322300D02*
D03*
X115525Y343144D02*
D03*
X112205Y337795D02*
D03*
X91587Y353792D02*
D03*
Y347638D02*
D03*
X173333D02*
D03*
X49213Y403543D02*
D03*
X166342Y359449D02*
D03*
X13780Y399310D02*
D03*
X57087Y143839D02*
D03*
X19425Y144106D02*
D03*
X130209Y308268D02*
D03*
X139779Y318015D02*
D03*
X166535D02*
D03*
X146457Y308268D02*
D03*
X160630D02*
D03*
X152362D02*
D03*
X173522Y364605D02*
D03*
X8661Y405094D02*
D03*
X170453Y322067D02*
D03*
X227165Y242933D02*
D03*
X226378Y165055D02*
D03*
X163985Y110061D02*
D03*
X28724Y268425D02*
D03*
X75590Y32717D02*
D03*
X163394Y43307D02*
D03*
X214567Y60102D02*
D03*
X183071Y86614D02*
D03*
X173228Y79921D02*
D03*
X164567Y62017D02*
D03*
X155512Y98032D02*
D03*
X133071Y55512D02*
D03*
X82382Y33004D02*
D03*
X98420Y66732D02*
D03*
X125591Y37471D02*
D03*
X81161Y79035D02*
D03*
X120079Y70079D02*
D03*
X86614Y92520D02*
D03*
X114961Y51575D02*
D03*
X62598Y85433D02*
D03*
X3937Y64961D02*
D03*
X202000Y19532D02*
D03*
X92126Y30795D02*
D03*
X208378Y60102D02*
D03*
X228552Y62017D02*
D03*
X201969Y60236D02*
D03*
X173228Y33945D02*
D03*
X180709Y18941D02*
D03*
X210583Y30008D02*
D03*
X223661Y37882D02*
D03*
X64961Y28346D02*
D03*
X59449Y9188D02*
D03*
X33303Y49606D02*
D03*
D136*
X222500Y158287D02*
D03*
X24075Y159862D02*
D03*
D137*
X69685Y289764D02*
D03*
X119095Y393898D02*
D03*
D138*
X153150Y18744D02*
D03*
X134646D02*
D03*
X116142D02*
D03*
D139*
X187953Y401575D02*
D03*
X168740D02*
D03*
D140*
X231500Y301000D02*
D03*
D141*
X221500D02*
D03*
X231500Y311000D02*
D03*
X221500D02*
D03*
X231500Y321000D02*
D03*
X221500D02*
D03*
X231500Y331000D02*
D03*
X221500D02*
D03*
X231500Y341000D02*
D03*
X221500D02*
D03*
X231500Y351000D02*
D03*
X221500D02*
D03*
X231500Y361000D02*
D03*
X221500D02*
D03*
X231500Y371000D02*
D03*
X221500D02*
D03*
X231500Y381000D02*
D03*
X221500D02*
D03*
X231500Y391000D02*
D03*
X221500D02*
D03*
D142*
X237500Y417500D02*
D03*
X10000D02*
D03*
X237500Y50000D02*
D03*
X10000D02*
D03*
D143*
X233645Y102756D02*
D03*
X209291Y73852D02*
D03*
X149638Y385929D02*
D03*
X191339Y373414D02*
D03*
X53351Y136980D02*
D03*
X22109Y386785D02*
D03*
X121088Y334750D02*
D03*
X181745Y314961D02*
D03*
X231496Y276772D02*
D03*
X219291Y102756D02*
D03*
X205658D02*
D03*
X6299Y276772D02*
D03*
X10630Y143846D02*
D03*
X125591Y11425D02*
D03*
X71155Y114911D02*
D03*
X74803Y5118D02*
D03*
X103937Y30795D02*
D03*
X19291Y17563D02*
D03*
M02*
