G04*
G04 #@! TF.GenerationSoftware,Altium Limited,Altium Designer,20.0.11 (256)*
G04*
G04 Layer_Color=255*
%FSLAX25Y25*%
%MOIN*%
G70*
G01*
G75*
%ADD35R,0.01772X0.01772*%
%ADD147R,0.05906X0.05906*%
%ADD148C,0.05906*%
%ADD149C,0.03150*%
%ADD150C,0.05118*%
%ADD151R,0.05906X0.05906*%
%ADD152C,0.09764*%
%ADD153C,0.04724*%
%ADD154R,0.06503X0.06503*%
%ADD155C,0.06503*%
%ADD156C,0.06000*%
D35*
X107874Y48425D02*
D03*
Y51575D02*
D03*
X103937Y51575D02*
D03*
Y48425D02*
D03*
D147*
X62205Y416142D02*
D03*
X88189D02*
D03*
X86378Y299890D02*
D03*
D148*
X52205Y416142D02*
D03*
X78189D02*
D03*
X69685Y299764D02*
D03*
X106378Y299890D02*
D03*
X176378D02*
D03*
X166378D02*
D03*
X156378D02*
D03*
X146378D02*
D03*
X136378D02*
D03*
X126378D02*
D03*
X116378D02*
D03*
X96378D02*
D03*
X136811Y393898D02*
D03*
Y419488D02*
D03*
X119095D02*
D03*
D149*
X222500Y256713D02*
D03*
X24075Y255138D02*
D03*
D150*
X222500Y158287D02*
D03*
X24075Y159862D02*
D03*
D151*
X69685Y289764D02*
D03*
X119095Y393898D02*
D03*
D152*
X153150Y18744D02*
D03*
X134646D02*
D03*
X116142D02*
D03*
D153*
X187953Y401575D02*
D03*
X168740D02*
D03*
D154*
X231500Y301000D02*
D03*
D155*
X221500D02*
D03*
X231500Y311000D02*
D03*
X221500D02*
D03*
X231500Y321000D02*
D03*
X221500D02*
D03*
X231500Y331000D02*
D03*
X221500D02*
D03*
X231500Y341000D02*
D03*
X221500D02*
D03*
X231500Y351000D02*
D03*
X221500D02*
D03*
X231500Y361000D02*
D03*
X221500D02*
D03*
X231500Y371000D02*
D03*
X221500D02*
D03*
X231500Y381000D02*
D03*
X221500D02*
D03*
X231500Y391000D02*
D03*
X221500D02*
D03*
D156*
X237500Y417500D02*
D03*
X10000D02*
D03*
X237500Y50000D02*
D03*
X10000D02*
D03*
M02*
